<svg width="201" height="60" viewBox="0 0 201 60" xmlns="http://www.w3.org/2000/svg"><title>loader</title><g fill="#000" fill-rule="evenodd"><path d="M0 0h201v60H0V0zm2.375 57.773h18.87V56.59l-3.552-2.368v-22.2c.74-.592 1.628-1.06 2.664-1.406 1.036-.345 1.998-.518 2.886-.518 1.53 0 2.775.457 3.737 1.37.962.912 1.443 2.232 1.443 3.958v18.796l-3.626 2.368v1.184h17.76V56.59l-3.7-2.368v-21.83a7.48 7.48 0 0 1 2.664-1.702 8.87 8.87 0 0 1 3.182-.592c1.53 0 2.775.457 3.737 1.37.962.912 1.443 2.232 1.443 3.958v18.796l-3.774 2.368v1.184H65.2V56.59l-4.884-2.368v-21.83c0-3.01-.937-5.278-2.812-6.808-1.875-1.53-4.267-2.294-7.178-2.294-2.417 0-4.477.543-6.18 1.628-1.701 1.086-3.49 2.615-5.364 4.588h-.296c-.543-2.072-1.677-3.626-3.404-4.662-1.727-1.036-3.799-1.554-6.216-1.554-2.27 0-4.218.481-5.846 1.443-1.628.962-3.305 2.307-5.032 4.033h-.37l-.666-5.476h-.888L2.597 27.803v.888l4.736 3.034v22.496L2.375 56.59v1.184zm88.874 0h18.87V56.59l-3.552-2.368v-22.2c.74-.592 1.628-1.06 2.664-1.406 1.036-.345 1.998-.518 2.886-.518 1.53 0 2.775.457 3.737 1.37.962.912 1.443 2.232 1.443 3.958v18.796l-3.626 2.368v1.184h17.76V56.59l-3.7-2.368v-21.83a7.48 7.48 0 0 1 2.664-1.702 8.87 8.87 0 0 1 3.182-.592c1.53 0 2.775.457 3.737 1.37.962.912 1.443 2.232 1.443 3.958v18.796l-3.774 2.368v1.184h19.092V56.59l-4.884-2.368v-21.83c0-3.01-.937-5.278-2.812-6.808-1.875-1.53-4.267-2.294-7.178-2.294-2.417 0-4.477.543-6.18 1.628-1.701 1.086-3.49 2.615-5.364 4.588h-.296c-.543-2.072-1.677-3.626-3.404-4.662-1.727-1.036-3.799-1.554-6.216-1.554-2.27 0-4.218.481-5.846 1.443-1.628.962-3.305 2.307-5.032 4.033h-.37l-.666-5.476h-.888L91.47 27.803v.888l4.736 3.034v22.496l-4.958 2.368v1.184zm88.874 0h19.758V56.59l-4.366-2.368V23.29h-.888l-14.282 4.07v.888l4.736 3.478v22.496l-4.958 2.368v1.184z" fill-rule="nonzero"/><path d="M2.375 57.773V56.59l4.958-2.368V31.725l-4.736-3.034v-.888l13.468-4.514h.888l.666 5.476h.37c1.727-1.726 3.404-3.07 5.032-4.033 1.628-.962 3.577-1.443 5.846-1.443 2.417 0 4.49.518 6.216 1.554 1.727 1.036 2.861 2.59 3.404 4.662h.296c1.875-1.973 3.663-3.502 5.365-4.588 1.702-1.085 3.762-1.628 6.179-1.628 2.91 0 5.303.765 7.178 2.294 1.875 1.53 2.812 3.799 2.812 6.808v21.83L65.2 56.59v1.184H46.109V56.59l3.774-2.368V35.425c0-1.726-.481-3.046-1.443-3.959-.962-.912-2.208-1.369-3.737-1.369a8.87 8.87 0 0 0-3.182.592 7.48 7.48 0 0 0-2.664 1.702v21.83l3.7 2.368v1.184h-17.76V56.59l3.626-2.368V35.425c0-1.726-.481-3.046-1.443-3.959-.962-.912-2.208-1.369-3.737-1.369-.888 0-1.85.173-2.886.518-1.036.346-1.924.814-2.664 1.406v22.2l3.552 2.368v1.184H2.375zm88.874 0V56.59l4.958-2.368V31.725l-4.736-3.034v-.888l13.468-4.514h.888l.666 5.476h.37c1.727-1.726 3.404-3.07 5.032-4.033 1.628-.962 3.577-1.443 5.846-1.443 2.417 0 4.49.518 6.216 1.554 1.727 1.036 2.861 2.59 3.404 4.662h.296c1.875-1.973 3.663-3.502 5.365-4.588 1.702-1.085 3.762-1.628 6.179-1.628 2.91 0 5.303.765 7.178 2.294 1.875 1.53 2.812 3.799 2.812 6.808v21.83l4.884 2.368v1.184h-19.092V56.59l3.774-2.368V35.425c0-1.726-.481-3.046-1.443-3.959-.962-.912-2.208-1.369-3.737-1.369a8.87 8.87 0 0 0-3.182.592 7.48 7.48 0 0 0-2.664 1.702v21.83l3.7 2.368v1.184h-17.76V56.59l3.626-2.368V35.425c0-1.726-.481-3.046-1.443-3.959-.962-.912-2.208-1.369-3.737-1.369-.888 0-1.85.173-2.886.518-1.036.346-1.924.814-2.664 1.406v22.2l3.552 2.368v1.184h-18.87zm88.874 0V56.59l4.958-2.368V31.725l-4.736-3.478v-.888l14.282-4.07h.888v30.932l4.366 2.368v1.184h-19.758z" stroke="#FFF" stroke-width=".5" fill="none"/></g></svg>