<?xml version="1.0" standalone="no"?>
<!DOCTYPE svg PUBLIC "-//W3C//DTD SVG 1.1//EN" "http://www.w3.org/Graphics/SVG/1.1/DTD/svg11.dtd" >
<svg>
<metadata>
Created by FontForge 20090622 at Sun Jan 13 10:48:08 2019
 By deploy user
Copyright &#194;&#169; 2016 by SCANIA. All rights reserved.
</metadata>
<defs>
<font id="ScaniaSansHeadlineV1-Regular" horiz-adv-x="785" >
  <font-face 
    font-family="Scania Sans Headline V1"
    font-weight="400"
    font-stretch="expanded"
    units-per-em="1000"
    panose-1="0 0 5 5 0 0 0 0 0 0"
    ascent="750"
    descent="-250"
    x-height="710"
    cap-height="710"
    bbox="-868 -230 1527 950"
    underline-thickness="50"
    underline-position="-50"
    unicode-range="U+0020-U+2260"
  />
<missing-glyph horiz-adv-x="536" 
d="M100 710h336v-710h-336v710zM394 44v622h-252v-622h252z" />
    <glyph glyph-name=".notdef" horiz-adv-x="536" 
d="M100 710h336v-710h-336v710zM394 44v622h-252v-622h252z" />
    <glyph glyph-name="space" unicode=" " horiz-adv-x="260" 
 />
    <glyph glyph-name="A" unicode="A" 
d="M596 178h-414l-80 -178h-100l321 710h138l322 -710h-108zM559 262l-169 382l-171 -382h340z" />
    <glyph glyph-name="Aacute" unicode="&#xc1;" 
d="M596 178h-414l-80 -178h-100l321 710h138l322 -710h-108zM559 262l-169 382l-171 -382h340zM416 892h122l-102 -132h-88z" />
    <glyph glyph-name="Abreve" unicode="&#x102;" 
d="M596 178h-414l-80 -178h-100l321 710h138l322 -710h-108zM559 262l-169 382l-171 -382h340zM275 790q-48 30 -48 81v21h85v-12q0 -29 24 -44.5t57 -15.5t57.5 15.5t24.5 44.5v12h84v-21q0 -51 -48 -81t-118 -30t-118 30z" />
    <glyph glyph-name="Acircumflex" unicode="&#xc2;" 
d="M596 178h-414l-80 -178h-100l321 710h138l322 -710h-108zM559 262l-169 382l-171 -382h340zM476 760l-83 93l-83 -93h-86l92 132h112h42l92 -132h-86z" />
    <glyph glyph-name="Adieresis" unicode="&#xc4;" 
d="M596 178h-414l-80 -178h-100l321 710h138l322 -710h-108zM559 262l-169 382l-171 -382h340zM235 892h96v-108h-96v108zM454 892h96v-108h-96v108z" />
    <glyph glyph-name="Agrave" unicode="&#xc0;" 
d="M596 178h-414l-80 -178h-100l321 710h138l322 -710h-108zM559 262l-169 382l-171 -382h340zM350 760l-102 132h122l68 -132h-88z" />
    <glyph glyph-name="Amacron" unicode="&#x100;" 
d="M596 178h-414l-80 -178h-100l321 710h138l322 -710h-108zM559 262l-169 382l-171 -382h340zM234 855h318v-74h-318v74z" />
    <glyph glyph-name="Aogonek" unicode="&#x104;" 
d="M754 -133h21v-51q-23 -5 -46 -5q-52 0 -83 22t-31 66q0 60 81 101h-21l-79 178h-414l-80 -178h-100l321 710h138l322 -710q-52 -29 -73.5 -47.5t-21.5 -40.5v-7q0 -38 66 -38zM559 262l-169 382l-171 -382h340z" />
    <glyph glyph-name="Aring" unicode="&#xc5;" 
d="M596 178h-414l-80 -178h-100l306 676q-26 17 -41 43t-15 58q0 55 40.5 90t100.5 35t100.5 -35t40.5 -90q0 -32 -15 -58.5t-42 -43.5l306 -675h-108zM317 772q0 -33 21.5 -50t54.5 -17t54.5 17t21.5 50v10q0 33 -21.5 50t-54.5 17t-54.5 -17t-21.5 -50v-10zM559 262
l-169 382l-171 -382h340z" />
    <glyph glyph-name="Atilde" unicode="&#xc3;" 
d="M596 178h-414l-80 -178h-100l321 710h138l322 -710h-108zM559 262l-169 382l-171 -382h340zM241.5 854q29.5 28 71.5 28q27 0 49.5 -6.5t49.5 -18.5q24 -10 36.5 -14t26.5 -4q19 0 29 10t12 33h58q0 -54 -27 -82t-69 -28q-24 0 -46 6.5t-51 18.5q-4 2 -18.5 7.5t-26 8
t-20.5 2.5q-20 0 -31.5 -10t-14.5 -33h-58q0 54 29.5 82z" />
    <glyph glyph-name="AE" unicode="&#xc6;" horiz-adv-x="1195" 
d="M626 626v-229h499v-84h-499v-229h525v-84h-625v178h-298l-118 -178h-108l474 710h103h572v-84h-525zM526 262v368l-243 -368h243z" />
    <glyph glyph-name="B" unicode="B" horiz-adv-x="811" 
d="M740 309.5q37 -42.5 37 -109.5q0 -93 -61 -146.5t-166 -53.5h-424h-51v710h100h339q103 0 168 -48.5t65 -138.5q0 -60 -29 -99t-74 -55q59 -17 96 -59.5zM175 626v-224h331q65 0 103 27t38 82v10q0 54 -38 79.5t-103 25.5h-331zM675 205q0 59 -38.5 87t-105.5 28h-356
v-236h357q143 0 143 112v9z" />
    <glyph glyph-name="C" unicode="C" horiz-adv-x="902" 
d="M234.5 29q-94.5 47 -142 131t-47.5 195t47.5 195t142 131t229.5 47q115 0 201.5 -34t139 -95.5t67.5 -144.5h-102q-23 86 -102.5 138t-203.5 52q-98 0 -169 -34.5t-108.5 -94.5t-37.5 -136v-48q0 -76 37.5 -136t108.5 -94.5t169 -34.5q128 0 208 55t101 146h102
q-14 -87 -66.5 -151t-140 -99t-204.5 -35q-135 0 -229.5 47z" />
    <glyph glyph-name="Cacute" unicode="&#x106;" horiz-adv-x="902" 
d="M234.5 29q-94.5 47 -142 131t-47.5 195t47.5 195t142 131t229.5 47q115 0 201.5 -34t139 -95.5t67.5 -144.5h-102q-23 86 -102.5 138t-203.5 52q-98 0 -169 -34.5t-108.5 -94.5t-37.5 -136v-48q0 -76 37.5 -136t108.5 -94.5t169 -34.5q128 0 208 55t101 146h102
q-14 -87 -66.5 -151t-140 -99t-204.5 -35q-135 0 -229.5 47zM489 892h122l-102 -132h-88z" />
    <glyph glyph-name="Ccaron" unicode="&#x10c;" horiz-adv-x="902" 
d="M234.5 29q-94.5 47 -142 131t-47.5 195t47.5 195t142 131t229.5 47q115 0 201.5 -34t139 -95.5t67.5 -144.5h-102q-23 86 -102.5 138t-203.5 52q-98 0 -169 -34.5t-108.5 -94.5t-37.5 -136v-48q0 -76 37.5 -136t108.5 -94.5t169 -34.5q128 0 208 55t101 146h102
q-14 -87 -66.5 -151t-140 -99t-204.5 -35q-135 0 -229.5 47zM635 892l-92 -132h-112h-42l-92 132h86l83 -93l83 93h86z" />
    <glyph glyph-name="Ccedilla" unicode="&#xc7;" horiz-adv-x="902" 
d="M809 117q-52 -64 -139 -99.5t-203 -35.5l-13 -22q121 -3 121 -76q0 -45 -34 -65.5t-87 -20.5q-33 0 -67 8t-60 24l32 48q43 -25 94 -25q56 0 56 30q0 15 -15.5 21t-45.5 6h-44l-29 24l29 51q-117 10 -197.5 59t-121 128.5t-40.5 182.5q0 111 47.5 195t142 131t229.5 47
q115 0 201.5 -34t139 -95.5t67.5 -144.5h-102q-23 86 -102.5 138t-203.5 52q-98 0 -169 -34.5t-108.5 -94.5t-37.5 -136v-48q0 -76 37.5 -136t108.5 -94.5t169 -34.5q128 0 208 55t101 146h102q-14 -86 -66 -150z" />
    <glyph glyph-name="Cdotaccent" unicode="&#x10a;" horiz-adv-x="902" 
d="M234.5 29q-94.5 47 -142 131t-47.5 195t47.5 195t142 131t229.5 47q115 0 201.5 -34t139 -95.5t67.5 -144.5h-102q-23 86 -102.5 138t-203.5 52q-98 0 -169 -34.5t-108.5 -94.5t-37.5 -136v-48q0 -76 37.5 -136t108.5 -94.5t169 -34.5q128 0 208 55t101 146h102
q-14 -87 -66.5 -151t-140 -99t-204.5 -35q-135 0 -229.5 47zM418 892h96v-108h-96v108z" />
    <glyph glyph-name="D" unicode="D" horiz-adv-x="869" 
d="M639 665q92 -45 138.5 -125t46.5 -185t-46.5 -185t-138.5 -125t-224 -45h-277h-63v710h100h240q132 0 224 -45zM720 379q0 71 -35.5 127t-104.5 88t-165 32h-240v-542h240q96 0 165 32t104.5 88t35.5 127v48z" />
    <glyph glyph-name="Eth" unicode="&#xd0;" horiz-adv-x="920" 
d="M690 665q92 -45 138.5 -125t46.5 -185t-46.5 -185t-138.5 -125t-224 -45h-277h-63v315h-96v80h96v315h100h240q132 0 224 -45zM771 379q0 71 -35.5 127t-104.5 88t-165 32h-240v-231h299v-80h-299v-231h240q96 0 165 32t104.5 88t35.5 127v48z" />
    <glyph glyph-name="Dcaron" unicode="&#x10e;" horiz-adv-x="869" 
d="M639 665q92 -45 138.5 -125t46.5 -185t-46.5 -185t-138.5 -125t-224 -45h-277h-63v710h100h240q132 0 224 -45zM720 379q0 71 -35.5 127t-104.5 88t-165 32h-240v-542h240q96 0 165 32t104.5 88t35.5 127v48zM591 892l-92 -132h-112h-42l-92 132h86l83 -93l83 93h86z" />
    <glyph glyph-name="Dcroat" unicode="&#x110;" horiz-adv-x="920" 
d="M690 665q92 -45 138.5 -125t46.5 -185t-46.5 -185t-138.5 -125t-224 -45h-277h-63v315h-96v80h96v315h100h240q132 0 224 -45zM771 379q0 71 -35.5 127t-104.5 88t-165 32h-240v-231h299v-80h-299v-231h240q96 0 165 32t104.5 88t35.5 127v48z" />
    <glyph glyph-name="E" unicode="E" horiz-adv-x="744" 
d="M175 626v-229h499v-84h-499v-229h525v-84h-571h-54v710h100h525v-84h-525z" />
    <glyph glyph-name="Eacute" unicode="&#xc9;" horiz-adv-x="744" 
d="M175 626v-229h499v-84h-499v-229h525v-84h-571h-54v710h100h525v-84h-525zM416 892h122l-102 -132h-88z" />
    <glyph glyph-name="Ecaron" unicode="&#x11a;" horiz-adv-x="744" 
d="M175 626v-229h499v-84h-499v-229h525v-84h-571h-54v710h100h525v-84h-525zM562 892l-92 -132h-112h-42l-92 132h86l83 -93l83 93h86z" />
    <glyph glyph-name="Ecircumflex" unicode="&#xca;" horiz-adv-x="744" 
d="M175 626v-229h499v-84h-499v-229h525v-84h-571h-54v710h100h525v-84h-525zM476 760l-83 93l-83 -93h-86l92 132h112h42l92 -132h-86z" />
    <glyph glyph-name="Edieresis" unicode="&#xcb;" horiz-adv-x="744" 
d="M175 626v-229h499v-84h-499v-229h525v-84h-571h-54v710h100h525v-84h-525zM235 892h96v-108h-96v108zM454 892h96v-108h-96v108z" />
    <glyph glyph-name="Edotaccent" unicode="&#x116;" horiz-adv-x="744" 
d="M175 626v-229h499v-84h-499v-229h525v-84h-571h-54v710h100h525v-84h-525zM345 892h96v-108h-96v108z" />
    <glyph glyph-name="Egrave" unicode="&#xc8;" horiz-adv-x="744" 
d="M175 626v-229h499v-84h-499v-229h525v-84h-571h-54v710h100h525v-84h-525zM350 760l-102 132h122l68 -132h-88z" />
    <glyph glyph-name="Emacron" unicode="&#x112;" horiz-adv-x="744" 
d="M175 626v-229h499v-84h-499v-229h525v-84h-571h-54v710h100h525v-84h-525zM234 855h318v-74h-318v74z" />
    <glyph glyph-name="Eogonek" unicode="&#x118;" horiz-adv-x="744" 
d="M175 626v-229h499v-84h-499v-229h525v-84q-52 -29 -73.5 -47.5t-21.5 -40.5v-7q0 -38 66 -38h21v-51q-23 -5 -46 -5q-52 0 -83 22t-31 66q0 60 81 101h-484h-54v710h100h525v-84h-525z" />
    <glyph glyph-name="F" unicode="F" horiz-adv-x="733" 
d="M175 626v-229h499v-84h-499v-313h-100v710h100h525v-84h-525z" />
    <glyph glyph-name="G" unicode="G" horiz-adv-x="922" 
d="M877 367v-59q0 -29 -5 -51q-30 -128 -136 -201.5t-272 -73.5q-131 0 -225.5 47t-144 131.5t-49.5 194.5t49.5 194.5t144 131.5t225.5 47q107 0 192.5 -31.5t140 -87.5t70.5 -129h-104q-26 74 -105 119t-194 45q-98 0 -169 -34.5t-108.5 -94.5t-37.5 -136v-48
q0 -76 37.5 -136t108.5 -94.5t169 -34.5q130 0 212 59.5t99 157.5h-345v84h447z" />
    <glyph glyph-name="Gbreve" unicode="&#x11e;" horiz-adv-x="922" 
d="M877 367v-59q0 -29 -5 -51q-30 -128 -136 -201.5t-272 -73.5q-131 0 -225.5 47t-144 131.5t-49.5 194.5t49.5 194.5t144 131.5t225.5 47q107 0 192.5 -31.5t140 -87.5t70.5 -129h-104q-26 74 -105 119t-194 45q-98 0 -169 -34.5t-108.5 -94.5t-37.5 -136v-48
q0 -76 37.5 -136t108.5 -94.5t169 -34.5q130 0 212 59.5t99 157.5h-345v84h447zM341 790q-48 30 -48 81v21h85v-12q0 -29 24 -44.5t57 -15.5t57.5 15.5t24.5 44.5v12h84v-21q0 -51 -48 -81t-118 -30t-118 30z" />
    <glyph glyph-name="Gcommaaccent" unicode="&#x122;" horiz-adv-x="922" 
d="M877 367v-59q0 -29 -5 -51q-30 -128 -136 -201.5t-272 -73.5q-131 0 -225.5 47t-144 131.5t-49.5 194.5t49.5 194.5t144 131.5t225.5 47q107 0 192.5 -31.5t140 -87.5t70.5 -129h-104q-26 74 -105 119t-194 45q-98 0 -169 -34.5t-108.5 -94.5t-37.5 -136v-48
q0 -76 37.5 -136t108.5 -94.5t169 -34.5q130 0 212 59.5t99 157.5h-345v84h447zM456 -160h-51v86h108v-86l-56 -70h-52z" />
    <glyph glyph-name="Gdotaccent" unicode="&#x120;" horiz-adv-x="922" 
d="M877 367v-59q0 -29 -5 -51q-30 -128 -136 -201.5t-272 -73.5q-131 0 -225.5 47t-144 131.5t-49.5 194.5t49.5 194.5t144 131.5t225.5 47q107 0 192.5 -31.5t140 -87.5t70.5 -129h-104q-26 74 -105 119t-194 45q-98 0 -169 -34.5t-108.5 -94.5t-37.5 -136v-48
q0 -76 37.5 -136t108.5 -94.5t169 -34.5q130 0 212 59.5t99 157.5h-345v84h447zM411 892h96v-108h-96v108z" />
    <glyph glyph-name="H" unicode="H" horiz-adv-x="834" 
d="M759 710v-710h-100v313h-484v-313h-100v710h100v-313h484v313h100z" />
    <glyph glyph-name="Hbar" unicode="&#x126;" horiz-adv-x="934" 
d="M894 533h-85v-533h-100v313h-484v-313h-100v533h-85v78h85v99h100v-99h484v99h100v-99h85v-78zM709 533h-484v-136h484v136z" />
    <glyph glyph-name="I" unicode="I" horiz-adv-x="260" 
d="M80 710h100v-710h-100v710z" />
    <glyph glyph-name="Iacute" unicode="&#xcd;" horiz-adv-x="260" 
d="M80 710h100v-710h-100v710zM153 892h122l-102 -132h-88z" />
    <glyph glyph-name="Icircumflex" unicode="&#xce;" horiz-adv-x="260" 
d="M80 710h100v-710h-100v710zM213 760l-83 93l-83 -93h-86l92 132h112h42l92 -132h-86z" />
    <glyph glyph-name="Idieresis" unicode="&#xcf;" horiz-adv-x="260" 
d="M80 710h100v-710h-100v710zM-28 892h96v-108h-96v108zM191 892h96v-108h-96v108z" />
    <glyph glyph-name="Idotaccent" unicode="&#x130;" horiz-adv-x="260" 
d="M80 710h100v-710h-100v710zM82 892h96v-108h-96v108z" />
    <glyph glyph-name="Igrave" unicode="&#xcc;" horiz-adv-x="260" 
d="M80 710h100v-710h-100v710zM87 760l-102 132h122l68 -132h-88z" />
    <glyph glyph-name="Imacron" unicode="&#x12a;" horiz-adv-x="260" 
d="M80 710h100v-710h-100v710zM-29 855h318v-74h-318v74z" />
    <glyph glyph-name="Iogonek" unicode="&#x12e;" horiz-adv-x="260" 
d="M106.5 -47.5q-21.5 -18.5 -21.5 -40.5v-7q0 -38 66 -38h21v-51q-23 -5 -46 -5q-52 0 -83 22t-31 66q0 60 81 101h-13v710h100v-710q-52 -29 -73.5 -47.5z" />
    <glyph glyph-name="J" unicode="J" horiz-adv-x="617" 
d="M141 10q-59 28 -88.5 74t-32.5 102h102q9 -53 50 -86.5t113 -33.5q76 0 116.5 41.5t40.5 110.5v493h100v-498q0 -64 -28.5 -116.5t-86.5 -83.5t-142 -31q-85 0 -144 28z" />
    <glyph glyph-name="K" unicode="K" horiz-adv-x="803" 
d="M409 366l-234 -205v-161h-100v710h100v-434l495 434h133l-322 -281l329 -429h-120z" />
    <glyph glyph-name="Kcommaaccent" unicode="&#x136;" horiz-adv-x="803" 
d="M409 366l-234 -205v-161h-100v710h100v-434l495 434h133l-322 -281l329 -429h-120zM400 -160h-51v86h108v-86l-56 -70h-52z" />
    <glyph glyph-name="L" unicode="L" horiz-adv-x="675" 
d="M75 710h100v-626h486v-84h-586v710z" />
    <glyph glyph-name="Lacute" unicode="&#x139;" horiz-adv-x="675" 
d="M75 710h100v-626h486v-84h-586v710zM152 892h122l-102 -132h-88z" />
    <glyph glyph-name="Lcaron" unicode="&#x13d;" horiz-adv-x="675" 
d="M75 710h100v-626h486v-84h-586v710zM291 710h91l-57 -192h-67z" />
    <glyph glyph-name="Lcommaaccent" unicode="&#x13b;" horiz-adv-x="675" 
d="M75 710h100v-626h486v-84h-586v710zM368 -160h-51v86h108v-86l-56 -70h-52z" />
    <glyph glyph-name="Lslash" unicode="&#x141;" horiz-adv-x="720" 
d="M706 84v-84h-586v258l-85 -48v89l85 48v363h100v-306l191 109v-89l-191 -109v-231h486z" />
    <glyph glyph-name="M" unicode="M" horiz-adv-x="1010" 
d="M935 710v-710h-98v618l-269 -618h-120l-275 616v-616h-98v710h153l281 -632l273 632h153z" />
    <glyph glyph-name="N" unicode="N" horiz-adv-x="904" 
d="M829 710v-710h-141l-515 626v-626h-98v710h146l510 -620v620h98z" />
    <glyph glyph-name="Nacute" unicode="&#x143;" horiz-adv-x="904" 
d="M829 710v-710h-141l-515 626v-626h-98v710h146l510 -620v620h98zM475 892h122l-102 -132h-88z" />
    <glyph glyph-name="Ncaron" unicode="&#x147;" horiz-adv-x="904" 
d="M829 710v-710h-141l-515 626v-626h-98v710h146l510 -620v620h98zM621 892l-92 -132h-112h-42l-92 132h86l83 -93l83 93h86z" />
    <glyph glyph-name="Ncommaaccent" unicode="&#x145;" horiz-adv-x="904" 
d="M829 710v-710h-141l-515 626v-626h-98v710h146l510 -620v620h98zM449 -160h-51v86h108v-86l-56 -70h-52z" />
    <glyph glyph-name="Eng" unicode="&#x14a;" horiz-adv-x="904" 
d="M829 710v-662v-46q0 -67 -14 -104.5t-48.5 -54.5t-98.5 -17q-17 0 -33 2v80h22q44 0 59 20t15 74v9l-558 616v-627h-98v710h146l510 -563v563h98z" />
    <glyph glyph-name="Ntilde" unicode="&#xd1;" horiz-adv-x="904" 
d="M829 710v-710h-141l-515 626v-626h-98v710h146l510 -620v620h98zM300.5 854q29.5 28 71.5 28q27 0 49.5 -6.5t49.5 -18.5q24 -10 36.5 -14t26.5 -4q19 0 29 10t12 33h58q0 -54 -27 -82t-69 -28q-24 0 -46 6.5t-51 18.5q-4 2 -18.5 7.5t-26 8t-20.5 2.5q-20 0 -31.5 -10
t-14.5 -33h-58q0 54 29.5 82z" />
    <glyph glyph-name="O" unicode="O" horiz-adv-x="928" 
d="M239.5 29q-94.5 47 -144.5 131.5t-50 194.5t50 194.5t144.5 131.5t224.5 47t224.5 -47t144.5 -131.5t50 -194.5t-50 -194.5t-144.5 -131.5t-224.5 -47t-224.5 47zM633 100.5q71 34.5 108.5 94.5t37.5 136v48q0 76 -37.5 136t-108.5 94.5t-169 34.5t-169 -34.5
t-108.5 -94.5t-37.5 -136v-48q0 -76 37.5 -136t108.5 -94.5t169 -34.5t169 34.5z" />
    <glyph glyph-name="Oacute" unicode="&#xd3;" horiz-adv-x="928" 
d="M239.5 29q-94.5 47 -144.5 131.5t-50 194.5t50 194.5t144.5 131.5t224.5 47t224.5 -47t144.5 -131.5t50 -194.5t-50 -194.5t-144.5 -131.5t-224.5 -47t-224.5 47zM633 100.5q71 34.5 108.5 94.5t37.5 136v48q0 76 -37.5 136t-108.5 94.5t-169 34.5t-169 -34.5
t-108.5 -94.5t-37.5 -136v-48q0 -76 37.5 -136t108.5 -94.5t169 -34.5t169 34.5zM487 892h122l-102 -132h-88z" />
    <glyph glyph-name="Ocircumflex" unicode="&#xd4;" horiz-adv-x="928" 
d="M239.5 29q-94.5 47 -144.5 131.5t-50 194.5t50 194.5t144.5 131.5t224.5 47t224.5 -47t144.5 -131.5t50 -194.5t-50 -194.5t-144.5 -131.5t-224.5 -47t-224.5 47zM633 100.5q71 34.5 108.5 94.5t37.5 136v48q0 76 -37.5 136t-108.5 94.5t-169 34.5t-169 -34.5
t-108.5 -94.5t-37.5 -136v-48q0 -76 37.5 -136t108.5 -94.5t169 -34.5t169 34.5zM547 760l-83 93l-83 -93h-86l92 132h112h42l92 -132h-86z" />
    <glyph glyph-name="Odieresis" unicode="&#xd6;" horiz-adv-x="928" 
d="M239.5 29q-94.5 47 -144.5 131.5t-50 194.5t50 194.5t144.5 131.5t224.5 47t224.5 -47t144.5 -131.5t50 -194.5t-50 -194.5t-144.5 -131.5t-224.5 -47t-224.5 47zM633 100.5q71 34.5 108.5 94.5t37.5 136v48q0 76 -37.5 136t-108.5 94.5t-169 34.5t-169 -34.5
t-108.5 -94.5t-37.5 -136v-48q0 -76 37.5 -136t108.5 -94.5t169 -34.5t169 34.5zM306 892h96v-108h-96v108zM525 892h96v-108h-96v108z" />
    <glyph glyph-name="Ograve" unicode="&#xd2;" horiz-adv-x="928" 
d="M239.5 29q-94.5 47 -144.5 131.5t-50 194.5t50 194.5t144.5 131.5t224.5 47t224.5 -47t144.5 -131.5t50 -194.5t-50 -194.5t-144.5 -131.5t-224.5 -47t-224.5 47zM633 100.5q71 34.5 108.5 94.5t37.5 136v48q0 76 -37.5 136t-108.5 94.5t-169 34.5t-169 -34.5
t-108.5 -94.5t-37.5 -136v-48q0 -76 37.5 -136t108.5 -94.5t169 -34.5t169 34.5zM421 760l-102 132h122l68 -132h-88z" />
    <glyph glyph-name="Ohungarumlaut" unicode="&#x150;" horiz-adv-x="928" 
d="M239.5 29q-94.5 47 -144.5 131.5t-50 194.5t50 194.5t144.5 131.5t224.5 47t224.5 -47t144.5 -131.5t50 -194.5t-50 -194.5t-144.5 -131.5t-224.5 -47t-224.5 47zM633 100.5q71 34.5 108.5 94.5t37.5 136v48q0 76 -37.5 136t-108.5 94.5t-169 34.5t-169 -34.5
t-108.5 -94.5t-37.5 -136v-48q0 -76 37.5 -136t108.5 -94.5t169 -34.5t169 34.5zM377 892h122l-102 -132h-88zM577 892h122l-102 -132h-88z" />
    <glyph glyph-name="Omacron" unicode="&#x14c;" horiz-adv-x="928" 
d="M239.5 29q-94.5 47 -144.5 131.5t-50 194.5t50 194.5t144.5 131.5t224.5 47t224.5 -47t144.5 -131.5t50 -194.5t-50 -194.5t-144.5 -131.5t-224.5 -47t-224.5 47zM633 100.5q71 34.5 108.5 94.5t37.5 136v48q0 76 -37.5 136t-108.5 94.5t-169 34.5t-169 -34.5
t-108.5 -94.5t-37.5 -136v-48q0 -76 37.5 -136t108.5 -94.5t169 -34.5t169 34.5zM305 855h318v-74h-318v74z" />
    <glyph glyph-name="Oslash" unicode="&#xd8;" horiz-adv-x="928" 
d="M854.5 505.5q28.5 -68.5 28.5 -150.5q0 -110 -50 -194.5t-144.5 -131.5t-224.5 -47q-144 0 -248 60l-58 -60h-103l100 105q-53 50 -81.5 118.5t-28.5 149.5q0 110 50 194.5t144.5 131.5t224.5 47q146 0 248 -60l57 60h104l-100 -105q53 -49 81.5 -117.5zM219 154l429 448
q-76 42 -184 42q-98 0 -169 -34.5t-108.5 -94.5t-37.5 -136v-48q0 -107 70 -177zM779 379q0 106 -70 178l-430 -449q76 -42 185 -42q98 0 169 34.5t108.5 94.5t37.5 136v48z" />
    <glyph glyph-name="Otilde" unicode="&#xd5;" horiz-adv-x="928" 
d="M239.5 29q-94.5 47 -144.5 131.5t-50 194.5t50 194.5t144.5 131.5t224.5 47t224.5 -47t144.5 -131.5t50 -194.5t-50 -194.5t-144.5 -131.5t-224.5 -47t-224.5 47zM633 100.5q71 34.5 108.5 94.5t37.5 136v48q0 76 -37.5 136t-108.5 94.5t-169 34.5t-169 -34.5
t-108.5 -94.5t-37.5 -136v-48q0 -76 37.5 -136t108.5 -94.5t169 -34.5t169 34.5zM312.5 854q29.5 28 71.5 28q27 0 49.5 -6.5t49.5 -18.5q24 -10 36.5 -14t26.5 -4q19 0 29 10t12 33h58q0 -54 -27 -82t-69 -28q-24 0 -46 6.5t-51 18.5q-4 2 -18.5 7.5t-26 8t-20.5 2.5
q-20 0 -31.5 -10t-14.5 -33h-58q0 54 29.5 82z" />
    <glyph glyph-name="OE" unicode="&#x152;" horiz-adv-x="1448" 
d="M879 626v-229h499v-84h-499v-229h525v-84h-625v100q-54 -57 -133.5 -87.5t-181.5 -30.5q-130 0 -224.5 47t-144.5 131.5t-50 194.5t50 194.5t144.5 131.5t224.5 47q102 0 181.5 -30.5t133.5 -87.5v100h625v-84h-525zM633 100.5q71 34.5 108.5 94.5t37.5 136v48
q0 76 -37.5 136t-108.5 94.5t-169 34.5t-169 -34.5t-108.5 -94.5t-37.5 -136v-48q0 -76 37.5 -136t108.5 -94.5t169 -34.5t169 34.5z" />
    <glyph glyph-name="P" unicode="P" horiz-adv-x="796" 
d="M654.5 680.5q56.5 -29.5 86.5 -81t30 -115.5t-30 -115.5t-86.5 -81t-132.5 -29.5h-347v-258h-100v710h100h347q76 0 132.5 -29.5zM668 492q0 66 -47 100t-130 34h-316v-284h316q83 0 130 34t47 100v16z" />
    <glyph glyph-name="Thorn" unicode="&#xde;" horiz-adv-x="786" 
d="M644.5 580.5q56.5 -29.5 86.5 -81t30 -115.5t-30 -115.5t-86.5 -81t-132.5 -29.5h-337v-158h-100v710h100v-100h337q76 0 132.5 -29.5zM658 392q0 66 -47 100t-130 34h-306v-284h306q83 0 130 34t47 100v16z" />
    <glyph glyph-name="Q" unicode="Q" horiz-adv-x="928" 
d="M837 167.5q-46 -82.5 -132 -129.5l80 -109h-115l-53 73q-71 -20 -153 -20q-130 0 -224.5 47t-144.5 131.5t-50 194.5t50 194.5t144.5 131.5t224.5 47t224.5 -47t144.5 -131.5t50 -194.5q0 -105 -46 -187.5zM562 76l-91 125h113l67 -91q62 35 95 92.5t33 128.5v48
q0 76 -37.5 136t-108.5 94.5t-169 34.5t-169 -34.5t-108.5 -94.5t-37.5 -136v-48q0 -76 37.5 -136t108.5 -94.5t169 -34.5q48 0 98 10z" />
    <glyph glyph-name="R" unicode="R" horiz-adv-x="806" 
d="M476 258h-301v-258h-100v710h100h337q76 0 132.5 -29.5t86.5 -81t30 -115.5q0 -80 -47.5 -138t-130.5 -77l208 -269h-118zM175 342h306q83 0 130 34t47 100v16q0 66 -47 100t-130 34h-306v-284z" />
    <glyph glyph-name="Racute" unicode="&#x154;" horiz-adv-x="806" 
d="M476 258h-301v-258h-100v710h100h337q76 0 132.5 -29.5t86.5 -81t30 -115.5q0 -80 -47.5 -138t-130.5 -77l208 -269h-118zM175 342h306q83 0 130 34t47 100v16q0 66 -47 100t-130 34h-306v-284zM418 892h122l-102 -132h-88z" />
    <glyph glyph-name="Rcaron" unicode="&#x158;" horiz-adv-x="806" 
d="M476 258h-301v-258h-100v710h100h337q76 0 132.5 -29.5t86.5 -81t30 -115.5q0 -80 -47.5 -138t-130.5 -77l208 -269h-118zM175 342h306q83 0 130 34t47 100v16q0 66 -47 100t-130 34h-306v-284zM564 892l-92 -132h-112h-42l-92 132h86l83 -93l83 93h86z" />
    <glyph glyph-name="Rcommaaccent" unicode="&#x156;" horiz-adv-x="806" 
d="M476 258h-301v-258h-100v710h100h337q76 0 132.5 -29.5t86.5 -81t30 -115.5q0 -80 -47.5 -138t-130.5 -77l208 -269h-118zM175 342h306q83 0 130 34t47 100v16q0 66 -47 100t-130 34h-306v-284zM392 -160h-51v86h108v-86l-56 -70h-52z" />
    <glyph glyph-name="S" unicode="S" horiz-adv-x="783" 
d="M120.5 50.5q-91.5 66.5 -91.5 179.5h104q7 -72 69 -117t197 -45q126 0 185.5 29.5t59.5 91.5v12q0 31 -20 51t-62 33.5t-115 26.5l-135 23q-98 17 -154 38.5t-82.5 57.5t-26.5 96q0 95 82 147.5t242 52.5q118 0 196.5 -29.5t116.5 -78t40 -107.5h-104q-10 57 -69.5 94
t-183.5 37q-116 0 -168 -30.5t-52 -79.5v-12q0 -29 19.5 -47t59.5 -30t111 -24l138 -23q99 -17 156 -40t84 -61.5t27 -100.5q0 -103 -88 -157t-258 -54q-186 0 -277.5 66.5z" />
    <glyph glyph-name="Sacute" unicode="&#x15a;" horiz-adv-x="783" 
d="M120.5 50.5q-91.5 66.5 -91.5 179.5h104q7 -72 69 -117t197 -45q126 0 185.5 29.5t59.5 91.5v12q0 31 -20 51t-62 33.5t-115 26.5l-135 23q-98 17 -154 38.5t-82.5 57.5t-26.5 96q0 95 82 147.5t242 52.5q118 0 196.5 -29.5t116.5 -78t40 -107.5h-104q-10 57 -69.5 94
t-183.5 37q-116 0 -168 -30.5t-52 -79.5v-12q0 -29 19.5 -47t59.5 -30t111 -24l138 -23q99 -17 156 -40t84 -61.5t27 -100.5q0 -103 -88 -157t-258 -54q-186 0 -277.5 66.5zM414 892h122l-102 -132h-88z" />
    <glyph glyph-name="Scaron" unicode="&#x160;" horiz-adv-x="783" 
d="M120.5 50.5q-91.5 66.5 -91.5 179.5h104q7 -72 69 -117t197 -45q126 0 185.5 29.5t59.5 91.5v12q0 31 -20 51t-62 33.5t-115 26.5l-135 23q-98 17 -154 38.5t-82.5 57.5t-26.5 96q0 95 82 147.5t242 52.5q118 0 196.5 -29.5t116.5 -78t40 -107.5h-104q-10 57 -69.5 94
t-183.5 37q-116 0 -168 -30.5t-52 -79.5v-12q0 -29 19.5 -47t59.5 -30t111 -24l138 -23q99 -17 156 -40t84 -61.5t27 -100.5q0 -103 -88 -157t-258 -54q-186 0 -277.5 66.5zM560 892l-92 -132h-112h-42l-92 132h86l83 -93l83 93h86z" />
    <glyph glyph-name="Scedilla" unicode="&#x15e;" horiz-adv-x="783" 
d="M658.5 39.5q-85.5 -53.5 -249.5 -55.5l-15 -24q121 -3 121 -76q0 -45 -34 -65.5t-87 -20.5q-33 0 -67 8t-60 24l32 48q43 -25 94 -25q56 0 56 30q0 15 -15.5 21t-45.5 6h-44l-29 24l29 52q-158 9 -236.5 74.5t-78.5 169.5h104q7 -72 69 -117t197 -45q126 0 185.5 29.5
t59.5 91.5v12q0 31 -20 51t-62 33.5t-115 26.5l-135 23q-98 17 -154 38.5t-82.5 57.5t-26.5 96q0 95 82 147.5t242 52.5q118 0 196.5 -29.5t116.5 -78t40 -107.5h-104q-10 57 -69.5 94t-183.5 37q-116 0 -168 -30.5t-52 -79.5v-12q0 -29 19.5 -47t59.5 -30t111 -24l138 -23
q99 -17 156 -40t84 -61.5t27 -100.5q0 -102 -85.5 -155.5z" />
    <glyph glyph-name="Scommaaccent" unicode="&#x218;" horiz-adv-x="783" 
d="M120.5 50.5q-91.5 66.5 -91.5 179.5h104q7 -72 69 -117t197 -45q126 0 185.5 29.5t59.5 91.5v12q0 31 -20 51t-62 33.5t-115 26.5l-135 23q-98 17 -154 38.5t-82.5 57.5t-26.5 96q0 95 82 147.5t242 52.5q118 0 196.5 -29.5t116.5 -78t40 -107.5h-104q-10 57 -69.5 94
t-183.5 37q-116 0 -168 -30.5t-52 -79.5v-12q0 -29 19.5 -47t59.5 -30t111 -24l138 -23q99 -17 156 -40t84 -61.5t27 -100.5q0 -103 -88 -157t-258 -54q-186 0 -277.5 66.5zM388 -160h-51v86h108v-86l-56 -70h-52z" />
    <glyph glyph-name="T" unicode="T" horiz-adv-x="756" 
d="M327 626h-310v84h722v-84h-312v-626h-100v626z" />
    <glyph glyph-name="Tbar" unicode="&#x166;" horiz-adv-x="756" 
d="M427 626v-236h139v-70h-139v-320h-100v320h-137v70h137v236h-310v84h722v-84h-312z" />
    <glyph glyph-name="Tcaron" unicode="&#x164;" horiz-adv-x="756" 
d="M327 626h-310v84h722v-84h-312v-626h-100v626zM547 892l-92 -132h-112h-42l-92 132h86l83 -93l83 93h86z" />
    <glyph glyph-name="uni0162" unicode="&#x162;" horiz-adv-x="756" 
d="M405 0l-24 -40q121 -3 121 -76q0 -45 -34 -65.5t-87 -20.5q-33 0 -67 8t-60 24l32 48q43 -25 94 -25q56 0 56 30q0 15 -15.5 21t-45.5 6h-44l-29 24l38 66h-13v626h-310v84h722v-84h-312v-626h-22z" />
    <glyph glyph-name="uni021A" unicode="&#x21a;" horiz-adv-x="756" 
d="M327 626h-310v84h722v-84h-312v-626h-100v626zM375 -160h-51v86h108v-86l-56 -70h-52z" />
    <glyph glyph-name="U" unicode="U" horiz-adv-x="873" 
d="M168.5 48q-93.5 66 -93.5 213v449h100v-438q0 -94 57.5 -149.5t177.5 -55.5h53q119 0 177 55.5t58 149.5v438h100v-449q0 -147 -94 -213t-268 -66t-267.5 66z" />
    <glyph glyph-name="Uacute" unicode="&#xda;" horiz-adv-x="873" 
d="M168.5 48q-93.5 66 -93.5 213v449h100v-438q0 -94 57.5 -149.5t177.5 -55.5h53q119 0 177 55.5t58 149.5v438h100v-449q0 -147 -94 -213t-268 -66t-267.5 66zM460 892h122l-102 -132h-88z" />
    <glyph glyph-name="Ucircumflex" unicode="&#xdb;" horiz-adv-x="873" 
d="M168.5 48q-93.5 66 -93.5 213v449h100v-438q0 -94 57.5 -149.5t177.5 -55.5h53q119 0 177 55.5t58 149.5v438h100v-449q0 -147 -94 -213t-268 -66t-267.5 66zM520 760l-83 93l-83 -93h-86l92 132h112h42l92 -132h-86z" />
    <glyph glyph-name="Udieresis" unicode="&#xdc;" horiz-adv-x="873" 
d="M168.5 48q-93.5 66 -93.5 213v449h100v-438q0 -94 57.5 -149.5t177.5 -55.5h53q119 0 177 55.5t58 149.5v438h100v-449q0 -147 -94 -213t-268 -66t-267.5 66zM279 892h96v-108h-96v108zM498 892h96v-108h-96v108z" />
    <glyph glyph-name="Ugrave" unicode="&#xd9;" horiz-adv-x="873" 
d="M168.5 48q-93.5 66 -93.5 213v449h100v-438q0 -94 57.5 -149.5t177.5 -55.5h53q119 0 177 55.5t58 149.5v438h100v-449q0 -147 -94 -213t-268 -66t-267.5 66zM394 760l-102 132h122l68 -132h-88z" />
    <glyph glyph-name="Uhungarumlaut" unicode="&#x170;" horiz-adv-x="873" 
d="M168.5 48q-93.5 66 -93.5 213v449h100v-438q0 -94 57.5 -149.5t177.5 -55.5h53q119 0 177 55.5t58 149.5v438h100v-449q0 -147 -94 -213t-268 -66t-267.5 66zM350 892h122l-102 -132h-88zM550 892h122l-102 -132h-88z" />
    <glyph glyph-name="Umacron" unicode="&#x16a;" horiz-adv-x="873" 
d="M168.5 48q-93.5 66 -93.5 213v449h100v-438q0 -94 57.5 -149.5t177.5 -55.5h53q119 0 177 55.5t58 149.5v438h100v-449q0 -147 -94 -213t-268 -66t-267.5 66zM278 855h318v-74h-318v74z" />
    <glyph glyph-name="Uogonek" unicode="&#x172;" horiz-adv-x="873" 
d="M798 710v-449q0 -109 -50 -170.5t-151 -95.5q-47 -16 -73.5 -38t-26.5 -45v-7q0 -38 66 -38h21v-51q-23 -5 -46 -5q-52 0 -83 22t-31 66q0 48 52 84q-13 -1 -40 -1q-174 0 -267.5 66t-93.5 213v449h100v-438q0 -94 57.5 -149.5t177.5 -55.5h53q119 0 177 55.5t58 149.5
v438h100z" />
    <glyph glyph-name="Uring" unicode="&#x16e;" horiz-adv-x="873" 
d="M168.5 48q-93.5 66 -93.5 213v449h100v-438q0 -94 57.5 -149.5t177.5 -55.5h53q119 0 177 55.5t58 149.5v438h100v-449q0 -147 -94 -213t-268 -66t-267.5 66zM336.5 687q-40.5 35 -40.5 90t40.5 90t100.5 35t100.5 -35t40.5 -90t-40.5 -90t-100.5 -35t-100.5 35z
M491.5 722q21.5 17 21.5 50v10q0 33 -21.5 50t-54.5 17t-54.5 -17t-21.5 -50v-10q0 -33 21.5 -50t54.5 -17t54.5 17z" />
    <glyph glyph-name="V" unicode="V" horiz-adv-x="775" 
d="M773 710l-316 -710h-138l-317 710h107l280 -636l280 636h104z" />
    <glyph glyph-name="W" unicode="W" horiz-adv-x="1068" 
d="M1056 710l-221 -710h-105l-195 604l-203 -604h-100l-220 710h101l176 -585l191 585h109l195 -588l175 588h97z" />
    <glyph glyph-name="Wacute" unicode="&#x1e82;" horiz-adv-x="1068" 
d="M1056 710l-221 -710h-105l-195 604l-203 -604h-100l-220 710h101l176 -585l191 585h109l195 -588l175 588h97zM557 892h122l-102 -132h-88z" />
    <glyph glyph-name="Wcircumflex" unicode="&#x174;" horiz-adv-x="1068" 
d="M1056 710l-221 -710h-105l-195 604l-203 -604h-100l-220 710h101l176 -585l191 585h109l195 -588l175 588h97zM617 760l-83 93l-83 -93h-86l92 132h112h42l92 -132h-86z" />
    <glyph glyph-name="Wdieresis" unicode="&#x1e84;" horiz-adv-x="1068" 
d="M1056 710l-221 -710h-105l-195 604l-203 -604h-100l-220 710h101l176 -585l191 585h109l195 -588l175 588h97zM376 892h96v-108h-96v108zM595 892h96v-108h-96v108z" />
    <glyph glyph-name="Wgrave" unicode="&#x1e80;" horiz-adv-x="1068" 
d="M1056 710l-221 -710h-105l-195 604l-203 -604h-100l-220 710h101l176 -585l191 585h109l195 -588l175 588h97zM491 760l-102 132h122l68 -132h-88z" />
    <glyph glyph-name="X" unicode="X" horiz-adv-x="730" 
d="M605 0l-241 306l-241 -306h-111l291 370l-277 340h116l225 -277l223 277h117l-279 -340l290 -370h-113z" />
    <glyph glyph-name="Y" unicode="Y" horiz-adv-x="738" 
d="M421 274v-274h-104v274l-313 436h114l252 -351l251 351h113z" />
    <glyph glyph-name="Yacute" unicode="&#xdd;" horiz-adv-x="738" 
d="M421 274v-274h-104v274l-313 436h114l252 -351l251 351h113zM392 892h122l-102 -132h-88z" />
    <glyph glyph-name="Ycircumflex" unicode="&#x176;" horiz-adv-x="738" 
d="M421 274v-274h-104v274l-313 436h114l252 -351l251 351h113zM452 760l-83 93l-83 -93h-86l92 132h112h42l92 -132h-86z" />
    <glyph glyph-name="Ydieresis" unicode="&#x178;" horiz-adv-x="738" 
d="M421 274v-274h-104v274l-313 436h114l252 -351l251 351h113zM211 892h96v-108h-96v108zM430 892h96v-108h-96v108z" />
    <glyph glyph-name="Ygrave" unicode="&#x1ef2;" horiz-adv-x="738" 
d="M421 274v-274h-104v274l-313 436h114l252 -351l251 351h113zM326 760l-102 132h122l68 -132h-88z" />
    <glyph glyph-name="Z" unicode="Z" 
d="M747 626l-579 -542h579v-84h-709v84l580 542h-570v84h699v-84z" />
    <glyph glyph-name="Zacute" unicode="&#x179;" 
d="M747 626l-579 -542h579v-84h-709v84l580 542h-570v84h699v-84zM400 892h122l-102 -132h-88z" />
    <glyph glyph-name="Zcaron" unicode="&#x17d;" 
d="M747 626l-579 -542h579v-84h-709v84l580 542h-570v84h699v-84zM546 892l-92 -132h-112h-42l-92 132h86l83 -93l83 93h86z" />
    <glyph glyph-name="Zdotaccent" unicode="&#x17b;" 
d="M747 626l-579 -542h579v-84h-709v84l580 542h-570v84h699v-84zM329 892h96v-108h-96v108z" />
    <glyph glyph-name="a" unicode="a" 
d="M596 178h-414l-80 -178h-100l321 710h138l322 -710h-108zM559 262l-169 382l-171 -382h340z" />
    <glyph glyph-name="aacute" unicode="&#xe1;" 
d="M596 178h-414l-80 -178h-100l321 710h138l322 -710h-108zM559 262l-169 382l-171 -382h340zM416 892h122l-102 -132h-88z" />
    <glyph glyph-name="abreve" unicode="&#x103;" 
d="M596 178h-414l-80 -178h-100l321 710h138l322 -710h-108zM559 262l-169 382l-171 -382h340zM275 790q-48 30 -48 81v21h85v-12q0 -29 24 -44.5t57 -15.5t57.5 15.5t24.5 44.5v12h84v-21q0 -51 -48 -81t-118 -30t-118 30z" />
    <glyph glyph-name="acircumflex" unicode="&#xe2;" 
d="M596 178h-414l-80 -178h-100l321 710h138l322 -710h-108zM559 262l-169 382l-171 -382h340zM476 760l-83 93l-83 -93h-86l92 132h112h42l92 -132h-86z" />
    <glyph glyph-name="adieresis" unicode="&#xe4;" 
d="M596 178h-414l-80 -178h-100l321 710h138l322 -710h-108zM559 262l-169 382l-171 -382h340zM235 892h96v-108h-96v108zM454 892h96v-108h-96v108z" />
    <glyph glyph-name="agrave" unicode="&#xe0;" 
d="M596 178h-414l-80 -178h-100l321 710h138l322 -710h-108zM559 262l-169 382l-171 -382h340zM350 760l-102 132h122l68 -132h-88z" />
    <glyph glyph-name="amacron" unicode="&#x101;" 
d="M596 178h-414l-80 -178h-100l321 710h138l322 -710h-108zM559 262l-169 382l-171 -382h340zM234 855h318v-74h-318v74z" />
    <glyph glyph-name="aogonek" unicode="&#x105;" 
d="M754 -133h21v-51q-23 -5 -46 -5q-52 0 -83 22t-31 66q0 60 81 101h-21l-79 178h-414l-80 -178h-100l321 710h138l322 -710q-52 -29 -73.5 -47.5t-21.5 -40.5v-7q0 -38 66 -38zM559 262l-169 382l-171 -382h340z" />
    <glyph glyph-name="aring" unicode="&#xe5;" 
d="M596 178h-414l-80 -178h-100l306 676q-26 17 -41 43t-15 58q0 55 40.5 90t100.5 35t100.5 -35t40.5 -90q0 -32 -15 -58.5t-42 -43.5l306 -675h-108zM317 772q0 -33 21.5 -50t54.5 -17t54.5 17t21.5 50v10q0 33 -21.5 50t-54.5 17t-54.5 -17t-21.5 -50v-10zM559 262
l-169 382l-171 -382h340z" />
    <glyph glyph-name="atilde" unicode="&#xe3;" 
d="M596 178h-414l-80 -178h-100l321 710h138l322 -710h-108zM559 262l-169 382l-171 -382h340zM241.5 854q29.5 28 71.5 28q27 0 49.5 -6.5t49.5 -18.5q24 -10 36.5 -14t26.5 -4q19 0 29 10t12 33h58q0 -54 -27 -82t-69 -28q-24 0 -46 6.5t-51 18.5q-4 2 -18.5 7.5t-26 8
t-20.5 2.5q-20 0 -31.5 -10t-14.5 -33h-58q0 54 29.5 82z" />
    <glyph glyph-name="ae" unicode="&#xe6;" horiz-adv-x="1195" 
d="M626 626v-229h499v-84h-499v-229h525v-84h-625v178h-298l-118 -178h-108l474 710h103h572v-84h-525zM526 262v368l-243 -368h243z" />
    <glyph glyph-name="b" unicode="b" horiz-adv-x="811" 
d="M740 309.5q37 -42.5 37 -109.5q0 -93 -61 -146.5t-166 -53.5h-424h-51v710h100h339q103 0 168 -48.5t65 -138.5q0 -60 -29 -99t-74 -55q59 -17 96 -59.5zM175 626v-224h331q65 0 103 27t38 82v10q0 54 -38 79.5t-103 25.5h-331zM675 205q0 59 -38.5 87t-105.5 28h-356
v-236h357q143 0 143 112v9z" />
    <glyph glyph-name="c" unicode="c" horiz-adv-x="902" 
d="M234.5 29q-94.5 47 -142 131t-47.5 195t47.5 195t142 131t229.5 47q115 0 201.5 -34t139 -95.5t67.5 -144.5h-102q-23 86 -102.5 138t-203.5 52q-98 0 -169 -34.5t-108.5 -94.5t-37.5 -136v-48q0 -76 37.5 -136t108.5 -94.5t169 -34.5q128 0 208 55t101 146h102
q-14 -87 -66.5 -151t-140 -99t-204.5 -35q-135 0 -229.5 47z" />
    <glyph glyph-name="cacute" unicode="&#x107;" horiz-adv-x="902" 
d="M234.5 29q-94.5 47 -142 131t-47.5 195t47.5 195t142 131t229.5 47q115 0 201.5 -34t139 -95.5t67.5 -144.5h-102q-23 86 -102.5 138t-203.5 52q-98 0 -169 -34.5t-108.5 -94.5t-37.5 -136v-48q0 -76 37.5 -136t108.5 -94.5t169 -34.5q128 0 208 55t101 146h102
q-14 -87 -66.5 -151t-140 -99t-204.5 -35q-135 0 -229.5 47zM489 892h122l-102 -132h-88z" />
    <glyph glyph-name="ccaron" unicode="&#x10d;" horiz-adv-x="902" 
d="M234.5 29q-94.5 47 -142 131t-47.5 195t47.5 195t142 131t229.5 47q115 0 201.5 -34t139 -95.5t67.5 -144.5h-102q-23 86 -102.5 138t-203.5 52q-98 0 -169 -34.5t-108.5 -94.5t-37.5 -136v-48q0 -76 37.5 -136t108.5 -94.5t169 -34.5q128 0 208 55t101 146h102
q-14 -87 -66.5 -151t-140 -99t-204.5 -35q-135 0 -229.5 47zM635 892l-92 -132h-112h-42l-92 132h86l83 -93l83 93h86z" />
    <glyph glyph-name="ccedilla" unicode="&#xe7;" horiz-adv-x="902" 
d="M809 117q-52 -64 -139 -99.5t-203 -35.5l-13 -22q121 -3 121 -76q0 -45 -34 -65.5t-87 -20.5q-33 0 -67 8t-60 24l32 48q43 -25 94 -25q56 0 56 30q0 15 -15.5 21t-45.5 6h-44l-29 24l29 51q-117 10 -197.5 59t-121 128.5t-40.5 182.5q0 111 47.5 195t142 131t229.5 47
q115 0 201.5 -34t139 -95.5t67.5 -144.5h-102q-23 86 -102.5 138t-203.5 52q-98 0 -169 -34.5t-108.5 -94.5t-37.5 -136v-48q0 -76 37.5 -136t108.5 -94.5t169 -34.5q128 0 208 55t101 146h102q-14 -86 -66 -150z" />
    <glyph glyph-name="cdotaccent" unicode="&#x10b;" horiz-adv-x="902" 
d="M234.5 29q-94.5 47 -142 131t-47.5 195t47.5 195t142 131t229.5 47q115 0 201.5 -34t139 -95.5t67.5 -144.5h-102q-23 86 -102.5 138t-203.5 52q-98 0 -169 -34.5t-108.5 -94.5t-37.5 -136v-48q0 -76 37.5 -136t108.5 -94.5t169 -34.5q128 0 208 55t101 146h102
q-14 -87 -66.5 -151t-140 -99t-204.5 -35q-135 0 -229.5 47zM418 892h96v-108h-96v108z" />
    <glyph glyph-name="d" unicode="d" horiz-adv-x="869" 
d="M639 665q92 -45 138.5 -125t46.5 -185t-46.5 -185t-138.5 -125t-224 -45h-277h-63v710h100h240q132 0 224 -45zM720 379q0 71 -35.5 127t-104.5 88t-165 32h-240v-542h240q96 0 165 32t104.5 88t35.5 127v48z" />
    <glyph glyph-name="eth" unicode="&#xf0;" horiz-adv-x="920" 
d="M690 665q92 -45 138.5 -125t46.5 -185t-46.5 -185t-138.5 -125t-224 -45h-277h-63v315h-96v80h96v315h100h240q132 0 224 -45zM771 379q0 71 -35.5 127t-104.5 88t-165 32h-240v-231h299v-80h-299v-231h240q96 0 165 32t104.5 88t35.5 127v48z" />
    <glyph glyph-name="dcaron" unicode="&#x10f;" horiz-adv-x="869" 
d="M639 665q92 -45 138.5 -125t46.5 -185t-46.5 -185t-138.5 -125t-224 -45h-277h-63v710h100h240q132 0 224 -45zM720 379q0 71 -35.5 127t-104.5 88t-165 32h-240v-542h240q96 0 165 32t104.5 88t35.5 127v48zM591 892l-92 -132h-112h-42l-92 132h86l83 -93l83 93h86z" />
    <glyph glyph-name="dcroat" unicode="&#x111;" horiz-adv-x="920" 
d="M690 665q92 -45 138.5 -125t46.5 -185t-46.5 -185t-138.5 -125t-224 -45h-277h-63v315h-96v80h96v315h100h240q132 0 224 -45zM771 379q0 71 -35.5 127t-104.5 88t-165 32h-240v-231h299v-80h-299v-231h240q96 0 165 32t104.5 88t35.5 127v48z" />
    <glyph glyph-name="e" unicode="e" horiz-adv-x="744" 
d="M175 626v-229h499v-84h-499v-229h525v-84h-571h-54v710h100h525v-84h-525z" />
    <glyph glyph-name="eacute" unicode="&#xe9;" horiz-adv-x="744" 
d="M175 626v-229h499v-84h-499v-229h525v-84h-571h-54v710h100h525v-84h-525zM416 892h122l-102 -132h-88z" />
    <glyph glyph-name="ecaron" unicode="&#x11b;" horiz-adv-x="744" 
d="M175 626v-229h499v-84h-499v-229h525v-84h-571h-54v710h100h525v-84h-525zM562 892l-92 -132h-112h-42l-92 132h86l83 -93l83 93h86z" />
    <glyph glyph-name="ecircumflex" unicode="&#xea;" horiz-adv-x="744" 
d="M175 626v-229h499v-84h-499v-229h525v-84h-571h-54v710h100h525v-84h-525zM476 760l-83 93l-83 -93h-86l92 132h112h42l92 -132h-86z" />
    <glyph glyph-name="edieresis" unicode="&#xeb;" horiz-adv-x="744" 
d="M175 626v-229h499v-84h-499v-229h525v-84h-571h-54v710h100h525v-84h-525zM235 892h96v-108h-96v108zM454 892h96v-108h-96v108z" />
    <glyph glyph-name="edotaccent" unicode="&#x117;" horiz-adv-x="744" 
d="M175 626v-229h499v-84h-499v-229h525v-84h-571h-54v710h100h525v-84h-525zM345 892h96v-108h-96v108z" />
    <glyph glyph-name="egrave" unicode="&#xe8;" horiz-adv-x="744" 
d="M175 626v-229h499v-84h-499v-229h525v-84h-571h-54v710h100h525v-84h-525zM350 760l-102 132h122l68 -132h-88z" />
    <glyph glyph-name="emacron" unicode="&#x113;" horiz-adv-x="744" 
d="M175 626v-229h499v-84h-499v-229h525v-84h-571h-54v710h100h525v-84h-525zM234 855h318v-74h-318v74z" />
    <glyph glyph-name="eogonek" unicode="&#x119;" horiz-adv-x="744" 
d="M175 626v-229h499v-84h-499v-229h525v-84q-52 -29 -73.5 -47.5t-21.5 -40.5v-7q0 -38 66 -38h21v-51q-23 -5 -46 -5q-52 0 -83 22t-31 66q0 60 81 101h-484h-54v710h100h525v-84h-525z" />
    <glyph glyph-name="f" unicode="f" horiz-adv-x="733" 
d="M175 626v-229h499v-84h-499v-313h-100v710h100h525v-84h-525z" />
    <glyph glyph-name="g" unicode="g" horiz-adv-x="922" 
d="M877 367v-59q0 -29 -5 -51q-30 -128 -136 -201.5t-272 -73.5q-131 0 -225.5 47t-144 131.5t-49.5 194.5t49.5 194.5t144 131.5t225.5 47q107 0 192.5 -31.5t140 -87.5t70.5 -129h-104q-26 74 -105 119t-194 45q-98 0 -169 -34.5t-108.5 -94.5t-37.5 -136v-48
q0 -76 37.5 -136t108.5 -94.5t169 -34.5q130 0 212 59.5t99 157.5h-345v84h447z" />
    <glyph glyph-name="gbreve" unicode="&#x11f;" horiz-adv-x="922" 
d="M877 367v-59q0 -29 -5 -51q-30 -128 -136 -201.5t-272 -73.5q-131 0 -225.5 47t-144 131.5t-49.5 194.5t49.5 194.5t144 131.5t225.5 47q107 0 192.5 -31.5t140 -87.5t70.5 -129h-104q-26 74 -105 119t-194 45q-98 0 -169 -34.5t-108.5 -94.5t-37.5 -136v-48
q0 -76 37.5 -136t108.5 -94.5t169 -34.5q130 0 212 59.5t99 157.5h-345v84h447zM341 790q-48 30 -48 81v21h85v-12q0 -29 24 -44.5t57 -15.5t57.5 15.5t24.5 44.5v12h84v-21q0 -51 -48 -81t-118 -30t-118 30z" />
    <glyph glyph-name="gcommaaccent" unicode="&#x123;" horiz-adv-x="922" 
d="M877 367v-59q0 -29 -5 -51q-30 -128 -136 -201.5t-272 -73.5q-131 0 -225.5 47t-144 131.5t-49.5 194.5t49.5 194.5t144 131.5t225.5 47q107 0 192.5 -31.5t140 -87.5t70.5 -129h-104q-26 74 -105 119t-194 45q-98 0 -169 -34.5t-108.5 -94.5t-37.5 -136v-48
q0 -76 37.5 -136t108.5 -94.5t169 -34.5q130 0 212 59.5t99 157.5h-345v84h447zM462 880h51v-86h-108v86l56 70h52z" />
    <glyph glyph-name="gdotaccent" unicode="&#x121;" horiz-adv-x="922" 
d="M877 367v-59q0 -29 -5 -51q-30 -128 -136 -201.5t-272 -73.5q-131 0 -225.5 47t-144 131.5t-49.5 194.5t49.5 194.5t144 131.5t225.5 47q107 0 192.5 -31.5t140 -87.5t70.5 -129h-104q-26 74 -105 119t-194 45q-98 0 -169 -34.5t-108.5 -94.5t-37.5 -136v-48
q0 -76 37.5 -136t108.5 -94.5t169 -34.5q130 0 212 59.5t99 157.5h-345v84h447zM411 892h96v-108h-96v108z" />
    <glyph glyph-name="h" unicode="h" horiz-adv-x="834" 
d="M759 710v-710h-100v313h-484v-313h-100v710h100v-313h484v313h100z" />
    <glyph glyph-name="hbar" unicode="&#x127;" horiz-adv-x="934" 
d="M894 533h-85v-533h-100v313h-484v-313h-100v533h-85v78h85v99h100v-99h484v99h100v-99h85v-78zM709 533h-484v-136h484v136z" />
    <glyph glyph-name="i" unicode="i" horiz-adv-x="260" 
d="M80 710h100v-710h-100v710z" />
    <glyph glyph-name="dotlessi" unicode="&#x131;" horiz-adv-x="260" 
d="M80 710h100v-710h-100v710z" />
    <glyph glyph-name="iacute" unicode="&#xed;" horiz-adv-x="260" 
d="M80 710h100v-710h-100v710zM153 892h122l-102 -132h-88z" />
    <glyph glyph-name="icircumflex" unicode="&#xee;" horiz-adv-x="260" 
d="M80 710h100v-710h-100v710zM213 760l-83 93l-83 -93h-86l92 132h112h42l92 -132h-86z" />
    <glyph glyph-name="idieresis" unicode="&#xef;" horiz-adv-x="260" 
d="M80 710h100v-710h-100v710zM-28 892h96v-108h-96v108zM191 892h96v-108h-96v108z" />
    <glyph glyph-name="i.loclTRK" horiz-adv-x="260" 
d="M80 710h100v-710h-100v710zM82 892h96v-108h-96v108z" />
    <glyph glyph-name="igrave" unicode="&#xec;" horiz-adv-x="260" 
d="M80 710h100v-710h-100v710zM87 760l-102 132h122l68 -132h-88z" />
    <glyph glyph-name="imacron" unicode="&#x12b;" horiz-adv-x="260" 
d="M80 710h100v-710h-100v710zM-29 855h318v-74h-318v74z" />
    <glyph glyph-name="iogonek" unicode="&#x12f;" horiz-adv-x="260" 
d="M106.5 -47.5q-21.5 -18.5 -21.5 -40.5v-7q0 -38 66 -38h21v-51q-23 -5 -46 -5q-52 0 -83 22t-31 66q0 60 81 101h-13v710h100v-710q-52 -29 -73.5 -47.5z" />
    <glyph glyph-name="j" unicode="j" horiz-adv-x="617" 
d="M141 10q-59 28 -88.5 74t-32.5 102h102q9 -53 50 -86.5t113 -33.5q76 0 116.5 41.5t40.5 110.5v493h100v-498q0 -64 -28.5 -116.5t-86.5 -83.5t-142 -31q-85 0 -144 28z" />
    <glyph glyph-name="k" unicode="k" horiz-adv-x="803" 
d="M409 366l-234 -205v-161h-100v710h100v-434l495 434h133l-322 -281l329 -429h-120z" />
    <glyph glyph-name="kcommaaccent" unicode="&#x137;" horiz-adv-x="803" 
d="M409 366l-234 -205v-161h-100v710h100v-434l495 434h133l-322 -281l329 -429h-120zM400 -160h-51v86h108v-86l-56 -70h-52z" />
    <glyph glyph-name="l" unicode="l" horiz-adv-x="675" 
d="M75 710h100v-626h486v-84h-586v710z" />
    <glyph glyph-name="lacute" unicode="&#x13a;" horiz-adv-x="675" 
d="M75 710h100v-626h486v-84h-586v710zM152 892h122l-102 -132h-88z" />
    <glyph glyph-name="lcaron" unicode="&#x13e;" horiz-adv-x="675" 
d="M75 710h100v-626h486v-84h-586v710zM291 710h91l-57 -192h-67z" />
    <glyph glyph-name="lcommaaccent" unicode="&#x13c;" horiz-adv-x="675" 
d="M75 710h100v-626h486v-84h-586v710zM368 -160h-51v86h108v-86l-56 -70h-52z" />
    <glyph glyph-name="lslash" unicode="&#x142;" horiz-adv-x="720" 
d="M706 84v-84h-586v258l-85 -48v89l85 48v363h100v-306l191 109v-89l-191 -109v-231h486z" />
    <glyph glyph-name="m" unicode="m" horiz-adv-x="1010" 
d="M935 710v-710h-98v618l-269 -618h-120l-275 616v-616h-98v710h153l281 -632l273 632h153z" />
    <glyph glyph-name="n" unicode="n" horiz-adv-x="904" 
d="M829 710v-710h-141l-515 626v-626h-98v710h146l510 -620v620h98z" />
    <glyph glyph-name="nacute" unicode="&#x144;" horiz-adv-x="904" 
d="M829 710v-710h-141l-515 626v-626h-98v710h146l510 -620v620h98zM475 892h122l-102 -132h-88z" />
    <glyph glyph-name="ncaron" unicode="&#x148;" horiz-adv-x="904" 
d="M829 710v-710h-141l-515 626v-626h-98v710h146l510 -620v620h98zM621 892l-92 -132h-112h-42l-92 132h86l83 -93l83 93h86z" />
    <glyph glyph-name="ncommaaccent" unicode="&#x146;" horiz-adv-x="904" 
d="M829 710v-710h-141l-515 626v-626h-98v710h146l510 -620v620h98zM449 -160h-51v86h108v-86l-56 -70h-52z" />
    <glyph glyph-name="eng" unicode="&#x14b;" horiz-adv-x="904" 
d="M829 710v-662v-46q0 -67 -14 -104.5t-48.5 -54.5t-98.5 -17q-17 0 -33 2v80h22q44 0 59 20t15 74v9l-558 616v-627h-98v710h146l510 -563v563h98z" />
    <glyph glyph-name="ntilde" unicode="&#xf1;" horiz-adv-x="904" 
d="M829 710v-710h-141l-515 626v-626h-98v710h146l510 -620v620h98zM300.5 854q29.5 28 71.5 28q27 0 49.5 -6.5t49.5 -18.5q24 -10 36.5 -14t26.5 -4q19 0 29 10t12 33h58q0 -54 -27 -82t-69 -28q-24 0 -46 6.5t-51 18.5q-4 2 -18.5 7.5t-26 8t-20.5 2.5q-20 0 -31.5 -10
t-14.5 -33h-58q0 54 29.5 82z" />
    <glyph glyph-name="o" unicode="o" horiz-adv-x="928" 
d="M239.5 29q-94.5 47 -144.5 131.5t-50 194.5t50 194.5t144.5 131.5t224.5 47t224.5 -47t144.5 -131.5t50 -194.5t-50 -194.5t-144.5 -131.5t-224.5 -47t-224.5 47zM633 100.5q71 34.5 108.5 94.5t37.5 136v48q0 76 -37.5 136t-108.5 94.5t-169 34.5t-169 -34.5
t-108.5 -94.5t-37.5 -136v-48q0 -76 37.5 -136t108.5 -94.5t169 -34.5t169 34.5z" />
    <glyph glyph-name="oacute" unicode="&#xf3;" horiz-adv-x="928" 
d="M239.5 29q-94.5 47 -144.5 131.5t-50 194.5t50 194.5t144.5 131.5t224.5 47t224.5 -47t144.5 -131.5t50 -194.5t-50 -194.5t-144.5 -131.5t-224.5 -47t-224.5 47zM633 100.5q71 34.5 108.5 94.5t37.5 136v48q0 76 -37.5 136t-108.5 94.5t-169 34.5t-169 -34.5
t-108.5 -94.5t-37.5 -136v-48q0 -76 37.5 -136t108.5 -94.5t169 -34.5t169 34.5zM487 892h122l-102 -132h-88z" />
    <glyph glyph-name="ocircumflex" unicode="&#xf4;" horiz-adv-x="928" 
d="M239.5 29q-94.5 47 -144.5 131.5t-50 194.5t50 194.5t144.5 131.5t224.5 47t224.5 -47t144.5 -131.5t50 -194.5t-50 -194.5t-144.5 -131.5t-224.5 -47t-224.5 47zM633 100.5q71 34.5 108.5 94.5t37.5 136v48q0 76 -37.5 136t-108.5 94.5t-169 34.5t-169 -34.5
t-108.5 -94.5t-37.5 -136v-48q0 -76 37.5 -136t108.5 -94.5t169 -34.5t169 34.5zM547 760l-83 93l-83 -93h-86l92 132h112h42l92 -132h-86z" />
    <glyph glyph-name="odieresis" unicode="&#xf6;" horiz-adv-x="928" 
d="M239.5 29q-94.5 47 -144.5 131.5t-50 194.5t50 194.5t144.5 131.5t224.5 47t224.5 -47t144.5 -131.5t50 -194.5t-50 -194.5t-144.5 -131.5t-224.5 -47t-224.5 47zM633 100.5q71 34.5 108.5 94.5t37.5 136v48q0 76 -37.5 136t-108.5 94.5t-169 34.5t-169 -34.5
t-108.5 -94.5t-37.5 -136v-48q0 -76 37.5 -136t108.5 -94.5t169 -34.5t169 34.5zM306 892h96v-108h-96v108zM525 892h96v-108h-96v108z" />
    <glyph glyph-name="ograve" unicode="&#xf2;" horiz-adv-x="928" 
d="M239.5 29q-94.5 47 -144.5 131.5t-50 194.5t50 194.5t144.5 131.5t224.5 47t224.5 -47t144.5 -131.5t50 -194.5t-50 -194.5t-144.5 -131.5t-224.5 -47t-224.5 47zM633 100.5q71 34.5 108.5 94.5t37.5 136v48q0 76 -37.5 136t-108.5 94.5t-169 34.5t-169 -34.5
t-108.5 -94.5t-37.5 -136v-48q0 -76 37.5 -136t108.5 -94.5t169 -34.5t169 34.5zM421 760l-102 132h122l68 -132h-88z" />
    <glyph glyph-name="ohungarumlaut" unicode="&#x151;" horiz-adv-x="928" 
d="M239.5 29q-94.5 47 -144.5 131.5t-50 194.5t50 194.5t144.5 131.5t224.5 47t224.5 -47t144.5 -131.5t50 -194.5t-50 -194.5t-144.5 -131.5t-224.5 -47t-224.5 47zM633 100.5q71 34.5 108.5 94.5t37.5 136v48q0 76 -37.5 136t-108.5 94.5t-169 34.5t-169 -34.5
t-108.5 -94.5t-37.5 -136v-48q0 -76 37.5 -136t108.5 -94.5t169 -34.5t169 34.5zM377 892h122l-102 -132h-88zM577 892h122l-102 -132h-88z" />
    <glyph glyph-name="omacron" unicode="&#x14d;" horiz-adv-x="928" 
d="M239.5 29q-94.5 47 -144.5 131.5t-50 194.5t50 194.5t144.5 131.5t224.5 47t224.5 -47t144.5 -131.5t50 -194.5t-50 -194.5t-144.5 -131.5t-224.5 -47t-224.5 47zM633 100.5q71 34.5 108.5 94.5t37.5 136v48q0 76 -37.5 136t-108.5 94.5t-169 34.5t-169 -34.5
t-108.5 -94.5t-37.5 -136v-48q0 -76 37.5 -136t108.5 -94.5t169 -34.5t169 34.5zM305 855h318v-74h-318v74z" />
    <glyph glyph-name="oslash" unicode="&#xf8;" horiz-adv-x="928" 
d="M854.5 505.5q28.5 -68.5 28.5 -150.5q0 -110 -50 -194.5t-144.5 -131.5t-224.5 -47q-144 0 -248 60l-58 -60h-103l100 105q-53 50 -81.5 118.5t-28.5 149.5q0 110 50 194.5t144.5 131.5t224.5 47q146 0 248 -60l57 60h104l-100 -105q53 -49 81.5 -117.5zM219 154l429 448
q-76 42 -184 42q-98 0 -169 -34.5t-108.5 -94.5t-37.5 -136v-48q0 -107 70 -177zM779 379q0 106 -70 178l-430 -449q76 -42 185 -42q98 0 169 34.5t108.5 94.5t37.5 136v48z" />
    <glyph glyph-name="otilde" unicode="&#xf5;" horiz-adv-x="928" 
d="M239.5 29q-94.5 47 -144.5 131.5t-50 194.5t50 194.5t144.5 131.5t224.5 47t224.5 -47t144.5 -131.5t50 -194.5t-50 -194.5t-144.5 -131.5t-224.5 -47t-224.5 47zM633 100.5q71 34.5 108.5 94.5t37.5 136v48q0 76 -37.5 136t-108.5 94.5t-169 34.5t-169 -34.5
t-108.5 -94.5t-37.5 -136v-48q0 -76 37.5 -136t108.5 -94.5t169 -34.5t169 34.5zM312.5 854q29.5 28 71.5 28q27 0 49.5 -6.5t49.5 -18.5q24 -10 36.5 -14t26.5 -4q19 0 29 10t12 33h58q0 -54 -27 -82t-69 -28q-24 0 -46 6.5t-51 18.5q-4 2 -18.5 7.5t-26 8t-20.5 2.5
q-20 0 -31.5 -10t-14.5 -33h-58q0 54 29.5 82z" />
    <glyph glyph-name="oe" unicode="&#x153;" horiz-adv-x="1448" 
d="M879 626v-229h499v-84h-499v-229h525v-84h-625v100q-54 -57 -133.5 -87.5t-181.5 -30.5q-130 0 -224.5 47t-144.5 131.5t-50 194.5t50 194.5t144.5 131.5t224.5 47q102 0 181.5 -30.5t133.5 -87.5v100h625v-84h-525zM633 100.5q71 34.5 108.5 94.5t37.5 136v48
q0 76 -37.5 136t-108.5 94.5t-169 34.5t-169 -34.5t-108.5 -94.5t-37.5 -136v-48q0 -76 37.5 -136t108.5 -94.5t169 -34.5t169 34.5z" />
    <glyph glyph-name="p" unicode="p" horiz-adv-x="796" 
d="M654.5 680.5q56.5 -29.5 86.5 -81t30 -115.5t-30 -115.5t-86.5 -81t-132.5 -29.5h-347v-258h-100v710h100h347q76 0 132.5 -29.5zM668 492q0 66 -47 100t-130 34h-316v-284h316q83 0 130 34t47 100v16z" />
    <glyph glyph-name="thorn" unicode="&#xfe;" horiz-adv-x="786" 
d="M644.5 580.5q56.5 -29.5 86.5 -81t30 -115.5t-30 -115.5t-86.5 -81t-132.5 -29.5h-337v-158h-100v710h100v-100h337q76 0 132.5 -29.5zM658 392q0 66 -47 100t-130 34h-306v-284h306q83 0 130 34t47 100v16z" />
    <glyph glyph-name="q" unicode="q" horiz-adv-x="928" 
d="M837 167.5q-46 -82.5 -132 -129.5l80 -109h-115l-53 73q-71 -20 -153 -20q-130 0 -224.5 47t-144.5 131.5t-50 194.5t50 194.5t144.5 131.5t224.5 47t224.5 -47t144.5 -131.5t50 -194.5q0 -105 -46 -187.5zM562 76l-91 125h113l67 -91q62 35 95 92.5t33 128.5v48
q0 76 -37.5 136t-108.5 94.5t-169 34.5t-169 -34.5t-108.5 -94.5t-37.5 -136v-48q0 -76 37.5 -136t108.5 -94.5t169 -34.5q48 0 98 10z" />
    <glyph glyph-name="r" unicode="r" horiz-adv-x="806" 
d="M476 258h-301v-258h-100v710h100h337q76 0 132.5 -29.5t86.5 -81t30 -115.5q0 -80 -47.5 -138t-130.5 -77l208 -269h-118zM175 342h306q83 0 130 34t47 100v16q0 66 -47 100t-130 34h-306v-284z" />
    <glyph glyph-name="racute" unicode="&#x155;" horiz-adv-x="806" 
d="M476 258h-301v-258h-100v710h100h337q76 0 132.5 -29.5t86.5 -81t30 -115.5q0 -80 -47.5 -138t-130.5 -77l208 -269h-118zM175 342h306q83 0 130 34t47 100v16q0 66 -47 100t-130 34h-306v-284zM418 892h122l-102 -132h-88z" />
    <glyph glyph-name="rcaron" unicode="&#x159;" horiz-adv-x="806" 
d="M476 258h-301v-258h-100v710h100h337q76 0 132.5 -29.5t86.5 -81t30 -115.5q0 -80 -47.5 -138t-130.5 -77l208 -269h-118zM175 342h306q83 0 130 34t47 100v16q0 66 -47 100t-130 34h-306v-284zM564 892l-92 -132h-112h-42l-92 132h86l83 -93l83 93h86z" />
    <glyph glyph-name="rcommaaccent" unicode="&#x157;" horiz-adv-x="806" 
d="M476 258h-301v-258h-100v710h100h337q76 0 132.5 -29.5t86.5 -81t30 -115.5q0 -80 -47.5 -138t-130.5 -77l208 -269h-118zM175 342h306q83 0 130 34t47 100v16q0 66 -47 100t-130 34h-306v-284zM392 -160h-51v86h108v-86l-56 -70h-52z" />
    <glyph glyph-name="s" unicode="s" horiz-adv-x="783" 
d="M120.5 50.5q-91.5 66.5 -91.5 179.5h104q7 -72 69 -117t197 -45q126 0 185.5 29.5t59.5 91.5v12q0 31 -20 51t-62 33.5t-115 26.5l-135 23q-98 17 -154 38.5t-82.5 57.5t-26.5 96q0 95 82 147.5t242 52.5q118 0 196.5 -29.5t116.5 -78t40 -107.5h-104q-10 57 -69.5 94
t-183.5 37q-116 0 -168 -30.5t-52 -79.5v-12q0 -29 19.5 -47t59.5 -30t111 -24l138 -23q99 -17 156 -40t84 -61.5t27 -100.5q0 -103 -88 -157t-258 -54q-186 0 -277.5 66.5z" />
    <glyph glyph-name="sacute" unicode="&#x15b;" horiz-adv-x="783" 
d="M120.5 50.5q-91.5 66.5 -91.5 179.5h104q7 -72 69 -117t197 -45q126 0 185.5 29.5t59.5 91.5v12q0 31 -20 51t-62 33.5t-115 26.5l-135 23q-98 17 -154 38.5t-82.5 57.5t-26.5 96q0 95 82 147.5t242 52.5q118 0 196.5 -29.5t116.5 -78t40 -107.5h-104q-10 57 -69.5 94
t-183.5 37q-116 0 -168 -30.5t-52 -79.5v-12q0 -29 19.5 -47t59.5 -30t111 -24l138 -23q99 -17 156 -40t84 -61.5t27 -100.5q0 -103 -88 -157t-258 -54q-186 0 -277.5 66.5zM414 892h122l-102 -132h-88z" />
    <glyph glyph-name="scaron" unicode="&#x161;" horiz-adv-x="783" 
d="M120.5 50.5q-91.5 66.5 -91.5 179.5h104q7 -72 69 -117t197 -45q126 0 185.5 29.5t59.5 91.5v12q0 31 -20 51t-62 33.5t-115 26.5l-135 23q-98 17 -154 38.5t-82.5 57.5t-26.5 96q0 95 82 147.5t242 52.5q118 0 196.5 -29.5t116.5 -78t40 -107.5h-104q-10 57 -69.5 94
t-183.5 37q-116 0 -168 -30.5t-52 -79.5v-12q0 -29 19.5 -47t59.5 -30t111 -24l138 -23q99 -17 156 -40t84 -61.5t27 -100.5q0 -103 -88 -157t-258 -54q-186 0 -277.5 66.5zM560 892l-92 -132h-112h-42l-92 132h86l83 -93l83 93h86z" />
    <glyph glyph-name="scedilla" unicode="&#x15f;" horiz-adv-x="783" 
d="M658.5 39.5q-85.5 -53.5 -249.5 -55.5l-15 -24q121 -3 121 -76q0 -45 -34 -65.5t-87 -20.5q-33 0 -67 8t-60 24l32 48q43 -25 94 -25q56 0 56 30q0 15 -15.5 21t-45.5 6h-44l-29 24l29 52q-158 9 -236.5 74.5t-78.5 169.5h104q7 -72 69 -117t197 -45q126 0 185.5 29.5
t59.5 91.5v12q0 31 -20 51t-62 33.5t-115 26.5l-135 23q-98 17 -154 38.5t-82.5 57.5t-26.5 96q0 95 82 147.5t242 52.5q118 0 196.5 -29.5t116.5 -78t40 -107.5h-104q-10 57 -69.5 94t-183.5 37q-116 0 -168 -30.5t-52 -79.5v-12q0 -29 19.5 -47t59.5 -30t111 -24l138 -23
q99 -17 156 -40t84 -61.5t27 -100.5q0 -102 -85.5 -155.5z" />
    <glyph glyph-name="scommaaccent" unicode="&#x219;" horiz-adv-x="783" 
d="M120.5 50.5q-91.5 66.5 -91.5 179.5h104q7 -72 69 -117t197 -45q126 0 185.5 29.5t59.5 91.5v12q0 31 -20 51t-62 33.5t-115 26.5l-135 23q-98 17 -154 38.5t-82.5 57.5t-26.5 96q0 95 82 147.5t242 52.5q118 0 196.5 -29.5t116.5 -78t40 -107.5h-104q-10 57 -69.5 94
t-183.5 37q-116 0 -168 -30.5t-52 -79.5v-12q0 -29 19.5 -47t59.5 -30t111 -24l138 -23q99 -17 156 -40t84 -61.5t27 -100.5q0 -103 -88 -157t-258 -54q-186 0 -277.5 66.5zM388 -160h-51v86h108v-86l-56 -70h-52z" />
    <glyph glyph-name="germandbls" unicode="&#xdf;" horiz-adv-x="1566" 
d="M120.5 50.5q-91.5 66.5 -91.5 179.5h104q7 -72 69 -117t197 -45q126 0 185.5 29.5t59.5 91.5v12q0 31 -20 51t-62 33.5t-115 26.5l-135 23q-98 17 -154 38.5t-82.5 57.5t-26.5 96q0 95 82 147.5t242 52.5q118 0 196.5 -29.5t116.5 -78t40 -107.5h-104q-10 57 -69.5 94
t-183.5 37q-116 0 -168 -30.5t-52 -79.5v-12q0 -29 19.5 -47t59.5 -30t111 -24l138 -23q99 -17 156 -40t84 -61.5t27 -100.5q0 -103 -88 -157t-258 -54q-186 0 -277.5 66.5zM903.5 50.5q-91.5 66.5 -91.5 179.5h104q7 -72 69 -117t197 -45q126 0 185.5 29.5t59.5 91.5v12
q0 31 -20 51t-62 33.5t-115 26.5l-135 23q-98 17 -154 38.5t-82.5 57.5t-26.5 96q0 95 82 147.5t242 52.5q118 0 196.5 -29.5t116.5 -78t40 -107.5h-104q-10 57 -69.5 94t-183.5 37q-116 0 -168 -30.5t-52 -79.5v-12q0 -29 19.5 -47t59.5 -30t111 -24l138 -23
q99 -17 156 -40t84 -61.5t27 -100.5q0 -103 -88 -157t-258 -54q-186 0 -277.5 66.5z" />
    <glyph glyph-name="t" unicode="t" horiz-adv-x="756" 
d="M327 626h-310v84h722v-84h-312v-626h-100v626z" />
    <glyph glyph-name="tbar" unicode="&#x167;" horiz-adv-x="756" 
d="M427 626v-236h139v-70h-139v-320h-100v320h-137v70h137v236h-310v84h722v-84h-312z" />
    <glyph glyph-name="tcaron" unicode="&#x165;" horiz-adv-x="756" 
d="M327 626h-310v84h722v-84h-312v-626h-100v626zM547 892l-92 -132h-112h-42l-92 132h86l83 -93l83 93h86z" />
    <glyph glyph-name="uni0163" unicode="&#x163;" horiz-adv-x="756" 
d="M405 0l-24 -40q121 -3 121 -76q0 -45 -34 -65.5t-87 -20.5q-33 0 -67 8t-60 24l32 48q43 -25 94 -25q56 0 56 30q0 15 -15.5 21t-45.5 6h-44l-29 24l38 66h-13v626h-310v84h722v-84h-312v-626h-22z" />
    <glyph glyph-name="uni021B" unicode="&#x21b;" horiz-adv-x="756" 
d="M327 626h-310v84h722v-84h-312v-626h-100v626zM375 -160h-51v86h108v-86l-56 -70h-52z" />
    <glyph glyph-name="u" unicode="u" horiz-adv-x="873" 
d="M168.5 48q-93.5 66 -93.5 213v449h100v-438q0 -94 57.5 -149.5t177.5 -55.5h53q119 0 177 55.5t58 149.5v438h100v-449q0 -147 -94 -213t-268 -66t-267.5 66z" />
    <glyph glyph-name="uacute" unicode="&#xfa;" horiz-adv-x="873" 
d="M168.5 48q-93.5 66 -93.5 213v449h100v-438q0 -94 57.5 -149.5t177.5 -55.5h53q119 0 177 55.5t58 149.5v438h100v-449q0 -147 -94 -213t-268 -66t-267.5 66zM460 892h122l-102 -132h-88z" />
    <glyph glyph-name="ucircumflex" unicode="&#xfb;" horiz-adv-x="873" 
d="M168.5 48q-93.5 66 -93.5 213v449h100v-438q0 -94 57.5 -149.5t177.5 -55.5h53q119 0 177 55.5t58 149.5v438h100v-449q0 -147 -94 -213t-268 -66t-267.5 66zM520 760l-83 93l-83 -93h-86l92 132h112h42l92 -132h-86z" />
    <glyph glyph-name="udieresis" unicode="&#xfc;" horiz-adv-x="873" 
d="M168.5 48q-93.5 66 -93.5 213v449h100v-438q0 -94 57.5 -149.5t177.5 -55.5h53q119 0 177 55.5t58 149.5v438h100v-449q0 -147 -94 -213t-268 -66t-267.5 66zM279 892h96v-108h-96v108zM498 892h96v-108h-96v108z" />
    <glyph glyph-name="ugrave" unicode="&#xf9;" horiz-adv-x="873" 
d="M168.5 48q-93.5 66 -93.5 213v449h100v-438q0 -94 57.5 -149.5t177.5 -55.5h53q119 0 177 55.5t58 149.5v438h100v-449q0 -147 -94 -213t-268 -66t-267.5 66zM394 760l-102 132h122l68 -132h-88z" />
    <glyph glyph-name="uhungarumlaut" unicode="&#x171;" horiz-adv-x="873" 
d="M168.5 48q-93.5 66 -93.5 213v449h100v-438q0 -94 57.5 -149.5t177.5 -55.5h53q119 0 177 55.5t58 149.5v438h100v-449q0 -147 -94 -213t-268 -66t-267.5 66zM350 892h122l-102 -132h-88zM550 892h122l-102 -132h-88z" />
    <glyph glyph-name="umacron" unicode="&#x16b;" horiz-adv-x="873" 
d="M168.5 48q-93.5 66 -93.5 213v449h100v-438q0 -94 57.5 -149.5t177.5 -55.5h53q119 0 177 55.5t58 149.5v438h100v-449q0 -147 -94 -213t-268 -66t-267.5 66zM278 855h318v-74h-318v74z" />
    <glyph glyph-name="uogonek" unicode="&#x173;" horiz-adv-x="873" 
d="M798 710v-449q0 -109 -50 -170.5t-151 -95.5q-47 -16 -73.5 -38t-26.5 -45v-7q0 -38 66 -38h21v-51q-23 -5 -46 -5q-52 0 -83 22t-31 66q0 48 52 84q-13 -1 -40 -1q-174 0 -267.5 66t-93.5 213v449h100v-438q0 -94 57.5 -149.5t177.5 -55.5h53q119 0 177 55.5t58 149.5
v438h100z" />
    <glyph glyph-name="uring" unicode="&#x16f;" horiz-adv-x="873" 
d="M168.5 48q-93.5 66 -93.5 213v449h100v-438q0 -94 57.5 -149.5t177.5 -55.5h53q119 0 177 55.5t58 149.5v438h100v-449q0 -147 -94 -213t-268 -66t-267.5 66zM336.5 687q-40.5 35 -40.5 90t40.5 90t100.5 35t100.5 -35t40.5 -90t-40.5 -90t-100.5 -35t-100.5 35z
M491.5 722q21.5 17 21.5 50v10q0 33 -21.5 50t-54.5 17t-54.5 -17t-21.5 -50v-10q0 -33 21.5 -50t54.5 -17t54.5 17z" />
    <glyph glyph-name="v" unicode="v" horiz-adv-x="775" 
d="M773 710l-316 -710h-138l-317 710h107l280 -636l280 636h104z" />
    <glyph glyph-name="w" unicode="w" horiz-adv-x="1068" 
d="M1056 710l-221 -710h-105l-195 604l-203 -604h-100l-220 710h101l176 -585l191 585h109l195 -588l175 588h97z" />
    <glyph glyph-name="wacute" unicode="&#x1e83;" horiz-adv-x="1068" 
d="M1056 710l-221 -710h-105l-195 604l-203 -604h-100l-220 710h101l176 -585l191 585h109l195 -588l175 588h97zM557 892h122l-102 -132h-88z" />
    <glyph glyph-name="wcircumflex" unicode="&#x175;" horiz-adv-x="1068" 
d="M1056 710l-221 -710h-105l-195 604l-203 -604h-100l-220 710h101l176 -585l191 585h109l195 -588l175 588h97zM617 760l-83 93l-83 -93h-86l92 132h112h42l92 -132h-86z" />
    <glyph glyph-name="wdieresis" unicode="&#x1e85;" horiz-adv-x="1068" 
d="M1056 710l-221 -710h-105l-195 604l-203 -604h-100l-220 710h101l176 -585l191 585h109l195 -588l175 588h97zM376 892h96v-108h-96v108zM595 892h96v-108h-96v108z" />
    <glyph glyph-name="wgrave" unicode="&#x1e81;" horiz-adv-x="1068" 
d="M1056 710l-221 -710h-105l-195 604l-203 -604h-100l-220 710h101l176 -585l191 585h109l195 -588l175 588h97zM491 760l-102 132h122l68 -132h-88z" />
    <glyph glyph-name="x" unicode="x" horiz-adv-x="730" 
d="M605 0l-241 306l-241 -306h-111l291 370l-277 340h116l225 -277l223 277h117l-279 -340l290 -370h-113z" />
    <glyph glyph-name="y" unicode="y" horiz-adv-x="738" 
d="M421 274v-274h-104v274l-313 436h114l252 -351l251 351h113z" />
    <glyph glyph-name="yacute" unicode="&#xfd;" horiz-adv-x="738" 
d="M421 274v-274h-104v274l-313 436h114l252 -351l251 351h113zM392 892h122l-102 -132h-88z" />
    <glyph glyph-name="ycircumflex" unicode="&#x177;" horiz-adv-x="738" 
d="M421 274v-274h-104v274l-313 436h114l252 -351l251 351h113zM452 760l-83 93l-83 -93h-86l92 132h112h42l92 -132h-86z" />
    <glyph glyph-name="ydieresis" unicode="&#xff;" horiz-adv-x="738" 
d="M421 274v-274h-104v274l-313 436h114l252 -351l251 351h113zM211 892h96v-108h-96v108zM430 892h96v-108h-96v108z" />
    <glyph glyph-name="ygrave" unicode="&#x1ef3;" horiz-adv-x="738" 
d="M421 274v-274h-104v274l-313 436h114l252 -351l251 351h113zM326 760l-102 132h122l68 -132h-88z" />
    <glyph glyph-name="z" unicode="z" 
d="M747 626l-579 -542h579v-84h-709v84l580 542h-570v84h699v-84z" />
    <glyph glyph-name="zacute" unicode="&#x17a;" 
d="M747 626l-579 -542h579v-84h-709v84l580 542h-570v84h699v-84zM400 892h122l-102 -132h-88z" />
    <glyph glyph-name="zcaron" unicode="&#x17e;" 
d="M747 626l-579 -542h579v-84h-709v84l580 542h-570v84h699v-84zM546 892l-92 -132h-112h-42l-92 132h86l83 -93l83 93h86z" />
    <glyph glyph-name="zdotaccent" unicode="&#x17c;" 
d="M747 626l-579 -542h579v-84h-709v84l580 542h-570v84h699v-84zM329 892h96v-108h-96v108z" />
    <glyph glyph-name="uni03BC" unicode="&#x3bc;" horiz-adv-x="702" 
d="M627 544v-544h-92v66q-24 -38 -74.5 -61t-127.5 -23q-102 0 -162 44v-198h-96v716h96v-320q0 -84 44.5 -122.5t133.5 -38.5t135.5 38.5t46.5 122.5v320h96z" />
    <glyph glyph-name="pi" unicode="&#x3c0;" horiz-adv-x="775" 
d="M735 469h-100v-469h-96v469h-303v-469h-96v469h-100v75h695v-75z" />
    <glyph glyph-name="zero" unicode="0" horiz-adv-x="798" 
d="M209 29q-80 47 -122 131.5t-42 194.5t42 194.5t122 131.5t190 47t190 -47t122 -131.5t42 -194.5t-42 -194.5t-122 -131.5t-190 -47t-190 47zM534 97q57 35 87 96t30 138v48q0 77 -30 138t-87 96t-135 35t-135 -35t-87 -96t-30 -138v-48q0 -77 30 -138t87 -96t135 -35
t135 35z" />
    <glyph glyph-name="one" unicode="1" horiz-adv-x="475" 
d="M331 710v-710h-98v591l-203 -129v96l223 152h78z" />
    <glyph glyph-name="two" unicode="2" horiz-adv-x="728" 
d="M684 82v-82h-646v51q0 21 1.5 31.5t7.5 21.5q45 90 212 172l174 85q52 26 79.5 42t46.5 41t19 61v15q0 58 -53.5 93t-150.5 35q-109 0 -161.5 -41.5t-61.5 -105.5h-103q4 63 43 114.5t111.5 82t172.5 30.5q99 0 167.5 -28.5t103 -77.5t34.5 -109t-28.5 -101.5t-67.5 -66
t-109 -58.5l-174 -85q-118 -58 -164 -120h547z" />
    <glyph glyph-name="three" unicode="3" horiz-adv-x="724" 
d="M651.5 301q37.5 -40 37.5 -101q0 -63 -35.5 -112t-108 -77.5t-179.5 -28.5q-116 0 -189.5 31t-107 80t-37.5 107h101q13 -66 72 -102t164 -36q69 0 118.5 18t74.5 47.5t25 64.5v16q0 51 -51 79.5t-142 28.5h-131v63v16h128q84 0 130.5 29.5t46.5 85.5v16q0 30 -22 58
t-68 46t-113 18q-96 0 -150.5 -33t-73.5 -97h-102q14 88 92.5 149t233.5 61q99 0 168 -28.5t103 -75.5t34 -104q0 -121 -122 -159q66 -20 103.5 -60z" />
    <glyph glyph-name="four" unicode="4" horiz-adv-x="762" 
d="M752 236v-82h-134v-154h-98v154h-491v82l441 474h115h33v-474h134zM520 236v404l-377 -404h377z" />
    <glyph glyph-name="five" unicode="5" horiz-adv-x="745" 
d="M635.5 387.5q78.5 -64.5 78.5 -170.5q0 -67 -36 -120.5t-109.5 -84t-180.5 -30.5q-116 0 -191.5 28.5t-111 75.5t-39.5 103h110q17 -70 71.5 -98.5t163.5 -28.5q101 0 161 41t60 110v8q0 69 -59.5 110t-171.5 41q-81 0 -137.5 -22.5t-86.5 -62.5h-59h-45l41 423h581v-82
h-500l-25 -253q79 77 249 77q158 0 236.5 -64.5z" />
    <glyph glyph-name="six" unicode="6" horiz-adv-x="773" 
d="M653.5 389.5q81.5 -62.5 81.5 -169.5q0 -111 -85.5 -174.5t-239.5 -63.5q-178 0 -271.5 92t-93.5 261q0 120 42 208.5t123 136.5t195 48q86 0 152.5 -26t106 -68t49.5 -88h-109q-22 42 -70.5 72t-133.5 30q-83 0 -140 -37.5t-85 -99.5t-28 -137v-20q33 47 100.5 72.5
t167.5 25.5q157 0 238.5 -62.5zM633 225q0 69 -60.5 108t-170.5 39t-170.5 -39t-60.5 -108v-16q0 -67 61.5 -107t169.5 -40t169.5 40t61.5 107v16z" />
    <glyph glyph-name="seven" unicode="7" horiz-adv-x="712" 
d="M690 710v-82l-427 -628h-111l427 628h-556v82h667z" />
    <glyph glyph-name="eight" unicode="8" horiz-adv-x="760" 
d="M689 313.5q36 -43.5 36 -104.5q0 -66 -40 -117.5t-118 -80.5t-187 -29t-187 29t-118 80.5t-40 117.5q0 61 36 104.5t106 68.5q-116 44 -116 151q0 58 39 102t111 68.5t169 24.5t169 -24.5t111 -68.5t39 -102q0 -107 -116 -151q70 -25 106 -68.5zM161 520q0 -46 60 -75.5
t159 -29.5t159 29.5t60 75.5v8q0 54 -55.5 87t-163.5 33t-163.5 -33t-55.5 -87v-8zM625 214q0 59 -61.5 93.5t-183.5 34.5t-183.5 -34.5t-61.5 -93.5v-10q0 -41 30 -73.5t85.5 -50.5t129.5 -18t129.5 18t85.5 50.5t30 73.5v10z" />
    <glyph glyph-name="nine" unicode="9" horiz-adv-x="773" 
d="M634.5 636q93.5 -92 93.5 -261q0 -120 -42 -208.5t-123 -136.5t-195 -48q-86 0 -152.5 26t-106 68t-49.5 88h109q22 -42 70.5 -72t133.5 -30q83 0 140 37.5t85 99.5t28 137v20q-33 -47 -100.5 -72.5t-167.5 -25.5q-157 0 -238.5 62.5t-81.5 169.5q0 111 85.5 174.5
t239.5 63.5q178 0 271.5 -92zM602 501q0 67 -61.5 107t-169.5 40t-169.5 -40t-61.5 -107v-16q0 -69 60.5 -108t170.5 -39t170.5 39t60.5 108v16z" />
    <glyph glyph-name="zero.pcnt" horiz-adv-x="444" 
d="M124.5 407q-43.5 22 -68 61t-24.5 89q0 49 24.5 88t68 61t97.5 22t97.5 -22t68 -61t24.5 -88q0 -50 -24.5 -89t-68 -61t-97.5 -22t-97.5 22zM298.5 476.5q31.5 25.5 31.5 72.5v15q0 47 -31.5 72.5t-76.5 25.5t-76.5 -25.5t-31.5 -72.5v-15q0 -47 31.5 -72.5t76.5 -25.5
t76.5 25.5z" />
    <glyph glyph-name="fraction" unicode="&#x2044;" horiz-adv-x="245" 
d="M354 710h91l-554 -710h-91z" />
    <glyph glyph-name="onehalf" unicode="&#xbd;" horiz-adv-x="1075" 
d="M241 710v-426h-83v333l-118 -74v78l130 89h71zM705 710h91l-554 -710h-91zM720 66h315v-66h-400v43q0 14 1.5 22t5.5 15q28 54 134 103l91 42q44 21 62.5 35t18.5 40v7q0 30 -27.5 48t-76.5 18q-95 0 -116 -79h-88q9 62 61 102.5t144 40.5q91 0 140.5 -37.5t49.5 -95.5
q0 -38 -17 -62.5t-42.5 -40t-75.5 -38.5l-93 -43q-58 -25 -87 -54z" />
    <glyph glyph-name="onequarter" unicode="&#xbc;" horiz-adv-x="1003" 
d="M241 710v-426h-83v333l-118 -74v78l130 89h71zM705 710h91l-554 -710h-91zM979 154v-66h-75v-88h-83v88h-290v66l251 272h95h27v-272h75zM821 154v211l-194 -211h194z" />
    <glyph glyph-name="threequarters" unicode="&#xbe;" horiz-adv-x="1123" 
d="M436 406q0 -59 -51 -96t-147 -37q-105 0 -155 38.5t-53 95.5h89q16 -70 120 -70q51 0 80.5 18.5t29.5 46.5v8q0 26 -27 41t-74 15h-74v49v14h72q43 0 67.5 15.5t24.5 43.5v7q0 25 -27 43.5t-75 18.5q-49 0 -76 -16.5t-37 -49.5h-89q9 53 57.5 91.5t144.5 38.5
q61 0 103.5 -17t64 -45.5t21.5 -62.5q0 -69 -71 -93q82 -26 82 -97zM825 710h91l-554 -710h-91zM1099 154v-66h-75v-88h-83v88h-290v66l251 272h95h27v-272h75zM941 154v211l-194 -211h194z" />
    <glyph glyph-name="two.dnom" horiz-adv-x="479" 
d="M124 66h315v-66h-400v43q0 14 1.5 22t5.5 15q28 54 134 103l91 42q44 21 62.5 35t18.5 40v7q0 30 -27.5 48t-76.5 18q-95 0 -116 -79h-88q9 62 61 102.5t144 40.5q91 0 140.5 -37.5t49.5 -95.5q0 -38 -17 -62.5t-42.5 -40t-75.5 -38.5l-93 -43q-58 -25 -87 -54z" />
    <glyph glyph-name="four.dnom" horiz-adv-x="497" 
d="M473 154v-66h-75v-88h-83v88h-290v66l251 272h95h27v-272h75zM315 154v211l-194 -211h194z" />
    <glyph glyph-name="one.numr" horiz-adv-x="351" 
d="M241 710v-426h-83v333l-118 -74v78l130 89h71z" />
    <glyph glyph-name="two.numr" horiz-adv-x="479" 
d="M124 350h315v-66h-400v43q0 14 1.5 22t5.5 15q28 54 134 103l91 42q44 21 62.5 35t18.5 40v7q0 30 -27.5 48t-76.5 18q-95 0 -116 -79h-88q9 62 61 102.5t144 40.5q91 0 140.5 -37.5t49.5 -95.5q0 -38 -17 -62.5t-42.5 -40t-75.5 -38.5l-93 -43q-58 -25 -87 -54z" />
    <glyph glyph-name="three.numr" horiz-adv-x="471" 
d="M436 406q0 -59 -51 -96t-147 -37q-105 0 -155 38.5t-53 95.5h89q16 -70 120 -70q51 0 80.5 18.5t29.5 46.5v8q0 26 -27 41t-74 15h-74v49v14h72q43 0 67.5 15.5t24.5 43.5v7q0 25 -27 43.5t-75 18.5q-49 0 -76 -16.5t-37 -49.5h-89q9 53 57.5 91.5t144.5 38.5
q61 0 103.5 -17t64 -45.5t21.5 -62.5q0 -69 -71 -93q82 -26 82 -97z" />
    <glyph glyph-name="uni00B9" unicode="&#xb9;" horiz-adv-x="351" 
d="M241 810v-426h-83v333l-118 -74v78l130 89h71z" />
    <glyph glyph-name="uni00B2" unicode="&#xb2;" horiz-adv-x="479" 
d="M124 450h315v-66h-400v43q0 14 1.5 22t5.5 15q28 54 134 103l91 42q44 21 62.5 35t18.5 40v7q0 30 -27.5 48t-76.5 18q-95 0 -116 -79h-88q9 62 61 102.5t144 40.5q91 0 140.5 -37.5t49.5 -95.5q0 -38 -17 -62.5t-42.5 -40t-75.5 -38.5l-93 -43q-58 -25 -87 -54z" />
    <glyph glyph-name="uni00B3" unicode="&#xb3;" horiz-adv-x="471" 
d="M436 506q0 -59 -51 -96t-147 -37q-105 0 -155 38.5t-53 95.5h89q16 -70 120 -70q51 0 80.5 18.5t29.5 46.5v8q0 26 -27 41t-74 15h-74v49v14h72q43 0 67.5 15.5t24.5 43.5v7q0 25 -27 43.5t-75 18.5q-49 0 -76 -16.5t-37 -49.5h-89q9 53 57.5 91.5t144.5 38.5
q61 0 103.5 -17t64 -45.5t21.5 -62.5q0 -69 -71 -93q82 -26 82 -97z" />
    <glyph glyph-name="asterisk" unicode="*" horiz-adv-x="442" 
d="M276 520l83 -99l-50 -42l-88 105l-88 -105l-50 42l83 99l-121 44l22 61l122 -44v129h64v-129l122 44l22 -61z" />
    <glyph glyph-name="backslash" unicode="\" horiz-adv-x="517" 
d="M404 0l-384 710h95l384 -710h-95z" />
    <glyph glyph-name="periodcentered" unicode="&#xb7;" horiz-adv-x="212" 
d="M50 411h112v-112h-112v112z" />
    <glyph glyph-name="bullet" unicode="&#x2022;" horiz-adv-x="524" 
d="M159 152q-46 27 -72.5 72t-26.5 98q0 54 26.5 99t72.5 71.5t103 26.5q56 0 102.5 -26.5t73 -72t26.5 -98.5t-26.5 -98t-73 -72t-102.5 -27q-57 0 -103 27z" />
    <glyph glyph-name="colon" unicode=":" horiz-adv-x="252" 
d="M70 550h112v-112h-112v112zM70 112h112v-112h-112v112z" />
    <glyph glyph-name="comma" unicode="," horiz-adv-x="220" 
d="M102 0h-52v112h120v-112l-62 -148h-58z" />
    <glyph glyph-name="ellipsis" unicode="&#x2026;" horiz-adv-x="632" 
d="M50 112h112v-112h-112v112zM260 112h112v-112h-112v112zM470 112h112v-112h-112v112z" />
    <glyph glyph-name="exclam" unicode="!" horiz-adv-x="262" 
d="M81 452v258h100v-258l-19 -262h-62zM75 112h112v-112h-112v112z" />
    <glyph glyph-name="exclamdown" unicode="&#xa1;" horiz-adv-x="262" 
d="M187 598h-112v112h112v-112zM181 258v-258h-100v258l19 262h62z" />
    <glyph glyph-name="numbersign" unicode="#" horiz-adv-x="714" 
d="M566 460l-45 -223h111l-13 -72h-113l-33 -165h-78l33 165h-219l-33 -165h-78l33 165h-111l14 72h112l45 223h-111l14 72h112l36 178h78l-36 -178h219l36 178h78l-36 -178h113l-15 -72h-113zM488 460h-219l-45 -223h219z" />
    <glyph glyph-name="period" unicode="." horiz-adv-x="212" 
d="M50 112h112v-112h-112v112z" />
    <glyph glyph-name="question" unicode="?" horiz-adv-x="655" 
d="M233 218q0 40 21 68.5t80 62.5l72 41q63 36 89 63t26 64v16q0 50 -53 82t-143 32q-173 0 -206 -117h-104q12 89 88.5 143t222.5 54q99 0 166.5 -26t100 -71.5t32.5 -102.5q0 -46 -16.5 -79t-51 -61.5t-96.5 -65.5l-66 -39q-34 -20 -45.5 -40t-12.5 -52h-104v28zM230 112
h112v-112h-112v112z" />
    <glyph glyph-name="questiondown" unicode="&#xbf;" horiz-adv-x="655" 
d="M425 598h-112v112h112v-112zM422 492q0 -40 -21 -68.5t-80 -62.5l-72 -41q-63 -36 -89 -63t-26 -64v-16q0 -50 53 -82t143 -32q173 0 206 117h104q-12 -89 -88.5 -143t-222.5 -54q-99 0 -166.5 26t-100 71.5t-32.5 102.5q0 46 16.5 79t51 61.5t96.5 65.5l66 39
q34 20 45.5 40t12.5 52h104v-28z" />
    <glyph glyph-name="quotedbl" unicode="&#x22;" horiz-adv-x="405" 
d="M50 710h86v-267h-86v267zM269 710h86v-267h-86v267z" />
    <glyph glyph-name="quotesingle" unicode="'" horiz-adv-x="186" 
d="M50 710h86v-267h-86v267z" />
    <glyph glyph-name="semicolon" unicode=";" horiz-adv-x="260" 
d="M70 550h112v-112h-112v112zM122 0h-52v112h120v-112l-62 -148h-58z" />
    <glyph glyph-name="slash" unicode="/" horiz-adv-x="517" 
d="M404 710h95l-384 -710h-95z" />
    <glyph glyph-name="underscore" unicode="_" horiz-adv-x="590" 
d="M-10 -118h610v-82h-610v82z" />
    <glyph glyph-name="braceleft" unicode="{" horiz-adv-x="343" 
d="M152 -94q-30 16 -41.5 51.5t-11.5 100.5v150q0 47 -21 66.5t-68 19.5v68q47 0 68 19.5t21 66.5v150q0 65 11.5 100.5t41.5 51.5t87 16h84v-68h-54q-41 0 -58.5 -18.5t-17.5 -64.5v-163q0 -38 -5 -61t-23.5 -39t-55.5 -22v-4q37 -6 55.5 -22t23.5 -39t5 -61v-163
q0 -46 17.5 -64.5t58.5 -18.5h54v-68h-84q-57 0 -87 16z" />
    <glyph glyph-name="braceright" unicode="}" horiz-adv-x="343" 
d="M20 -110v68h54q41 0 58.5 18.5t17.5 64.5v163q0 38 5 61t23.5 39t55.5 22v4q-37 6 -55.5 22t-23.5 39t-5 61v163q0 46 -17.5 64.5t-58.5 18.5h-54v68h84q57 0 87 -16t41.5 -51.5t11.5 -100.5v-150q0 -47 21 -66.5t68 -19.5v-68q-47 0 -68 -19.5t-21 -66.5v-150
q0 -65 -11.5 -100.5t-41.5 -51.5t-87 -16h-84z" />
    <glyph glyph-name="bracketleft" unicode="[" horiz-adv-x="349" 
d="M75 766h244v-68h-150v-740h150v-68h-244v876z" />
    <glyph glyph-name="bracketright" unicode="]" horiz-adv-x="349" 
d="M30 -110v68h150v740h-150v68h244v-876h-244z" />
    <glyph glyph-name="parenleft" unicode="(" horiz-adv-x="311" 
d="M90 97.5q-40 108.5 -40 232.5t40 232.5t109 193.5h92q-145 -200 -145 -407v-39q0 -206 145 -406h-92q-69 85 -109 193.5z" />
    <glyph glyph-name="parenright" unicode=")" horiz-adv-x="311" 
d="M20 -96q145 200 145 406v39q0 207 -145 407h92q69 -85 109 -193.5t40 -232.5t-40 -232.5t-109 -193.5h-92z" />
    <glyph glyph-name="emdash" unicode="&#x2014;" horiz-adv-x="1147" 
d="M50 393h1047v-82h-1047v82z" />
    <glyph glyph-name="endash" unicode="&#x2013;" horiz-adv-x="818" 
d="M50 393h718v-82h-718v82z" />
    <glyph glyph-name="hyphen" unicode="-" horiz-adv-x="489" 
d="M50 395h389v-86h-389v86z" />
    <glyph glyph-name="guillemotleft" unicode="&#xab;" horiz-adv-x="643" 
d="M229 75l-194 228l194 228h99l-192 -228l192 -228h-99zM509 75l-194 228l194 228h99l-192 -228l192 -228h-99z" />
    <glyph glyph-name="guillemotright" unicode="&#xbb;" horiz-adv-x="643" 
d="M227 303l-192 228h99l194 -228l-194 -228h-99zM507 303l-192 228h99l194 -228l-194 -228h-99z" />
    <glyph glyph-name="guilsinglleft" unicode="&#x2039;" horiz-adv-x="363" 
d="M229 75l-194 228l194 228h99l-192 -228l192 -228h-99z" />
    <glyph glyph-name="guilsinglright" unicode="&#x203a;" horiz-adv-x="363" 
d="M227 303l-192 228h99l194 -228l-194 -228h-99z" />
    <glyph glyph-name="quotedblbase" unicode="&#x201e;" horiz-adv-x="220" 
d="M170 112v-112l-62 -148h-58l52 148h-52v112h120z" />
    <glyph glyph-name="quotedblleft" unicode="&#x201c;" horiz-adv-x="440" 
d="M118 562h52v-112h-120v112l62 148h58zM338 562h52v-112h-120v112l62 148h58z" />
    <glyph glyph-name="quotedblright" unicode="&#x201d;" horiz-adv-x="440" 
d="M102 598h-52v112h120v-112l-62 -148h-58zM322 598h-52v112h120v-112l-62 -148h-58z" />
    <glyph glyph-name="quoteleft" unicode="&#x2018;" horiz-adv-x="220" 
d="M118 562h52v-112h-120v112l62 148h58z" />
    <glyph glyph-name="quoteright" unicode="&#x2019;" horiz-adv-x="220" 
d="M102 598h-52v112h120v-112l-62 -148h-58z" />
    <glyph glyph-name="quotesinglbase" unicode="&#x201a;" horiz-adv-x="220" 
d="M102 0h-52v112h120v-112l-62 -148h-58z" />
    <glyph glyph-name="uni00A0" unicode="&#xa0;" horiz-adv-x="260" 
 />
    <glyph glyph-name="cent" unicode="&#xa2;" horiz-adv-x="689" 
d="M562.5 47.5q-70.5 -56.5 -181.5 -64.5v-79h-67v79q-84 7 -146 45.5t-95 101.5t-33 142t33 142t95 101.5t146 45.5v84h67v-84q110 -8 182.5 -66t83.5 -148h-99q-16 56 -59 91t-108 42v-416q66 7 110 44.5t58 95.5h100q-16 -100 -86.5 -156.5zM186.5 127
q46.5 -53 127.5 -63v416q-81 -10 -127.5 -62.5t-46.5 -133.5v-23q0 -81 46.5 -134z" />
    <glyph glyph-name="dollar" unicode="$" horiz-adv-x="733" 
d="M658 87.5q-36 -46.5 -103 -73.5t-159 -30v-80h-67v81q-142 10 -217.5 75t-82.5 160h96q12 -61 61.5 -104t142.5 -52v266l-36 6q-88 15 -139.5 36.5t-77.5 58t-26 96.5q0 54 33.5 98.5t97 71.5t148.5 30v73h67v-75q130 -9 200 -66.5t81 -136.5h-96q-16 48 -60.5 82
t-124.5 43v-242l52 -9q129 -22 187.5 -68t58.5 -133q0 -61 -36 -107.5zM329 417v232q-88 -4 -135.5 -38t-47.5 -80v-8q0 -43 40.5 -66t128.5 -38zM597 199q0 47 -40.5 72.5t-132.5 41.5l-28 5v-256q96 4 148.5 37t52.5 92v8z" />
    <glyph glyph-name="Euro" unicode="&#x20ac;" horiz-adv-x="825" 
d="M605.5 101q58.5 39 86.5 107h103q-29 -105 -117 -165.5t-215 -60.5q-138 0 -227.5 73t-116.5 198h-99v64h90q-1 12 -1 38q0 17 2 51h-91v64h102q29 120 117.5 189t223.5 69q127 0 215.5 -60.5t116.5 -165.5h-102q-29 68 -87.5 107t-142.5 39q-91 0 -154 -48.5t-86 -129.5
h333v-64h-344q-1 -9 -1 -27v-48v-14h345v-64h-336q21 -87 84.5 -139t158.5 -52q84 0 142.5 39z" />
    <glyph glyph-name="sterling" unicode="&#xa3;" horiz-adv-x="747" 
d="M234 140q-21 -39 -53 -58h521v-82h-642v79q47 16 75.5 53.5t28.5 98.5q0 30 -8 57h-116v74h86q-13 32 -20.5 61.5t-7.5 67.5q0 65 36 119t103 86t157 32q101 0 171.5 -30.5t107.5 -77.5t44 -98h-104q-17 55 -69 90.5t-150 35.5q-62 0 -106 -20.5t-66 -54t-22 -73.5v-18
q0 -29 6 -52.5t21 -67.5h274v-74h-252q6 -27 6 -58q0 -51 -21 -90z" />
    <glyph glyph-name="yen" unicode="&#xa5;" horiz-adv-x="724" 
d="M465 370h205v-64h-250l-10 -14v-75h260v-64h-260v-153h-98v153h-258v64h258v81l-6 8h-252v64h207l-241 340h108l238 -332l232 332h106z" />
    <glyph glyph-name="approxequal" unicode="&#x2248;" horiz-adv-x="700" 
d="M60 420q45 45 89.5 64.5t93.5 19.5q30 0 56.5 -7.5t67.5 -23.5q40 -16 64 -23t50 -7q29 0 56 10.5t59 40.5l44 -59q-41 -42 -79 -57.5t-87 -15.5q-28 0 -54 7.5t-61 21.5q-41 16 -68 23.5t-57 7.5q-31 0 -60 -14.5t-69 -47.5zM60 220q45 45 89.5 64.5t93.5 19.5
q30 0 56.5 -7.5t67.5 -23.5q40 -16 64 -23t50 -7q29 0 56 10.5t59 40.5l44 -59q-41 -42 -79 -57.5t-87 -15.5q-28 0 -54 7.5t-61 21.5q-41 16 -68 23.5t-57 7.5q-31 0 -60 -14.5t-69 -47.5z" />
    <glyph glyph-name="asciitilde" unicode="~" horiz-adv-x="700" 
d="M413 275.5q-33 11.5 -81 34.5q-38 18 -61.5 27t-46.5 9q-37 0 -57 -23t-24 -58h-83q1 80 46 121t114 41q36 0 68 -11.5t74 -32.5q40 -19 65 -28t51 -9q37 0 56 22t23 58h83q-1 -79 -45 -120.5t-113 -41.5q-36 0 -69 11.5z" />
    <glyph glyph-name="divide" unicode="&#xf7;" horiz-adv-x="700" 
d="M60 363h580v-82h-580v82zM294 605h112v-112h-112v112zM294 151h112v-112h-112v112z" />
    <glyph glyph-name="equal" unicode="=" horiz-adv-x="700" 
d="M60 258h580v-82h-580v82zM60 468h580v-82h-580v82z" />
    <glyph glyph-name="greater" unicode="&#x3e;" horiz-adv-x="700" 
d="M60 146l467 164l-467 164v90l580 -215v-78l-580 -215v90z" />
    <glyph glyph-name="less" unicode="&#x3c;" horiz-adv-x="700" 
d="M60 271v78l580 215v-90l-467 -164l467 -164v-90z" />
    <glyph glyph-name="minus" unicode="&#x2212;" horiz-adv-x="700" 
d="M60 363h580v-82h-580v82z" />
    <glyph glyph-name="multiply" unicode="&#xd7;" horiz-adv-x="700" 
d="M408 322l216 -216l-58 -58l-216 216l-216 -216l-58 58l216 216l-216 216l58 58l216 -216l216 216l58 -58z" />
    <glyph glyph-name="notequal" unicode="&#x2260;" horiz-adv-x="700" 
d="M438 386l-91 -128h293v-82h-350l-71 -100h-85l71 100h-145v82h202l91 128h-293v82h350l71 100h85l-71 -100h145v-82h-202z" />
    <glyph glyph-name="percent" unicode="%" horiz-adv-x="954" 
d="M708 710h91l-554 -710h-91zM634.5 4q-43.5 22 -68 61t-24.5 89q0 49 24.5 88t68 61t97.5 22t97.5 -22t68 -61t24.5 -88q0 -50 -24.5 -89t-68 -61t-97.5 -22t-97.5 22zM808.5 73.5q31.5 25.5 31.5 72.5v15q0 47 -31.5 72.5t-76.5 25.5t-76.5 -25.5t-31.5 -72.5v-15
q0 -47 31.5 -72.5t76.5 -25.5t76.5 25.5zM124.5 407q-43.5 22 -68 61t-24.5 89q0 49 24.5 88t68 61t97.5 22t97.5 -22t68 -61t24.5 -88q0 -50 -24.5 -89t-68 -61t-97.5 -22t-97.5 22zM298.5 476.5q31.5 25.5 31.5 72.5v15q0 47 -31.5 72.5t-76.5 25.5t-76.5 -25.5
t-31.5 -72.5v-15q0 -47 31.5 -72.5t76.5 -25.5t76.5 25.5z" />
    <glyph glyph-name="perthousand" unicode="&#x2030;" horiz-adv-x="1394" 
d="M708 710h91l-554 -710h-91zM634.5 4q-43.5 22 -68 61t-24.5 89q0 49 24.5 88t68 61t97.5 22t97.5 -22t68 -61t24.5 -88q0 -50 -24.5 -89t-68 -61t-97.5 -22t-97.5 22zM808.5 73.5q31.5 25.5 31.5 72.5v15q0 47 -31.5 72.5t-76.5 25.5t-76.5 -25.5t-31.5 -72.5v-15
q0 -47 31.5 -72.5t76.5 -25.5t76.5 25.5zM124.5 407q-43.5 22 -68 61t-24.5 89q0 49 24.5 88t68 61t97.5 22t97.5 -22t68 -61t24.5 -88q0 -50 -24.5 -89t-68 -61t-97.5 -22t-97.5 22zM298.5 476.5q31.5 25.5 31.5 72.5v15q0 47 -31.5 72.5t-76.5 25.5t-76.5 -25.5
t-31.5 -72.5v-15q0 -47 31.5 -72.5t76.5 -25.5t76.5 25.5zM1074.5 4q-43.5 22 -68 61t-24.5 89q0 49 24.5 88t68 61t97.5 22t97.5 -22t68 -61t24.5 -88q0 -50 -24.5 -89t-68 -61t-97.5 -22t-97.5 22zM1248.5 73.5q31.5 25.5 31.5 72.5v15q0 47 -31.5 72.5t-76.5 25.5
t-76.5 -25.5t-31.5 -72.5v-15q0 -47 31.5 -72.5t76.5 -25.5t76.5 25.5z" />
    <glyph glyph-name="plus" unicode="+" horiz-adv-x="700" 
d="M640 281h-248v-249h-84v249h-248v82h248v249h84v-249h248v-82z" />
    <glyph glyph-name="plusminus" unicode="&#xb1;" horiz-adv-x="700" 
d="M640 491v-82h-248v-219h-84v219h-248v82h248v219h84v-219h248zM60 82h580v-82h-580v82z" />
    <glyph glyph-name="bar" unicode="|" horiz-adv-x="242" 
d="M75 800h92v-940h-92v940z" />
    <glyph glyph-name="at" unicode="@" horiz-adv-x="1052" 
d="M784 667q108 -51 165.5 -141.5t57.5 -207.5q0 -80 -26.5 -143.5t-78 -100t-122.5 -36.5q-67 0 -107.5 32.5t-46.5 76.5q-31 -56 -77 -82.5t-101 -26.5q-86 0 -129.5 51.5t-43.5 132.5q0 77 32.5 144t90 107.5t129.5 40.5q54 0 89 -22t46 -57l15 71h90l-60 -281
q-5 -25 -5 -42q0 -72 79 -72q36 0 65 22.5t46 64t17 96.5v48q0 84 -46.5 152t-132 107t-199.5 39q-115 0 -203 -46.5t-135.5 -125t-47.5 -171.5v-48q0 -88 48 -167t135.5 -127.5t202.5 -48.5h162v-78h-162q-147 0 -257.5 60t-169.5 161.5t-59 223.5q0 126 59 227.5
t169 159.5t258 58q145 0 253 -51zM551.5 156q38.5 37 57.5 89.5t19 98.5q0 89 -90 89q-51 0 -89 -31.5t-58 -80t-20 -99.5q0 -46 21 -74.5t66 -28.5q55 0 93.5 37z" />
    <glyph glyph-name="ampersand" unicode="&#x26;" horiz-adv-x="857" 
d="M727 0l-68 57q-117 -74 -286 -74q-161 0 -243 52t-82 154q0 79 56.5 128.5t146.5 76.5q-46 41 -71 80t-25 84q0 48 27 86.5t79 61t126 22.5q78 0 130.5 -24.5t78 -63.5t25.5 -83q0 -75 -51.5 -118.5t-145.5 -73.5l234 -196q69 72 78 177h95q-3 -67 -29.5 -127.5
t-73.5 -107.5l133 -111h-134zM253 552q0 -28 27.5 -60.5t72.5 -69.5q90 23 132.5 53t42.5 77v12q0 39 -38.5 64.5t-102.5 25.5q-61 0 -97.5 -24.5t-36.5 -65.5v-12zM588 115l-246 204l-25 20q-81 -26 -125.5 -57t-44.5 -85v-13q0 -55 62.5 -87t166.5 -32q125 0 212 50z" />
    <glyph glyph-name="paragraph" unicode="&#xb6;" horiz-adv-x="736" 
d="M369 250h-97q-67 0 -119 29.5t-80 82t-28 119.5t28 119t79.5 81t119.5 29h189v-810h-92v350zM569 710h92v-810h-92v810z" />
    <glyph glyph-name="copyright" unicode="&#xa9;" horiz-adv-x="854" 
d="M229.5 33.5q-86.5 46.5 -135.5 130t-49 191.5t49 191.5t135.5 130t197.5 46.5t197.5 -46.5t135.5 -130t49 -191.5t-49 -191.5t-135.5 -130t-197.5 -46.5t-197.5 46.5zM590.5 83q72.5 39 113.5 110t41 162t-41 162t-113.5 110t-163.5 39q-92 0 -164.5 -39t-113.5 -110
t-41 -162t41 -162t113.5 -110t164.5 -39q91 0 163.5 39zM321.5 169q-47.5 27 -74 75.5t-26.5 110.5t26.5 110.5t74 75.5t109.5 27q72 0 127 -34t64 -105h-76q-11 33 -40.5 54.5t-74.5 21.5q-60 0 -95.5 -39.5t-35.5 -110.5q0 -70 36 -110t95 -40q49 0 74.5 21.5t40.5 63.5
h76q-11 -75 -64.5 -111.5t-126.5 -36.5q-62 0 -109.5 27z" />
    <glyph glyph-name="registered" unicode="&#xae;" horiz-adv-x="512" 
d="M368.5 694.5q50.5 -28.5 79.5 -78.5t29 -112t-29 -112t-79.5 -78.5t-112.5 -28.5t-112.5 28.5t-79.5 78.5t-29 112t29 112t79.5 78.5t112.5 28.5t112.5 -28.5zM347 347q40 23 62 64t22 93t-22 93t-62 64t-91 23t-91 -23t-62 -64t-22 -93t22 -93t62 -64t91 -23t91 23z
M346 505.5q-12 -17.5 -33 -24.5l55 -80h-56l-48 74l-3 -1h-43v-73h-48v217h48h64q35 0 55.5 -21t20.5 -51q0 -23 -12 -40.5zM218 512h56q15 0 24.5 9.5t9.5 23.5v3q0 14 -9.5 23t-24.5 9h-56v-68z" />
    <glyph glyph-name="section" unicode="&#xa7;" horiz-adv-x="682" 
d="M610 183.5q-33 -35.5 -98 -53.5q46 -20 65.5 -49t19.5 -77q0 -47 -29.5 -84.5t-85.5 -59.5t-134 -22q-89 0 -148.5 24t-88 62.5t-30.5 85.5h95q24 -96 176 -96q72 0 111 24.5t39 60.5v5q0 31 -27.5 48.5t-99.5 33.5l-135 30q-112 24 -161.5 63.5t-49.5 107.5
q0 50 33 85.5t98 53.5q-46 20 -65.5 49t-19.5 77q0 47 29.5 84.5t85.5 59.5t134 22q89 0 148.5 -24t88 -62.5t30.5 -85.5h-95q-24 96 -176 96q-72 0 -111 -24.5t-39 -60.5v-5q0 -31 27.5 -48.5t99.5 -33.5l135 -30q112 -24 161.5 -63.5t49.5 -107.5q0 -50 -33 -85.5z
M548 269q0 33 -33.5 55t-108.5 39l-112 25q-84 -1 -127 -26t-43 -70v-5q0 -33 33.5 -55t108.5 -39l112 -25q84 1 127 26t43 70v5z" />
    <glyph glyph-name="trademark" unicode="&#x2122;" horiz-adv-x="1005" 
d="M20 710h385v-53h-162v-342h-64v342h-159v53zM945 710v-395h-59v335l-141 -335h-68l-141 335v-335h-59v395h93l142 -338l140 338h93z" />
    <glyph glyph-name="degree" unicode="&#xb0;" horiz-adv-x="440" 
d="M134 430q-39 21 -61.5 57t-22.5 81t22.5 81t61.5 57t86 21t86 -21t61.5 -57t22.5 -81t-22.5 -81t-61.5 -57t-86 -21t-86 21zM289 501.5q26 26.5 26 66.5t-26 66.5t-69 26.5t-69 -26.5t-26 -66.5t26 -66.5t69 -26.5t69 26.5z" />
    <glyph glyph-name="asciicircum" unicode="^" horiz-adv-x="625" 
d="M265 710h96l234 -430h-86l-195 356l-198 -356h-86z" />
    <glyph glyph-name="dagger" unicode="&#x2020;" horiz-adv-x="661" 
d="M586 358h-209v-530h-92v530h-210v84h210v268h92v-268h209v-84z" />
    <glyph glyph-name="daggerdbl" unicode="&#x2021;" horiz-adv-x="661" 
d="M377 408v-236h209v-84h-209v-260h-92v260h-210v84h210v236h-210v84h210v218h92v-218h209v-84h-209z" />
    <glyph glyph-name="uni0308" unicode="&#x308;" horiz-adv-x="0" 
d="M-365 892h96v-108h-96v108zM-146 892h96v-108h-96v108z" />
    <glyph glyph-name="uni0307" unicode="&#x307;" horiz-adv-x="0" 
d="M-146 892h96v-108h-96v108z" />
    <glyph glyph-name="gravecomb" unicode="&#x300;" horiz-adv-x="0" 
d="M-138 760l-102 132h122l68 -132h-88z" />
    <glyph glyph-name="acutecomb" unicode="&#x301;" horiz-adv-x="0" 
d="M-172 892h122l-102 -132h-88z" />
    <glyph glyph-name="uni030B" unicode="&#x30b;" horiz-adv-x="0" 
d="M-372 892h122l-102 -132h-88zM-172 892h122l-102 -132h-88z" />
    <glyph glyph-name="caroncomb.alt" horiz-adv-x="0" 
d="M-141 736h91l-57 -192h-67z" />
    <glyph glyph-name="uni0302" unicode="&#x302;" horiz-adv-x="0" 
d="M-136 760l-83 93l-83 -93h-86l92 132h112h42l92 -132h-86z" />
    <glyph glyph-name="uni030C" unicode="&#x30c;" horiz-adv-x="0" 
d="M-50 892l-92 -132h-112h-42l-92 132h86l83 -93l83 93h86z" />
    <glyph glyph-name="uni0306" unicode="&#x306;" horiz-adv-x="0" 
d="M-334 790q-48 30 -48 81v21h85v-12q0 -29 24 -44.5t57 -15.5t57.5 15.5t24.5 44.5v12h84v-21q0 -51 -48 -81t-118 -30t-118 30z" />
    <glyph glyph-name="uni030A" unicode="&#x30a;" horiz-adv-x="0" 
d="M-291.5 687q-40.5 35 -40.5 90t40.5 90t100.5 35t100.5 -35t40.5 -90t-40.5 -90t-100.5 -35t-100.5 35zM-136.5 722q21.5 17 21.5 50v10q0 33 -21.5 50t-54.5 17t-54.5 -17t-21.5 -50v-10q0 -33 21.5 -50t54.5 -17t54.5 17z" />
    <glyph glyph-name="tildecomb" unicode="&#x303;" horiz-adv-x="0" 
d="M-382.5 854q29.5 28 71.5 28q27 0 49.5 -6.5t49.5 -18.5q24 -10 36.5 -14t26.5 -4q19 0 29 10t12 33h58q0 -54 -27 -82t-69 -28q-24 0 -46 6.5t-51 18.5q-4 2 -18.5 7.5t-26 8t-20.5 2.5q-20 0 -31.5 -10t-14.5 -33h-58q0 54 29.5 82z" />
    <glyph glyph-name="uni0304" unicode="&#x304;" horiz-adv-x="0" 
d="M-368 855h318v-74h-318v74z" />
    <glyph glyph-name="uni0312" unicode="&#x312;" horiz-adv-x="0" 
d="M-101 714h51v-86h-108v86l56 70h52z" />
    <glyph glyph-name="uni0326" unicode="&#x326;" horiz-adv-x="0" 
d="M-107 -160h-51v86h108v-86l-56 -70h-52z" />
    <glyph glyph-name="uni0327" unicode="&#x327;" horiz-adv-x="0" 
d="M-50 -116q0 -45 -34 -65.5t-87 -20.5q-33 0 -67 8t-60 24l32 48q43 -25 94 -25q56 0 56 30q0 15 -15.5 21t-45.5 6h-44l-29 24l56 98l53 -22l-30 -50q121 -3 121 -76z" />
    <glyph glyph-name="uni0328" unicode="&#x328;" horiz-adv-x="0" 
d="M-187 -167q-31 22 -31 66q0 41 35 70.5t99 53.5l34 -23q-52 -29 -73.5 -47.5t-21.5 -40.5v-7q0 -38 66 -38h21v-51q-23 -5 -46 -5q-52 0 -83 22z" />
    <glyph glyph-name="uni0335" unicode="&#x335;" horiz-adv-x="0" 
d="M-426 390h376v-70h-376v70z" />
    <glyph glyph-name="uni0336" unicode="&#x336;" horiz-adv-x="0" 
d="M-695 397h645v-84h-645v84z" />
    <glyph glyph-name="uni0337" unicode="&#x337;" horiz-adv-x="0" 
d="M-354 282l304 204v-79l-304 -204v79z" />
    <glyph glyph-name="uni0338" unicode="&#x338;" horiz-adv-x="0" 
d="M-154 728h104l-715 -746h-103z" />
    <glyph glyph-name="uni0326.alt" horiz-adv-x="0" 
d="M-256 702l79 101h77l-73 -101h69v-117h-152v117z" />
    <glyph glyph-name="acute" unicode="&#xb4;" horiz-adv-x="290" 
d="M118 892h122l-102 -132h-88z" />
    <glyph glyph-name="breve" unicode="&#x2d8;" horiz-adv-x="432" 
d="M98 790q-48 30 -48 81v21h85v-12q0 -29 24 -44.5t57 -15.5t57.5 15.5t24.5 44.5v12h84v-21q0 -51 -48 -81t-118 -30t-118 30z" />
    <glyph glyph-name="caron" unicode="&#x2c7;" horiz-adv-x="438" 
d="M388 892l-92 -132h-112h-42l-92 132h86l83 -93l83 93h86z" />
    <glyph glyph-name="cedilla" unicode="&#xb8;" horiz-adv-x="348" 
d="M298 -116q0 -45 -34 -65.5t-87 -20.5q-33 0 -67 8t-60 24l32 48q43 -25 94 -25q56 0 56 30q0 15 -15.5 21t-45.5 6h-44l-29 24l56 98l53 -22l-30 -50q121 -3 121 -76z" />
    <glyph glyph-name="circumflex" unicode="&#x2c6;" horiz-adv-x="438" 
d="M302 760l-83 93l-83 -93h-86l92 132h112h42l92 -132h-86z" />
    <glyph glyph-name="dieresis" unicode="&#xa8;" horiz-adv-x="415" 
d="M50 892h96v-108h-96v108zM269 892h96v-108h-96v108z" />
    <glyph glyph-name="dotaccent" unicode="&#x2d9;" horiz-adv-x="196" 
d="M50 892h96v-108h-96v108z" />
    <glyph glyph-name="grave" unicode="`" horiz-adv-x="290" 
d="M152 760l-102 132h122l68 -132h-88z" />
    <glyph glyph-name="hungarumlaut" unicode="&#x2dd;" horiz-adv-x="490" 
d="M118 892h122l-102 -132h-88zM318 892h122l-102 -132h-88z" />
    <glyph glyph-name="macron" unicode="&#xaf;" horiz-adv-x="418" 
d="M50 855h318v-74h-318v74z" />
    <glyph glyph-name="ogonek" unicode="&#x2db;" horiz-adv-x="268" 
d="M81 -167q-31 22 -31 66q0 41 35 70.5t99 53.5l34 -23q-52 -29 -73.5 -47.5t-21.5 -40.5v-7q0 -38 66 -38h21v-51q-23 -5 -46 -5q-52 0 -83 22z" />
    <glyph glyph-name="ring" unicode="&#x2da;" horiz-adv-x="382" 
d="M90.5 687q-40.5 35 -40.5 90t40.5 90t100.5 35t100.5 -35t40.5 -90t-40.5 -90t-100.5 -35t-100.5 35zM245.5 722q21.5 17 21.5 50v10q0 33 -21.5 50t-54.5 17t-54.5 -17t-21.5 -50v-10q0 -33 21.5 -50t54.5 -17t54.5 17z" />
    <glyph glyph-name="tilde" unicode="&#x2dc;" horiz-adv-x="462" 
d="M79.5 854q29.5 28 71.5 28q27 0 49.5 -6.5t49.5 -18.5q24 -10 36.5 -14t26.5 -4q19 0 29 10t12 33h58q0 -54 -27 -82t-69 -28q-24 0 -46 6.5t-51 18.5q-4 2 -18.5 7.5t-26 8t-20.5 2.5q-20 0 -31.5 -10t-14.5 -33h-58q0 54 29.5 82z" />
    </font>
</defs>
</svg>
