<?xml version="1.0" encoding="utf-8"?>
<!-- Generator: Adobe Illustrator 16.0.0, SVG Export Plug-In . SVG Version: 6.00 Build 0)  -->
<!DOCTYPE svg PUBLIC "-//W3C//DTD SVG 1.1//EN" "http://www.w3.org/Graphics/SVG/1.1/DTD/svg11.dtd">
<svg version="1.1" id="Capa_1" xmlns="http://www.w3.org/2000/svg" xmlns:xlink="http://www.w3.org/1999/xlink" x="0px" y="0px"
	 width="155px" height="163px" viewBox="0 0 155 163" enable-background="new 0 0 155 163" xml:space="preserve">
<title>0</title>
<desc>Created with Sketch.</desc>
<g id="_x2D_">
	<path id="_x30_" fill="#171717" fill-opacity="0" stroke="#1E7498" stroke-width="0.3" d="M77.405,161.856
		c-15.877,0-29.588-3.392-41.135-10.176c-11.547-6.784-20.351-16.273-26.413-28.47S0.764,96.979,0.764,81.102
		c0-15.877,3.031-29.913,9.093-42.109s14.866-21.686,26.413-28.47C47.817,3.739,61.528,0.347,77.405,0.347
		s29.589,3.392,41.135,10.176c11.547,6.784,20.351,16.273,26.413,28.47s9.094,26.232,9.094,42.109
		c0,15.876-3.031,29.913-9.094,42.109s-14.866,21.686-26.413,28.47C106.994,158.465,93.282,161.856,77.405,161.856z M77.405,144.536
		c11.258,0,21.001-2.525,29.228-7.577s14.506-11.979,18.836-20.784c4.33-8.804,6.494-18.763,6.494-29.877V75.906
		c0-11.114-2.164-21.073-6.494-29.877s-10.609-15.732-18.836-20.784c-8.227-5.052-17.97-7.578-29.228-7.578
		c-11.258,0-21,2.526-29.228,7.578c-8.227,5.051-14.505,11.979-18.835,20.784s-6.495,18.763-6.495,29.877v10.392
		c0,11.114,2.165,21.073,6.495,29.877c4.33,8.805,10.608,15.732,18.835,20.784S66.147,144.536,77.405,144.536z"/>
</g>
</svg>
