<?xml version="1.0" encoding="utf-8"?>
<!-- Generator: Adobe Illustrator 16.0.0, SVG Export Plug-In . SVG Version: 6.00 Build 0)  -->
<!DOCTYPE svg PUBLIC "-//W3C//DTD SVG 1.1//EN" "http://www.w3.org/Graphics/SVG/1.1/DTD/svg11.dtd">
<svg version="1.1" id="Capa_1" xmlns="http://www.w3.org/2000/svg" xmlns:xlink="http://www.w3.org/1999/xlink" x="0px" y="0px"
	 width="141px" height="159px" viewBox="0 0 141 159" enable-background="new 0 0 141 159" xml:space="preserve">
<title>2</title>
<desc>Created with Sketch.</desc>
<g id="_x2D_">
	<path id="_x32_" fill="none" stroke="#1E7498" stroke-width="0.3" d="M140.335,140.178v17.754H0.476V146.89
		c0-3.031,0.108-5.304,0.325-6.819c0.217-1.516,0.758-3.067,1.624-4.655c6.495-12.99,21.794-25.402,45.898-37.237l37.671-18.403
		c7.505-3.752,13.243-6.784,17.212-9.093c3.969-2.31,7.324-5.268,10.067-8.876c2.742-3.608,4.113-8.011,4.113-13.207v-3.248
		c0-8.372-3.86-15.083-11.583-20.134c-7.722-5.052-18.582-7.578-32.583-7.578c-15.732,0-27.387,2.995-34.965,8.985
		c-7.578,5.99-12.016,13.603-13.314,22.84h-22.3c0.578-9.093,3.681-17.356,9.31-24.789S25.626,11.325,36.09,6.922
		C46.554,2.52,59.003,0.319,73.436,0.319c14.289,0,26.377,2.057,36.265,6.17c9.887,4.114,17.319,9.707,22.3,16.779
		c4.979,7.072,7.469,14.938,7.469,23.599c0,8.66-2.057,15.985-6.17,21.975s-8.984,10.753-14.614,14.29
		c-5.629,3.535-13.495,7.758-23.599,12.664l-37.671,18.403c-17.031,8.371-28.866,17.031-35.506,25.979H140.335z"/>
</g>
</svg>
