<?xml version="1.0" encoding="utf-8"?>
<!-- Generator: Adobe Illustrator 16.0.0, SVG Export Plug-In . SVG Version: 6.00 Build 0)  -->
<!DOCTYPE svg PUBLIC "-//W3C//DTD SVG 1.1//EN" "http://www.w3.org/Graphics/SVG/1.1/DTD/svg11.dtd">
<svg version="1.1" id="Capa_1" xmlns="http://www.w3.org/2000/svg" xmlns:xlink="http://www.w3.org/1999/xlink" x="0px" y="0px"
	 width="143px" height="163px" viewBox="0 0 143 163" enable-background="new 0 0 143 163" xml:space="preserve">
<title>3</title>
<desc>Created with Sketch.</desc>
<g id="_x2D_">
	<path id="_x33_" fill="none" stroke="#1E7498" stroke-width="0.3" d="M111.999,80.274c9.526,2.887,16.995,7.217,22.407,12.99
		c5.413,5.773,8.119,13.062,8.119,21.866c0,9.094-2.563,17.176-7.686,24.248c-5.124,7.072-12.918,12.666-23.383,16.779
		c-10.463,4.113-23.418,6.17-38.861,6.17c-16.743,0-30.418-2.237-41.026-6.711c-10.608-4.475-18.331-10.248-23.166-17.32
		c-4.835-7.072-7.542-14.795-8.119-23.166h21.866c1.876,9.526,7.072,16.887,15.588,22.083c8.516,5.196,20.351,7.794,35.507,7.794
		c9.959,0,18.51-1.299,25.654-3.896s12.521-6.026,16.129-10.284c3.609-4.258,5.413-8.913,5.413-13.964v-3.465
		c0-7.36-3.681-13.098-11.042-17.211c-7.36-4.113-17.607-6.17-30.742-6.17H50.296V72.914h27.711c12.125,0,21.543-2.129,28.254-6.387
		s10.067-10.428,10.067-18.511v-3.464c0-4.33-1.588-8.516-4.763-12.557c-3.176-4.042-8.083-7.361-14.723-9.959
		c-6.639-2.598-14.794-3.897-24.465-3.897c-13.855,0-24.716,2.381-32.583,7.145c-7.866,4.763-13.17,11.763-15.913,21H1.8
		c2.021-12.702,8.696-23.454,20.026-32.259C33.157,5.221,50.008,0.819,72.379,0.819c14.289,0,26.414,2.057,36.373,6.17
		c9.959,4.114,17.392,9.562,22.299,16.346c4.908,6.784,7.361,14.289,7.361,22.516C138.412,63.315,129.607,74.79,111.999,80.274z"/>
</g>
</svg>
