<?xml version="1.0" encoding="utf-8"?>
<!-- Generator: Adobe Illustrator 16.0.0, SVG Export Plug-In . SVG Version: 6.00 Build 0)  -->
<!DOCTYPE svg PUBLIC "-//W3C//DTD SVG 1.1//EN" "http://www.w3.org/Graphics/SVG/1.1/DTD/svg11.dtd">
<svg version="1.1" id="Capa_1" xmlns="http://www.w3.org/2000/svg" xmlns:xlink="http://www.w3.org/1999/xlink" x="0px" y="0px"
	 width="146px" height="159px" viewBox="0 0 146 159" enable-background="new 0 0 146 159" xml:space="preserve">
<title>5</title>
<desc>Created with Sketch.</desc>
<g id="_x2D_">
	<path id="_x35_" fill="none" stroke="#1E7498" stroke-width="0.3" d="M77.519,56.573c22.806,0,39.872,4.654,51.202,13.964
		s16.996,21.614,16.996,36.914c0,9.67-2.599,18.365-7.795,26.088c-5.195,7.722-13.098,13.783-23.707,18.186
		c-10.607,4.402-23.634,6.604-39.078,6.604c-16.742,0-30.562-2.057-41.459-6.17c-10.897-4.113-18.908-9.563-24.032-16.346
		c-5.124-6.784-7.975-14.217-8.552-22.3h23.815c2.454,10.104,7.614,17.212,15.48,21.325s19.665,6.17,35.398,6.17
		c14.577,0,26.196-2.959,34.855-8.877c8.66-5.917,12.99-13.855,12.99-23.814v-1.732c0-9.959-4.293-17.896-12.881-23.814
		c-8.588-5.917-20.965-8.876-37.131-8.876c-11.69,0-21.613,1.624-29.768,4.871s-14.397,7.758-18.727,13.531H2.61l8.876-91.579
		h125.787v17.753H29.023L23.61,73.244C35.013,62.13,52.982,56.573,77.519,56.573z"/>
</g>
</svg>
