<?xml version="1.0" encoding="utf-8"?>
<!-- Generator: Adobe Illustrator 16.0.0, SVG Export Plug-In . SVG Version: 6.00 Build 0)  -->
<!DOCTYPE svg PUBLIC "-//W3C//DTD SVG 1.1//EN" "http://www.w3.org/Graphics/SVG/1.1/DTD/svg11.dtd">
<svg version="1.1" id="Capa_1" xmlns="http://www.w3.org/2000/svg" xmlns:xlink="http://www.w3.org/1999/xlink" x="0px" y="0px"
	 width="151px" height="163px" viewBox="0 0 151 163" enable-background="new 0 0 151 163" xml:space="preserve">
<title>6</title>
<desc>Created with Sketch.</desc>
<g id="_x2D_">
	<path id="_x36_" fill="none" stroke="#1E7498" stroke-width="0.3" d="M80.818,60.573c22.66,0,39.871,4.51,51.635,13.531
		c11.764,9.021,17.645,21.253,17.645,36.696c0,16.021-6.17,28.614-18.511,37.779c-12.341,9.166-29.624,13.748-51.852,13.748
		c-25.691,0-45.285-6.639-58.78-19.918S0.713,110.296,0.713,85.904c0-17.321,3.031-32.367,9.093-45.141
		c6.062-12.773,14.938-22.624,26.629-29.552C48.126,4.283,62.199,0.819,78.652,0.819c12.413,0,23.418,1.876,33.017,5.629
		c9.599,3.752,17.248,8.66,22.949,14.722s9.273,12.413,10.717,19.052h-23.599c-3.176-6.062-8.264-11.258-15.264-15.588
		c-7-4.33-16.634-6.495-28.902-6.495c-11.98,0-22.083,2.706-30.31,8.119S32.899,38.851,28.858,47.8
		c-4.042,8.948-6.062,18.835-6.062,29.66v4.33c4.763-6.784,12.016-12.016,21.758-15.696C54.296,62.413,66.384,60.573,80.818,60.573z
		 M128.015,109.719c0-9.959-4.366-17.753-13.099-23.383c-8.732-5.628-21.036-8.443-36.912-8.443
		c-15.877,0-28.182,2.814-36.914,8.443c-8.732,5.63-13.098,13.424-13.098,23.383v3.464c0,9.671,4.438,17.392,13.315,23.165
		s21.108,8.66,36.697,8.66c15.588,0,27.819-2.887,36.696-8.66c8.876-5.773,13.314-13.494,13.314-23.165V109.719z"/>
</g>
</svg>
