<?xml version="1.0" encoding="utf-8"?>
<!-- Generator: Adobe Illustrator 16.0.0, SVG Export Plug-In . SVG Version: 6.00 Build 0)  -->
<!DOCTYPE svg PUBLIC "-//W3C//DTD SVG 1.1//EN" "http://www.w3.org/Graphics/SVG/1.1/DTD/svg11.dtd">
<svg version="1.1" id="Capa_1" xmlns="http://www.w3.org/2000/svg" xmlns:xlink="http://www.w3.org/1999/xlink" x="0px" y="0px"
	 width="151px" height="163px" viewBox="0 0 151 163" enable-background="new 0 0 151 163" xml:space="preserve">
<title>8</title>
<desc>Created with Sketch.</desc>
<g id="_x2D_">
	<path id="_x38_" fill="none" stroke="#1E7498" stroke-width="0.3" d="M119.355,75.728c10.103,3.608,17.752,8.551,22.948,14.831
		c5.196,6.278,7.794,13.82,7.794,22.624c0,9.526-2.887,18.005-8.66,25.438s-14.289,13.242-25.547,17.429
		c-11.258,4.186-24.753,6.278-40.485,6.278s-29.228-2.093-40.485-6.278c-11.258-4.187-19.774-9.995-25.547-17.429
		c-5.773-7.434-8.66-15.912-8.66-25.438c0-8.804,2.598-16.346,7.794-22.624c5.196-6.279,12.846-11.222,22.949-14.831
		C14.713,69.377,6.342,58.48,6.342,43.037c0-8.372,2.814-15.732,8.443-22.083S28.425,9.66,38.817,6.124
		c10.392-3.537,22.588-5.304,36.588-5.304c14.001,0,26.196,1.768,36.589,5.304c10.392,3.536,18.402,8.479,24.031,14.83
		s8.443,13.711,8.443,22.083C144.469,58.48,136.098,69.377,119.355,75.728z M27.992,45.851c0,6.639,4.33,12.088,12.99,16.346
		c8.66,4.258,20.134,6.387,34.423,6.387s25.764-2.129,34.423-6.387c8.66-4.258,12.99-9.707,12.99-16.346v-1.732
		c0-7.794-4.005-14.073-12.016-18.835c-8.01-4.763-19.81-7.145-35.397-7.145s-27.387,2.381-35.398,7.145
		c-8.01,4.763-12.016,11.042-12.016,18.835V45.851z M128.447,112.1c0-8.516-4.438-15.263-13.314-20.242s-22.119-7.469-39.728-7.469
		c-17.609,0-30.851,2.489-39.728,7.469c-8.877,4.979-13.315,11.727-13.315,20.242v2.166c0,5.917,2.165,11.221,6.495,15.912
		s10.5,8.336,18.511,10.934c8.01,2.598,17.356,3.896,28.037,3.896s20.026-1.299,28.036-3.896
		c8.012-2.598,14.182-6.242,18.512-10.934s6.494-9.995,6.494-15.912V112.1z"/>
</g>
</svg>
