<?xml version="1.0" standalone="no"?>
<!DOCTYPE svg PUBLIC "-//W3C//DTD SVG 1.1//EN" "http://www.w3.org/Graphics/SVG/1.1/DTD/svg11.dtd" >
<svg>
<metadata>
Created by FontForge 20090622 at Sun Jan 13 10:48:24 2019
 By deploy user
Copyright &#194;&#169; 2016 by SCANIA. All rights reserved.
</metadata>
<defs>
<font id="ScaniaSansHeadlineV1-Bold" horiz-adv-x="0" >
  <font-face 
    font-family="Scania Sans Headline V1 Bold"
    font-weight="700"
    font-stretch="expanded"
    units-per-em="1000"
    panose-1="0 0 8 5 0 0 0 0 0 0"
    ascent="750"
    descent="-250"
    x-height="710"
    cap-height="710"
    bbox="-891 -230 1575 947"
    underline-thickness="50"
    underline-position="-50"
    unicode-range="U+0020-U+2260"
  />
<missing-glyph horiz-adv-x="536" 
d="M100 710h336v-710h-336v710zM394 44v622h-252v-622h252z" />
    <glyph glyph-name=".notdef" horiz-adv-x="536" 
d="M100 710h336v-710h-336v710zM394 44v622h-252v-622h252z" />
    <glyph glyph-name="space" unicode=" " horiz-adv-x="250" 
 />
    <glyph glyph-name="A" unicode="A" horiz-adv-x="867" 
d="M612 121h-364l-48 -121h-203l283 710h306l284 -710h-211zM553 273l-123 313l-123 -313h246z" />
    <glyph glyph-name="Aacute" unicode="&#xc1;" horiz-adv-x="867" 
d="M612 121h-364l-48 -121h-203l283 710h306l284 -710h-211zM553 273l-123 313l-123 -313h246zM407 892h222l-122 -142h-168z" />
    <glyph glyph-name="Abreve" unicode="&#x102;" horiz-adv-x="867" 
d="M612 121h-364l-48 -121h-203l283 710h306l284 -710h-211zM553 273l-123 313l-123 -313h246zM294 778.5q-57 33.5 -57 92.5v21h127v-12q0 -22 20 -35.5t50 -13.5t50 13.5t20 35.5v12h127v-21q0 -59 -57 -92.5t-140 -33.5t-140 33.5z" />
    <glyph glyph-name="Acircumflex" unicode="&#xc2;" horiz-adv-x="867" 
d="M612 121h-364l-48 -121h-203l283 710h306l284 -710h-211zM553 273l-123 313l-123 -313h246zM513 750l-79 85l-79 -85h-146l98 142h180h74l98 -142h-146z" />
    <glyph glyph-name="Adieresis" unicode="&#xc4;" horiz-adv-x="867" 
d="M612 121h-364l-48 -121h-203l283 710h306l284 -710h-211zM553 273l-123 313l-123 -313h246zM213 892h185v-132h-185v132zM470 892h185v-132h-185v132z" />
    <glyph glyph-name="Agrave" unicode="&#xc0;" horiz-adv-x="867" 
d="M612 121h-364l-48 -121h-203l283 710h306l284 -710h-211zM553 273l-123 313l-123 -313h246zM361 750l-122 142h222l68 -142h-168z" />
    <glyph glyph-name="Amacron" unicode="&#x100;" horiz-adv-x="867" 
d="M612 121h-364l-48 -121h-203l283 710h306l284 -710h-211zM553 273l-123 313l-123 -313h246zM245 880h378v-120h-378v120z" />
    <glyph glyph-name="Aogonek" unicode="&#x104;" horiz-adv-x="867" 
d="M800.5 -86q14.5 -6 38.5 -6h23v-88q-12 -4 -32 -6t-36 -2q-78 0 -114.5 25.5t-36.5 68.5q0 59 63 94h-47l-47 121h-364l-48 -121h-203l283 710h306l284 -710q-46 -20 -65 -33t-19 -28v-6q0 -13 14.5 -19zM553 273l-123 313l-123 -313h246z" />
    <glyph glyph-name="Aring" unicode="&#xc5;" horiz-adv-x="867" 
d="M612 121h-364l-48 -121h-203l268 674q-18 34 -18 73q0 71 52.5 114.5t134.5 43.5q53 0 95.5 -20t67 -55.5t24.5 -82.5q0 -43 -20 -75l269 -672h-211zM348 741q0 -33 25.5 -51t60.5 -18t60.5 18t25.5 51v12q0 33 -25.5 51t-60.5 18t-60.5 -18t-25.5 -51v-12zM553 273
l-123 313l-123 -313h246z" />
    <glyph glyph-name="Atilde" unicode="&#xc3;" horiz-adv-x="867" 
d="M612 121h-364l-48 -121h-203l283 710h306l284 -710h-211zM553 273l-123 313l-123 -313h246zM267 849q34 33 87 33q31 0 53 -6t47 -17q18 -8 30.5 -11.5t26.5 -3.5q37 0 39 38h85q0 -69 -31.5 -101.5t-84.5 -32.5q-27 0 -47.5 5.5t-50.5 16.5q-19 8 -32 12t-27 4
q-40 0 -43 -38h-86q0 68 34 101z" />
    <glyph glyph-name="AE" unicode="&#xc6;" horiz-adv-x="1220" 
d="M748 558v-126h423v-152h-423v-128h449v-152h-653v121h-262l-70 -121h-215l414 710h212h574v-152h-449zM544 273v301l-174 -301h174z" />
    <glyph glyph-name="B" unicode="B" horiz-adv-x="804" 
d="M751 312q38 -42 38 -109q0 -94 -64 -148.5t-175 -54.5h-392h-128v710h204h285q108 0 175 -49t67 -140q0 -59 -31 -96.5t-79 -53.5q62 -17 100 -59zM234 562v-129h241q37 0 59 15t22 45v10q0 29 -21.5 44t-57.5 15h-243zM582 222q0 33 -23.5 50t-61.5 17h-263v-141h263
q39 0 62 16.5t23 49.5v8z" />
    <glyph glyph-name="C" unicode="C" horiz-adv-x="872" 
d="M212.5 29q-94.5 47 -142.5 131t-48 195t48 195t142.5 131t228.5 47q118 0 207.5 -35.5t142 -101.5t62.5 -154h-213q-15 63 -66 100.5t-133 37.5q-101 0 -153.5 -55.5t-52.5 -145.5v-38q0 -90 52.5 -145.5t153.5 -55.5q86 0 137.5 41t64.5 109h212q-7 -92 -59.5 -160.5
t-143 -105.5t-211.5 -37q-134 0 -228.5 47z" />
    <glyph glyph-name="Cacute" unicode="&#x106;" horiz-adv-x="872" 
d="M212.5 29q-94.5 47 -142.5 131t-48 195t48 195t142.5 131t228.5 47q118 0 207.5 -35.5t142 -101.5t62.5 -154h-213q-15 63 -66 100.5t-133 37.5q-101 0 -153.5 -55.5t-52.5 -145.5v-38q0 -90 52.5 -145.5t153.5 -55.5q86 0 137.5 41t64.5 109h212q-7 -92 -59.5 -160.5
t-143 -105.5t-211.5 -37q-134 0 -228.5 47zM420 892h222l-122 -142h-168z" />
    <glyph glyph-name="Ccaron" unicode="&#x10c;" horiz-adv-x="872" 
d="M212.5 29q-94.5 47 -142.5 131t-48 195t48 195t142.5 131t228.5 47q118 0 207.5 -35.5t142 -101.5t62.5 -154h-213q-15 63 -66 100.5t-133 37.5q-101 0 -153.5 -55.5t-52.5 -145.5v-38q0 -90 52.5 -145.5t153.5 -55.5q86 0 137.5 41t64.5 109h212q-7 -92 -59.5 -160.5
t-143 -105.5t-211.5 -37q-134 0 -228.5 47zM672 892l-98 -142h-180h-74l-98 142h146l79 -85l79 85h146z" />
    <glyph glyph-name="Ccedilla" unicode="&#xc7;" horiz-adv-x="872" 
d="M798.5 128.5q-49.5 -67.5 -136 -105.5t-201.5 -41l-10 -17q55 -2 85 -22t30 -59q0 -49 -37 -70.5t-93 -21.5q-33 0 -69 8t-61 23l32 63q20 -12 45 -19t50 -7q22 0 32.5 5t10.5 17t-12 17t-38 5h-30l-40 30l29 50q-117 10 -198.5 59t-123 129t-41.5 183q0 111 48 195
t142.5 131t228.5 47q118 0 207.5 -35.5t142 -101.5t62.5 -154h-213q-15 63 -66 100.5t-133 37.5q-101 0 -153.5 -55.5t-52.5 -145.5v-38q0 -90 52.5 -145.5t153.5 -55.5q86 0 137.5 41t64.5 109h212q-7 -89 -56.5 -156.5z" />
    <glyph glyph-name="Cdotaccent" unicode="&#x10a;" horiz-adv-x="872" 
d="M212.5 29q-94.5 47 -142.5 131t-48 195t48 195t142.5 131t228.5 47q118 0 207.5 -35.5t142 -101.5t62.5 -154h-213q-15 63 -66 100.5t-133 37.5q-101 0 -153.5 -55.5t-52.5 -145.5v-38q0 -90 52.5 -145.5t153.5 -55.5q86 0 137.5 41t64.5 109h212q-7 -92 -59.5 -160.5
t-143 -105.5t-211.5 -37q-134 0 -228.5 47zM350 892h194v-132h-194v132z" />
    <glyph glyph-name="D" unicode="D" horiz-adv-x="833" 
d="M621 665q94 -45 142 -125t48 -185t-48 -185t-142 -125t-228 -45h-263h-100v710h204h159q134 0 228 -45zM598 374q0 89 -52 136.5t-153 47.5h-159v-406h159q101 0 153 47.5t52 136.5v38z" />
    <glyph glyph-name="Eth" unicode="&#xd0;" horiz-adv-x="889" 
d="M677 665q94 -45 142 -125t48 -185t-48 -185t-142 -125t-228 -45h-263h-100v280h-71v152h71v278h204h159q134 0 228 -45zM654 374q0 89 -52 136.5t-153 47.5h-159v-126h193v-152h-193v-128h159q101 0 153 47.5t52 136.5v38z" />
    <glyph glyph-name="Dcaron" unicode="&#x10e;" horiz-adv-x="833" 
d="M621 665q94 -45 142 -125t48 -185t-48 -185t-142 -125t-228 -45h-263h-100v710h204h159q134 0 228 -45zM598 374q0 89 -52 136.5t-153 47.5h-159v-406h159q101 0 153 47.5t52 136.5v38zM634 892l-98 -142h-180h-74l-98 142h146l79 -85l79 85h146z" />
    <glyph glyph-name="Dcroat" unicode="&#x110;" horiz-adv-x="889" 
d="M677 665q94 -45 142 -125t48 -185t-48 -185t-142 -125t-228 -45h-263h-100v280h-71v152h71v278h204h159q134 0 228 -45zM654 374q0 89 -52 136.5t-153 47.5h-159v-126h193v-152h-193v-128h159q101 0 153 47.5t52 136.5v38z" />
    <glyph glyph-name="E" unicode="E" horiz-adv-x="706" 
d="M234 558v-126h423v-152h-423v-128h449v-152h-504h-149v710h204h449v-152h-449z" />
    <glyph glyph-name="Eacute" unicode="&#xc9;" horiz-adv-x="706" 
d="M234 558v-126h423v-152h-423v-128h449v-152h-504h-149v710h204h449v-152h-449zM330 892h222l-122 -142h-168z" />
    <glyph glyph-name="Ecaron" unicode="&#x11a;" horiz-adv-x="706" 
d="M234 558v-126h423v-152h-423v-128h449v-152h-504h-149v710h204h449v-152h-449zM582 892l-98 -142h-180h-74l-98 142h146l79 -85l79 85h146z" />
    <glyph glyph-name="Ecircumflex" unicode="&#xca;" horiz-adv-x="706" 
d="M234 558v-126h423v-152h-423v-128h449v-152h-504h-149v710h204h449v-152h-449zM436 750l-79 85l-79 -85h-146l98 142h180h74l98 -142h-146z" />
    <glyph glyph-name="Edieresis" unicode="&#xcb;" horiz-adv-x="706" 
d="M234 558v-126h423v-152h-423v-128h449v-152h-504h-149v710h204h449v-152h-449zM136 892h185v-132h-185v132zM393 892h185v-132h-185v132z" />
    <glyph glyph-name="Edotaccent" unicode="&#x116;" horiz-adv-x="706" 
d="M234 558v-126h423v-152h-423v-128h449v-152h-504h-149v710h204h449v-152h-449zM260 892h194v-132h-194v132z" />
    <glyph glyph-name="Egrave" unicode="&#xc8;" horiz-adv-x="706" 
d="M234 558v-126h423v-152h-423v-128h449v-152h-504h-149v710h204h449v-152h-449zM284 750l-122 142h222l68 -142h-168z" />
    <glyph glyph-name="Emacron" unicode="&#x112;" horiz-adv-x="706" 
d="M234 558v-126h423v-152h-423v-128h449v-152h-504h-149v710h204h449v-152h-449zM168 880h378v-120h-378v120z" />
    <glyph glyph-name="Eogonek" unicode="&#x118;" horiz-adv-x="706" 
d="M234 558v-126h423v-152h-423v-128h449v-152q-46 -20 -65 -33t-19 -28v-6q0 -13 14.5 -19t38.5 -6h23v-88q-12 -4 -32 -6t-36 -2q-78 0 -114.5 25.5t-36.5 68.5q0 60 63 94h-340h-149v710h204h449v-152h-449z" />
    <glyph glyph-name="F" unicode="F" horiz-adv-x="707" 
d="M234 558v-126h423v-152h-423v-280h-204v710h204h449v-152h-449z" />
    <glyph glyph-name="G" unicode="G" horiz-adv-x="871" 
d="M849 409v-122q0 -31 -9 -62q-33 -112 -136.5 -177.5t-262.5 -65.5q-134 0 -228.5 47t-142.5 131t-48 195t48 195t142.5 131t228.5 47q110 0 196.5 -31t140 -88.5t67.5 -136.5h-216q-22 49 -69.5 76t-118.5 27q-102 0 -154 -55.5t-52 -145.5v-38q0 -90 53 -145.5
t158 -55.5q84 0 133.5 32.5t66.5 89.5h-239v152h442z" />
    <glyph glyph-name="Gbreve" unicode="&#x11e;" horiz-adv-x="871" 
d="M849 409v-122q0 -31 -9 -62q-33 -112 -136.5 -177.5t-262.5 -65.5q-134 0 -228.5 47t-142.5 131t-48 195t48 195t142.5 131t228.5 47q110 0 196.5 -31t140 -88.5t67.5 -136.5h-216q-22 49 -69.5 76t-118.5 27q-102 0 -154 -55.5t-52 -145.5v-38q0 -90 53 -145.5
t158 -55.5q84 0 133.5 32.5t66.5 89.5h-239v152h442zM296 778.5q-57 33.5 -57 92.5v21h127v-12q0 -22 20 -35.5t50 -13.5t50 13.5t20 35.5v12h127v-21q0 -59 -57 -92.5t-140 -33.5t-140 33.5z" />
    <glyph glyph-name="Gcommaaccent" unicode="&#x122;" horiz-adv-x="871" 
d="M849 409v-122q0 -31 -9 -62q-33 -112 -136.5 -177.5t-262.5 -65.5q-134 0 -228.5 47t-142.5 131t-48 195t48 195t142.5 131t228.5 47q110 0 196.5 -31t140 -88.5t67.5 -136.5h-216q-22 49 -69.5 76t-118.5 27q-102 0 -154 -55.5t-52 -145.5v-38q0 -90 53 -145.5
t158 -55.5q84 0 133.5 32.5t66.5 89.5h-239v152h442zM423 -152h-71v99h172v-99l-84 -78h-92z" />
    <glyph glyph-name="Gdotaccent" unicode="&#x120;" horiz-adv-x="871" 
d="M849 409v-122q0 -31 -9 -62q-33 -112 -136.5 -177.5t-262.5 -65.5q-134 0 -228.5 47t-142.5 131t-48 195t48 195t142.5 131t228.5 47q110 0 196.5 -31t140 -88.5t67.5 -136.5h-216q-22 49 -69.5 76t-118.5 27q-102 0 -154 -55.5t-52 -145.5v-38q0 -90 53 -145.5
t158 -55.5q84 0 133.5 32.5t66.5 89.5h-239v152h442zM339 892h194v-132h-194v132z" />
    <glyph glyph-name="H" unicode="H" horiz-adv-x="834" 
d="M804 710v-710h-204v280h-366v-280h-204v710h204v-278h366v278h204z" />
    <glyph glyph-name="Hbar" unicode="&#x126;" horiz-adv-x="878" 
d="M866 499h-30v-499h-204v280h-366v-280h-204v499h-50v132h50v79h204v-79h366v79h204v-79h30v-132zM632 499h-366v-67h366v67z" />
    <glyph glyph-name="I" unicode="I" horiz-adv-x="274" 
d="M35 710h204v-710h-204v710z" />
    <glyph glyph-name="Iacute" unicode="&#xcd;" horiz-adv-x="274" 
d="M35 710h204v-710h-204v710zM110 892h222l-122 -142h-168z" />
    <glyph glyph-name="Icircumflex" unicode="&#xce;" horiz-adv-x="274" 
d="M35 710h204v-710h-204v710zM216 750l-79 85l-79 -85h-146l98 142h180h74l98 -142h-146z" />
    <glyph glyph-name="Idieresis" unicode="&#xcf;" horiz-adv-x="274" 
d="M35 710h204v-710h-204v710zM-84 892h185v-132h-185v132zM173 892h185v-132h-185v132z" />
    <glyph glyph-name="Idotaccent" unicode="&#x130;" horiz-adv-x="274" 
d="M35 710h204v-710h-204v710zM40 892h194v-132h-194v132z" />
    <glyph glyph-name="Igrave" unicode="&#xcc;" horiz-adv-x="274" 
d="M35 710h204v-710h-204v710zM64 750l-122 142h222l68 -142h-168z" />
    <glyph glyph-name="Imacron" unicode="&#x12a;" horiz-adv-x="274" 
d="M35 710h204v-710h-204v710zM-52 880h378v-120h-378v120z" />
    <glyph glyph-name="Iogonek" unicode="&#x12e;" horiz-adv-x="274" 
d="M174 -33q-19 -13 -19 -28v-6q0 -13 14.5 -19t38.5 -6h23v-88q-12 -4 -32 -6t-36 -2q-78 0 -114.5 25.5t-36.5 68.5q0 59 63 94h-40v710h204v-710q-46 -20 -65 -33z" />
    <glyph glyph-name="J" unicode="J" horiz-adv-x="686" 
d="M100.5 50.5q-79.5 68.5 -85.5 181.5h203q4 -43 34 -70t85 -27q56 0 85.5 31t29.5 80v465h204v-441q0 -85 -36.5 -150t-108.5 -101.5t-177 -36.5q-154 0 -233.5 68.5z" />
    <glyph glyph-name="K" unicode="K" horiz-adv-x="833" 
d="M390 304l-156 -145v-159h-204v710h204v-334l349 334h245l-294 -273l299 -437h-235z" />
    <glyph glyph-name="Kcommaaccent" unicode="&#x136;" horiz-adv-x="833" 
d="M390 304l-156 -145v-159h-204v710h204v-334l349 334h245l-294 -273l299 -437h-235zM397 -152h-71v99h172v-99l-84 -78h-92z" />
    <glyph glyph-name="L" unicode="L" horiz-adv-x="657" 
d="M30 710h204v-558h401v-152h-605v710z" />
    <glyph glyph-name="Lacute" unicode="&#x139;" horiz-adv-x="657" 
d="M30 710h204v-558h401v-152h-605v710zM111 892h222l-122 -142h-168z" />
    <glyph glyph-name="Lcaron" unicode="&#x13d;" horiz-adv-x="657" 
d="M30 710h204v-558h401v-152h-605v710zM286 710h146l-62 -192h-117z" />
    <glyph glyph-name="Lcommaaccent" unicode="&#x13b;" horiz-adv-x="657" 
d="M30 710h204v-558h401v-152h-605v710zM340 -152h-71v99h172v-99l-84 -78h-92z" />
    <glyph glyph-name="Lslash" unicode="&#x141;" horiz-adv-x="707" 
d="M685 152v-152h-605v213l-75 -40v155l75 40v342h204v-233l146 78v-155l-146 -78v-170h401z" />
    <glyph glyph-name="M" unicode="M" horiz-adv-x="1029" 
d="M999 710v-710h-200v525l-187 -525h-186l-196 535v-535h-200v710h315l176 -488l171 488h307z" />
    <glyph glyph-name="N" unicode="N" horiz-adv-x="852" 
d="M822 710v-710h-244l-348 495v-495h-200v710h249l343 -488v488h200z" />
    <glyph glyph-name="Nacute" unicode="&#x143;" horiz-adv-x="852" 
d="M822 710v-710h-244l-348 495v-495h-200v710h249l343 -488v488h200zM399 892h222l-122 -142h-168z" />
    <glyph glyph-name="Ncaron" unicode="&#x147;" horiz-adv-x="852" 
d="M822 710v-710h-244l-348 495v-495h-200v710h249l343 -488v488h200zM651 892l-98 -142h-180h-74l-98 142h146l79 -85l79 85h146z" />
    <glyph glyph-name="Ncommaaccent" unicode="&#x145;" horiz-adv-x="852" 
d="M822 710v-710h-244l-348 495v-495h-200v710h249l343 -488v488h200zM413 -152h-71v99h172v-99l-84 -78h-92z" />
    <glyph glyph-name="Eng" unicode="&#x14a;" horiz-adv-x="852" 
d="M822 710v-649v-37q0 -75 -22 -118t-68 -61.5t-122 -18.5q-29 0 -57 2v140h11q33 0 45 10.5t14 43.5l-393 485v-507h-200v710h249l343 -424v424h200z" />
    <glyph glyph-name="Ntilde" unicode="&#xd1;" horiz-adv-x="852" 
d="M822 710v-710h-244l-348 495v-495h-200v710h249l343 -488v488h200zM259 849q34 33 87 33q31 0 53 -6t47 -17q18 -8 30.5 -11.5t26.5 -3.5q37 0 39 38h85q0 -69 -31.5 -101.5t-84.5 -32.5q-27 0 -47.5 5.5t-50.5 16.5q-19 8 -32 12t-27 4q-40 0 -43 -38h-86q0 68 34 101z
" />
    <glyph glyph-name="O" unicode="O" horiz-adv-x="884" 
d="M213.5 29q-94.5 47 -143 131t-48.5 195t48.5 195t143 131t228.5 47t228.5 -47t143 -131t48.5 -195t-48.5 -195t-143 -131t-228.5 -47t-228.5 47zM595.5 190q52.5 56 52.5 146v38q0 90 -52.5 146t-153.5 56t-153.5 -56t-52.5 -146v-38q0 -90 52.5 -146t153.5 -56t153.5 56
z" />
    <glyph glyph-name="Oacute" unicode="&#xd3;" horiz-adv-x="884" 
d="M213.5 29q-94.5 47 -143 131t-48.5 195t48.5 195t143 131t228.5 47t228.5 -47t143 -131t48.5 -195t-48.5 -195t-143 -131t-228.5 -47t-228.5 47zM595.5 190q52.5 56 52.5 146v38q0 90 -52.5 146t-153.5 56t-153.5 -56t-52.5 -146v-38q0 -90 52.5 -146t153.5 -56t153.5 56
zM415 892h222l-122 -142h-168z" />
    <glyph glyph-name="Ocircumflex" unicode="&#xd4;" horiz-adv-x="884" 
d="M213.5 29q-94.5 47 -143 131t-48.5 195t48.5 195t143 131t228.5 47t228.5 -47t143 -131t48.5 -195t-48.5 -195t-143 -131t-228.5 -47t-228.5 47zM595.5 190q52.5 56 52.5 146v38q0 90 -52.5 146t-153.5 56t-153.5 -56t-52.5 -146v-38q0 -90 52.5 -146t153.5 -56t153.5 56
zM521 750l-79 85l-79 -85h-146l98 142h180h74l98 -142h-146z" />
    <glyph glyph-name="Odieresis" unicode="&#xd6;" horiz-adv-x="884" 
d="M213.5 29q-94.5 47 -143 131t-48.5 195t48.5 195t143 131t228.5 47t228.5 -47t143 -131t48.5 -195t-48.5 -195t-143 -131t-228.5 -47t-228.5 47zM595.5 190q52.5 56 52.5 146v38q0 90 -52.5 146t-153.5 56t-153.5 -56t-52.5 -146v-38q0 -90 52.5 -146t153.5 -56t153.5 56
zM221 892h185v-132h-185v132zM478 892h185v-132h-185v132z" />
    <glyph glyph-name="Ograve" unicode="&#xd2;" horiz-adv-x="884" 
d="M213.5 29q-94.5 47 -143 131t-48.5 195t48.5 195t143 131t228.5 47t228.5 -47t143 -131t48.5 -195t-48.5 -195t-143 -131t-228.5 -47t-228.5 47zM595.5 190q52.5 56 52.5 146v38q0 90 -52.5 146t-153.5 56t-153.5 -56t-52.5 -146v-38q0 -90 52.5 -146t153.5 -56t153.5 56
zM369 750l-122 142h222l68 -142h-168z" />
    <glyph glyph-name="Ohungarumlaut" unicode="&#x150;" horiz-adv-x="884" 
d="M213.5 29q-94.5 47 -143 131t-48.5 195t48.5 195t143 131t228.5 47t228.5 -47t143 -131t48.5 -195t-48.5 -195t-143 -131t-228.5 -47t-228.5 47zM595.5 190q52.5 56 52.5 146v38q0 90 -52.5 146t-153.5 56t-153.5 -56t-52.5 -146v-38q0 -90 52.5 -146t153.5 -56t153.5 56
zM300 892h222l-122 -142h-168zM550 892h222l-122 -142h-168z" />
    <glyph glyph-name="Omacron" unicode="&#x14c;" horiz-adv-x="884" 
d="M213.5 29q-94.5 47 -143 131t-48.5 195t48.5 195t143 131t228.5 47t228.5 -47t143 -131t48.5 -195t-48.5 -195t-143 -131t-228.5 -47t-228.5 47zM595.5 190q52.5 56 52.5 146v38q0 90 -52.5 146t-153.5 56t-153.5 -56t-52.5 -146v-38q0 -90 52.5 -146t153.5 -56t153.5 56
zM253 880h378v-120h-378v120z" />
    <glyph glyph-name="Oslash" unicode="&#xd8;" horiz-adv-x="884" 
d="M766 612q48 -48 72 -113.5t24 -143.5q0 -111 -48.5 -195t-143 -131t-228.5 -47q-133 0 -227 46l-44 -46h-166l111 118q-46 48 -70 113t-24 142q0 111 48.5 195t143 131t228.5 47q129 0 224 -45l43 45h167zM253 245l293 310q-43 21 -104 21q-101 0 -153.5 -56t-52.5 -146
v-38q0 -49 17 -91zM630 468l-294 -312q46 -22 106 -22q101 0 153.5 56t52.5 146v38q0 52 -18 94z" />
    <glyph glyph-name="Otilde" unicode="&#xd5;" horiz-adv-x="884" 
d="M213.5 29q-94.5 47 -143 131t-48.5 195t48.5 195t143 131t228.5 47t228.5 -47t143 -131t48.5 -195t-48.5 -195t-143 -131t-228.5 -47t-228.5 47zM595.5 190q52.5 56 52.5 146v38q0 90 -52.5 146t-153.5 56t-153.5 -56t-52.5 -146v-38q0 -90 52.5 -146t153.5 -56t153.5 56
zM275 849q34 33 87 33q31 0 53 -6t47 -17q18 -8 30.5 -11.5t26.5 -3.5q37 0 39 38h85q0 -69 -31.5 -101.5t-84.5 -32.5q-27 0 -47.5 5.5t-50.5 16.5q-19 8 -32 12t-27 4q-40 0 -43 -38h-86q0 68 34 101z" />
    <glyph glyph-name="OE" unicode="&#x152;" horiz-adv-x="1324" 
d="M852 558v-126h423v-152h-423v-128h449v-152h-653v39q-86 -55 -216 -55q-131 0 -223.5 47t-139.5 131t-47 195t47 195t139.5 131t223.5 47q130 0 216 -55v35h653v-152h-449zM595.5 192q52.5 56 52.5 146v38q0 90 -52.5 146t-153.5 56t-153.5 -56t-52.5 -146v-38
q0 -90 52.5 -146t153.5 -56t153.5 56z" />
    <glyph glyph-name="P" unicode="P" horiz-adv-x="806" 
d="M666 679q58 -31 89 -85t31 -121t-31 -121t-89 -85t-136 -31h-296v-236h-204v710h204h296q78 0 136 -31zM581 479q0 38 -27 58.5t-75 20.5h-245v-170h245q47 0 74.5 20.5t27.5 58.5v12z" />
    <glyph glyph-name="Thorn" unicode="&#xde;" horiz-adv-x="786" 
d="M646 575q58 -31 89 -85t31 -121t-31 -121t-89 -85t-136 -31h-276v-132h-204v710h204v-104h276q78 0 136 -31zM561 374q0 39 -27 59.5t-75 20.5h-225v-170h225q48 0 75 20.5t27 59.5v10z" />
    <glyph glyph-name="Q" unicode="Q" horiz-adv-x="884" 
d="M822.5 176q-39.5 -79 -116.5 -127l75 -100h-215l-30 40q-41 -7 -94 -7q-134 0 -228.5 47t-143 131t-48.5 195t48.5 195t143 131t228.5 47t228.5 -47t143 -131t48.5 -195q0 -100 -39.5 -179zM285 194q49 -56 143 -60l-78 105h215l34 -45q49 53 49 142v38q0 90 -52.5 146
t-153.5 56t-153.5 -56t-52.5 -146v-38q0 -86 49 -142z" />
    <glyph glyph-name="R" unicode="R" horiz-adv-x="799" 
d="M415 236h-181v-236h-204v710h204h286q78 0 136 -31t89 -85t31 -121q0 -78 -41 -134t-116 -79l188 -260h-231zM234 388h235q47 0 74.5 20.5t27.5 58.5v12q0 38 -27 58.5t-75 20.5h-235v-170z" />
    <glyph glyph-name="Racute" unicode="&#x154;" horiz-adv-x="799" 
d="M415 236h-181v-236h-204v710h204h286q78 0 136 -31t89 -85t31 -121q0 -78 -41 -134t-116 -79l188 -260h-231zM234 388h235q47 0 74.5 20.5t27.5 58.5v12q0 38 -27 58.5t-75 20.5h-235v-170zM370 892h222l-122 -142h-168z" />
    <glyph glyph-name="Rcaron" unicode="&#x158;" horiz-adv-x="799" 
d="M415 236h-181v-236h-204v710h204h286q78 0 136 -31t89 -85t31 -121q0 -78 -41 -134t-116 -79l188 -260h-231zM234 388h235q47 0 74.5 20.5t27.5 58.5v12q0 38 -27 58.5t-75 20.5h-235v-170zM622 892l-98 -142h-180h-74l-98 142h146l79 -85l79 85h146z" />
    <glyph glyph-name="Rcommaaccent" unicode="&#x156;" horiz-adv-x="799" 
d="M415 236h-181v-236h-204v710h204h286q78 0 136 -31t89 -85t31 -121q0 -78 -41 -134t-116 -79l188 -260h-231zM234 388h235q47 0 74.5 20.5t27.5 58.5v12q0 38 -27 58.5t-75 20.5h-235v-170zM384 -152h-71v99h172v-99l-84 -78h-92z" />
    <glyph glyph-name="S" unicode="S" horiz-adv-x="797" 
d="M109 53q-95 69 -95 189h212q2 -51 49.5 -83t138.5 -32q159 0 159 71v10q0 23 -23.5 36.5t-70.5 21.5l-193 32q-94 16 -149 39t-81 61.5t-26 100.5q0 106 85.5 167t265.5 61q128 0 211.5 -32.5t123 -86t40.5 -118.5h-213q-4 40 -48 67t-125 27q-63 0 -99 -16.5t-36 -45.5
v-10q0 -22 23.5 -33.5t74.5 -19.5l180 -30q139 -23 202 -70.5t63 -139.5q0 -235 -372 -235q-202 0 -297 69z" />
    <glyph glyph-name="Sacute" unicode="&#x15a;" horiz-adv-x="797" 
d="M109 53q-95 69 -95 189h212q2 -51 49.5 -83t138.5 -32q159 0 159 71v10q0 23 -23.5 36.5t-70.5 21.5l-193 32q-94 16 -149 39t-81 61.5t-26 100.5q0 106 85.5 167t265.5 61q128 0 211.5 -32.5t123 -86t40.5 -118.5h-213q-4 40 -48 67t-125 27q-63 0 -99 -16.5t-36 -45.5
v-10q0 -22 23.5 -33.5t74.5 -19.5l180 -30q139 -23 202 -70.5t63 -139.5q0 -235 -372 -235q-202 0 -297 69zM371 892h222l-122 -142h-168z" />
    <glyph glyph-name="Scaron" unicode="&#x160;" horiz-adv-x="797" 
d="M109 53q-95 69 -95 189h212q2 -51 49.5 -83t138.5 -32q159 0 159 71v10q0 23 -23.5 36.5t-70.5 21.5l-193 32q-94 16 -149 39t-81 61.5t-26 100.5q0 106 85.5 167t265.5 61q128 0 211.5 -32.5t123 -86t40.5 -118.5h-213q-4 40 -48 67t-125 27q-63 0 -99 -16.5t-36 -45.5
v-10q0 -22 23.5 -33.5t74.5 -19.5l180 -30q139 -23 202 -70.5t63 -139.5q0 -235 -372 -235q-202 0 -297 69zM623 892l-98 -142h-180h-74l-98 142h146l79 -85l79 85h146z" />
    <glyph glyph-name="Scedilla" unicode="&#x15e;" horiz-adv-x="797" 
d="M424 -16l-11 -19q55 -2 85 -22t30 -59q0 -49 -37 -70.5t-93 -21.5q-33 0 -69 8t-61 23l32 63q20 -12 45 -19t50 -7q22 0 32.5 5t10.5 17t-12 17t-38 5h-30l-40 30l30 52q-172 10 -253 77.5t-81 178.5h212q2 -51 49.5 -83t138.5 -32q159 0 159 71v10q0 23 -23.5 36.5
t-70.5 21.5l-193 32q-94 16 -149 39t-81 61.5t-26 100.5q0 106 85.5 167t265.5 61q128 0 211.5 -32.5t123 -86t40.5 -118.5h-213q-4 40 -48 67t-125 27q-63 0 -99 -16.5t-36 -45.5v-10q0 -22 23.5 -33.5t74.5 -19.5l180 -30q139 -23 202 -70.5t63 -139.5q0 -229 -354 -235z
" />
    <glyph glyph-name="Scommaaccent" unicode="&#x218;" horiz-adv-x="797" 
d="M109 53q-95 69 -95 189h212q2 -51 49.5 -83t138.5 -32q159 0 159 71v10q0 23 -23.5 36.5t-70.5 21.5l-193 32q-94 16 -149 39t-81 61.5t-26 100.5q0 106 85.5 167t265.5 61q128 0 211.5 -32.5t123 -86t40.5 -118.5h-213q-4 40 -48 67t-125 27q-63 0 -99 -16.5t-36 -45.5
v-10q0 -22 23.5 -33.5t74.5 -19.5l180 -30q139 -23 202 -70.5t63 -139.5q0 -235 -372 -235q-202 0 -297 69zM385 -152h-71v99h172v-99l-84 -78h-92z" />
    <glyph glyph-name="T" unicode="T" horiz-adv-x="773" 
d="M284 558h-262v152h729v-152h-263v-558h-204v558z" />
    <glyph glyph-name="Tbar" unicode="&#x166;" horiz-adv-x="773" 
d="M488 558v-147h99v-112h-99v-299h-204v299h-100v112h100v147h-262v152h729v-152h-263z" />
    <glyph glyph-name="Tcaron" unicode="&#x164;" horiz-adv-x="773" 
d="M284 558h-262v152h729v-152h-263v-558h-204v558zM611 892l-98 -142h-180h-74l-98 142h146l79 -85l79 85h146z" />
    <glyph glyph-name="uni0162" unicode="&#x162;" horiz-adv-x="773" 
d="M422 0l-21 -35q55 -2 85 -22t30 -59q0 -49 -37 -70.5t-93 -21.5q-33 0 -69 8t-61 23l32 63q20 -12 45 -19t50 -7q22 0 32.5 5t10.5 17t-12 17t-38 5h-30l-40 30l38 66h-60v558h-262v152h729v-152h-263v-558h-66z" />
    <glyph glyph-name="uni021A" unicode="&#x21a;" horiz-adv-x="773" 
d="M284 558h-262v152h729v-152h-263v-558h-204v558zM373 -152h-71v99h172v-99l-84 -78h-92z" />
    <glyph glyph-name="U" unicode="U" horiz-adv-x="791" 
d="M127.5 53.5q-97.5 71.5 -97.5 207.5v449h204v-434q0 -61 33.5 -100t111.5 -39h35q77 0 110 39t33 100v434h204v-449q0 -136 -98 -207.5t-267 -71.5q-171 0 -268.5 71.5z" />
    <glyph glyph-name="Uacute" unicode="&#xda;" horiz-adv-x="791" 
d="M127.5 53.5q-97.5 71.5 -97.5 207.5v449h204v-434q0 -61 33.5 -100t111.5 -39h35q77 0 110 39t33 100v434h204v-449q0 -136 -98 -207.5t-267 -71.5q-171 0 -268.5 71.5zM369 892h222l-122 -142h-168z" />
    <glyph glyph-name="Ucircumflex" unicode="&#xdb;" horiz-adv-x="791" 
d="M127.5 53.5q-97.5 71.5 -97.5 207.5v449h204v-434q0 -61 33.5 -100t111.5 -39h35q77 0 110 39t33 100v434h204v-449q0 -136 -98 -207.5t-267 -71.5q-171 0 -268.5 71.5zM475 750l-79 85l-79 -85h-146l98 142h180h74l98 -142h-146z" />
    <glyph glyph-name="Udieresis" unicode="&#xdc;" horiz-adv-x="791" 
d="M127.5 53.5q-97.5 71.5 -97.5 207.5v449h204v-434q0 -61 33.5 -100t111.5 -39h35q77 0 110 39t33 100v434h204v-449q0 -136 -98 -207.5t-267 -71.5q-171 0 -268.5 71.5zM175 892h185v-132h-185v132zM432 892h185v-132h-185v132z" />
    <glyph glyph-name="Ugrave" unicode="&#xd9;" horiz-adv-x="791" 
d="M127.5 53.5q-97.5 71.5 -97.5 207.5v449h204v-434q0 -61 33.5 -100t111.5 -39h35q77 0 110 39t33 100v434h204v-449q0 -136 -98 -207.5t-267 -71.5q-171 0 -268.5 71.5zM323 750l-122 142h222l68 -142h-168z" />
    <glyph glyph-name="Uhungarumlaut" unicode="&#x170;" horiz-adv-x="791" 
d="M127.5 53.5q-97.5 71.5 -97.5 207.5v449h204v-434q0 -61 33.5 -100t111.5 -39h35q77 0 110 39t33 100v434h204v-449q0 -136 -98 -207.5t-267 -71.5q-171 0 -268.5 71.5zM254 892h222l-122 -142h-168zM504 892h222l-122 -142h-168z" />
    <glyph glyph-name="Umacron" unicode="&#x16a;" horiz-adv-x="791" 
d="M127.5 53.5q-97.5 71.5 -97.5 207.5v449h204v-434q0 -61 33.5 -100t111.5 -39h35q77 0 110 39t33 100v434h204v-449q0 -136 -98 -207.5t-267 -71.5q-171 0 -268.5 71.5zM207 880h378v-120h-378v120z" />
    <glyph glyph-name="Uogonek" unicode="&#x172;" horiz-adv-x="791" 
d="M761 710v-449q0 -108 -59.5 -172.5t-176.5 -97.5q-37 -10 -57 -24t-20 -28v-6q0 -13 14.5 -19t38.5 -6h23v-88q-12 -4 -32 -6t-36 -2q-78 0 -114.5 25.5t-36.5 68.5q0 46 39 78q-148 11 -231 81.5t-83 195.5v449h204v-434q0 -61 33.5 -100t111.5 -39h35q77 0 110 39
t33 100v434h204z" />
    <glyph glyph-name="Uring" unicode="&#x16e;" horiz-adv-x="791" 
d="M761 710v-449q0 -136 -98 -207.5t-267 -71.5q-171 0 -268.5 71.5t-97.5 207.5v449h183q-4 16 -4 37q0 71 52.5 114.5t134.5 43.5q53 0 95.5 -20t67 -55.5t24.5 -82.5q0 -21 -4 -37h182zM310 741q0 -33 25.5 -51t60.5 -18t60.5 18t25.5 51v12q0 33 -25.5 51t-60.5 18
t-60.5 -18t-25.5 -51v-12zM524 176q33 39 33 100v386q-24 -35 -66.5 -54t-94.5 -19q-53 0 -95.5 19.5t-66.5 54.5v-387q0 -61 33.5 -100t111.5 -39h35q77 0 110 39z" />
    <glyph glyph-name="V" unicode="V" horiz-adv-x="848" 
d="M851 710l-282 -710h-289l-283 710h210l220 -563l221 563h203z" />
    <glyph glyph-name="W" unicode="W" horiz-adv-x="1185" 
d="M1179 710l-203 -710h-247l-140 471l-140 -471h-241l-202 710h207l131 -482l146 482h206l147 -487l133 487h203z" />
    <glyph glyph-name="Wacute" unicode="&#x1e82;" horiz-adv-x="1185" 
d="M1179 710l-203 -710h-247l-140 471l-140 -471h-241l-202 710h207l131 -482l146 482h206l147 -487l133 487h203zM566 892h222l-122 -142h-168z" />
    <glyph glyph-name="Wcircumflex" unicode="&#x174;" horiz-adv-x="1185" 
d="M1179 710l-203 -710h-247l-140 471l-140 -471h-241l-202 710h207l131 -482l146 482h206l147 -487l133 487h203zM672 750l-79 85l-79 -85h-146l98 142h180h74l98 -142h-146z" />
    <glyph glyph-name="Wdieresis" unicode="&#x1e84;" horiz-adv-x="1185" 
d="M1179 710l-203 -710h-247l-140 471l-140 -471h-241l-202 710h207l131 -482l146 482h206l147 -487l133 487h203zM372 892h185v-132h-185v132zM629 892h185v-132h-185v132z" />
    <glyph glyph-name="Wgrave" unicode="&#x1e80;" horiz-adv-x="1185" 
d="M1179 710l-203 -710h-247l-140 471l-140 -471h-241l-202 710h207l131 -482l146 482h206l147 -487l133 487h203zM520 750l-122 142h222l68 -142h-168z" />
    <glyph glyph-name="X" unicode="X" horiz-adv-x="808" 
d="M579 0l-175 246l-175 -246h-225l268 370l-257 340h230l159 -219l159 219h230l-257 -340l268 -370h-225z" />
    <glyph glyph-name="Y" unicode="Y" horiz-adv-x="828" 
d="M516 262v-262h-204v264l-314 446h225l194 -276l194 276h219z" />
    <glyph glyph-name="Yacute" unicode="&#xdd;" horiz-adv-x="828" 
d="M516 262v-262h-204v264l-314 446h225l194 -276l194 276h219zM387 892h222l-122 -142h-168z" />
    <glyph glyph-name="Ycircumflex" unicode="&#x176;" horiz-adv-x="828" 
d="M516 262v-262h-204v264l-314 446h225l194 -276l194 276h219zM493 750l-79 85l-79 -85h-146l98 142h180h74l98 -142h-146z" />
    <glyph glyph-name="Ydieresis" unicode="&#x178;" horiz-adv-x="828" 
d="M516 262v-262h-204v264l-314 446h225l194 -276l194 276h219zM193 892h185v-132h-185v132zM450 892h185v-132h-185v132z" />
    <glyph glyph-name="Ygrave" unicode="&#x1ef2;" horiz-adv-x="828" 
d="M516 262v-262h-204v264l-314 446h225l194 -276l194 276h219zM341 750l-122 142h222l68 -142h-168z" />
    <glyph glyph-name="Z" unicode="Z" horiz-adv-x="767" 
d="M742 558l-456 -406h456v-152h-717v161l449 397h-443v152h711v-152z" />
    <glyph glyph-name="Zacute" unicode="&#x179;" horiz-adv-x="767" 
d="M742 558l-456 -406h456v-152h-717v161l449 397h-443v152h711v-152zM336 892h222l-122 -142h-168z" />
    <glyph glyph-name="Zcaron" unicode="&#x17d;" horiz-adv-x="767" 
d="M742 558l-456 -406h456v-152h-717v161l449 397h-443v152h711v-152zM588 892l-98 -142h-180h-74l-98 142h146l79 -85l79 85h146z" />
    <glyph glyph-name="Zdotaccent" unicode="&#x17b;" horiz-adv-x="767" 
d="M742 558l-456 -406h456v-152h-717v161l449 397h-443v152h711v-152zM266 892h194v-132h-194v132z" />
    <glyph glyph-name="a" unicode="a" horiz-adv-x="867" 
d="M612 121h-364l-48 -121h-203l283 710h306l284 -710h-211zM553 273l-123 313l-123 -313h246z" />
    <glyph glyph-name="aacute" unicode="&#xe1;" horiz-adv-x="867" 
d="M612 121h-364l-48 -121h-203l283 710h306l284 -710h-211zM553 273l-123 313l-123 -313h246zM407 892h222l-122 -142h-168z" />
    <glyph glyph-name="abreve" unicode="&#x103;" horiz-adv-x="867" 
d="M612 121h-364l-48 -121h-203l283 710h306l284 -710h-211zM553 273l-123 313l-123 -313h246zM294 778.5q-57 33.5 -57 92.5v21h127v-12q0 -22 20 -35.5t50 -13.5t50 13.5t20 35.5v12h127v-21q0 -59 -57 -92.5t-140 -33.5t-140 33.5z" />
    <glyph glyph-name="acircumflex" unicode="&#xe2;" horiz-adv-x="867" 
d="M612 121h-364l-48 -121h-203l283 710h306l284 -710h-211zM553 273l-123 313l-123 -313h246zM513 750l-79 85l-79 -85h-146l98 142h180h74l98 -142h-146z" />
    <glyph glyph-name="adieresis" unicode="&#xe4;" horiz-adv-x="867" 
d="M612 121h-364l-48 -121h-203l283 710h306l284 -710h-211zM553 273l-123 313l-123 -313h246zM213 892h185v-132h-185v132zM470 892h185v-132h-185v132z" />
    <glyph glyph-name="agrave" unicode="&#xe0;" horiz-adv-x="867" 
d="M612 121h-364l-48 -121h-203l283 710h306l284 -710h-211zM553 273l-123 313l-123 -313h246zM361 750l-122 142h222l68 -142h-168z" />
    <glyph glyph-name="amacron" unicode="&#x101;" horiz-adv-x="867" 
d="M612 121h-364l-48 -121h-203l283 710h306l284 -710h-211zM553 273l-123 313l-123 -313h246zM245 880h378v-120h-378v120z" />
    <glyph glyph-name="aogonek" unicode="&#x105;" horiz-adv-x="867" 
d="M800.5 -86q14.5 -6 38.5 -6h23v-88q-12 -4 -32 -6t-36 -2q-78 0 -114.5 25.5t-36.5 68.5q0 59 63 94h-47l-47 121h-364l-48 -121h-203l283 710h306l284 -710q-46 -20 -65 -33t-19 -28v-6q0 -13 14.5 -19zM553 273l-123 313l-123 -313h246z" />
    <glyph glyph-name="aring" unicode="&#xe5;" horiz-adv-x="867" 
d="M612 121h-364l-48 -121h-203l268 674q-18 34 -18 73q0 71 52.5 114.5t134.5 43.5q53 0 95.5 -20t67 -55.5t24.5 -82.5q0 -43 -20 -75l269 -672h-211zM348 741q0 -33 25.5 -51t60.5 -18t60.5 18t25.5 51v12q0 33 -25.5 51t-60.5 18t-60.5 -18t-25.5 -51v-12zM553 273
l-123 313l-123 -313h246z" />
    <glyph glyph-name="atilde" unicode="&#xe3;" horiz-adv-x="867" 
d="M612 121h-364l-48 -121h-203l283 710h306l284 -710h-211zM553 273l-123 313l-123 -313h246zM267 849q34 33 87 33q31 0 53 -6t47 -17q18 -8 30.5 -11.5t26.5 -3.5q37 0 39 38h85q0 -69 -31.5 -101.5t-84.5 -32.5q-27 0 -47.5 5.5t-50.5 16.5q-19 8 -32 12t-27 4
q-40 0 -43 -38h-86q0 68 34 101z" />
    <glyph glyph-name="ae" unicode="&#xe6;" horiz-adv-x="1220" 
d="M748 558v-126h423v-152h-423v-128h449v-152h-653v121h-262l-70 -121h-215l414 710h212h574v-152h-449zM544 273v301l-174 -301h174z" />
    <glyph glyph-name="b" unicode="b" horiz-adv-x="804" 
d="M751 312q38 -42 38 -109q0 -94 -64 -148.5t-175 -54.5h-392h-128v710h204h285q108 0 175 -49t67 -140q0 -59 -31 -96.5t-79 -53.5q62 -17 100 -59zM234 562v-129h241q37 0 59 15t22 45v10q0 29 -21.5 44t-57.5 15h-243zM582 222q0 33 -23.5 50t-61.5 17h-263v-141h263
q39 0 62 16.5t23 49.5v8z" />
    <glyph glyph-name="c" unicode="c" horiz-adv-x="872" 
d="M212.5 29q-94.5 47 -142.5 131t-48 195t48 195t142.5 131t228.5 47q118 0 207.5 -35.5t142 -101.5t62.5 -154h-213q-15 63 -66 100.5t-133 37.5q-101 0 -153.5 -55.5t-52.5 -145.5v-38q0 -90 52.5 -145.5t153.5 -55.5q86 0 137.5 41t64.5 109h212q-7 -92 -59.5 -160.5
t-143 -105.5t-211.5 -37q-134 0 -228.5 47z" />
    <glyph glyph-name="cacute" unicode="&#x107;" horiz-adv-x="872" 
d="M212.5 29q-94.5 47 -142.5 131t-48 195t48 195t142.5 131t228.5 47q118 0 207.5 -35.5t142 -101.5t62.5 -154h-213q-15 63 -66 100.5t-133 37.5q-101 0 -153.5 -55.5t-52.5 -145.5v-38q0 -90 52.5 -145.5t153.5 -55.5q86 0 137.5 41t64.5 109h212q-7 -92 -59.5 -160.5
t-143 -105.5t-211.5 -37q-134 0 -228.5 47zM420 892h222l-122 -142h-168z" />
    <glyph glyph-name="ccaron" unicode="&#x10d;" horiz-adv-x="872" 
d="M212.5 29q-94.5 47 -142.5 131t-48 195t48 195t142.5 131t228.5 47q118 0 207.5 -35.5t142 -101.5t62.5 -154h-213q-15 63 -66 100.5t-133 37.5q-101 0 -153.5 -55.5t-52.5 -145.5v-38q0 -90 52.5 -145.5t153.5 -55.5q86 0 137.5 41t64.5 109h212q-7 -92 -59.5 -160.5
t-143 -105.5t-211.5 -37q-134 0 -228.5 47zM672 892l-98 -142h-180h-74l-98 142h146l79 -85l79 85h146z" />
    <glyph glyph-name="ccedilla" unicode="&#xe7;" horiz-adv-x="872" 
d="M798.5 128.5q-49.5 -67.5 -136 -105.5t-201.5 -41l-10 -17q55 -2 85 -22t30 -59q0 -49 -37 -70.5t-93 -21.5q-33 0 -69 8t-61 23l32 63q20 -12 45 -19t50 -7q22 0 32.5 5t10.5 17t-12 17t-38 5h-30l-40 30l29 50q-117 10 -198.5 59t-123 129t-41.5 183q0 111 48 195
t142.5 131t228.5 47q118 0 207.5 -35.5t142 -101.5t62.5 -154h-213q-15 63 -66 100.5t-133 37.5q-101 0 -153.5 -55.5t-52.5 -145.5v-38q0 -90 52.5 -145.5t153.5 -55.5q86 0 137.5 41t64.5 109h212q-7 -89 -56.5 -156.5z" />
    <glyph glyph-name="cdotaccent" unicode="&#x10b;" horiz-adv-x="872" 
d="M212.5 29q-94.5 47 -142.5 131t-48 195t48 195t142.5 131t228.5 47q118 0 207.5 -35.5t142 -101.5t62.5 -154h-213q-15 63 -66 100.5t-133 37.5q-101 0 -153.5 -55.5t-52.5 -145.5v-38q0 -90 52.5 -145.5t153.5 -55.5q86 0 137.5 41t64.5 109h212q-7 -92 -59.5 -160.5
t-143 -105.5t-211.5 -37q-134 0 -228.5 47zM350 892h194v-132h-194v132z" />
    <glyph glyph-name="d" unicode="d" horiz-adv-x="833" 
d="M621 665q94 -45 142 -125t48 -185t-48 -185t-142 -125t-228 -45h-263h-100v710h204h159q134 0 228 -45zM598 374q0 89 -52 136.5t-153 47.5h-159v-406h159q101 0 153 47.5t52 136.5v38z" />
    <glyph glyph-name="eth" unicode="&#xf0;" horiz-adv-x="889" 
d="M677 665q94 -45 142 -125t48 -185t-48 -185t-142 -125t-228 -45h-263h-100v280h-71v152h71v278h204h159q134 0 228 -45zM654 374q0 89 -52 136.5t-153 47.5h-159v-126h193v-152h-193v-128h159q101 0 153 47.5t52 136.5v38z" />
    <glyph glyph-name="dcaron" unicode="&#x10f;" horiz-adv-x="833" 
d="M621 665q94 -45 142 -125t48 -185t-48 -185t-142 -125t-228 -45h-263h-100v710h204h159q134 0 228 -45zM598 374q0 89 -52 136.5t-153 47.5h-159v-406h159q101 0 153 47.5t52 136.5v38zM634 892l-98 -142h-180h-74l-98 142h146l79 -85l79 85h146z" />
    <glyph glyph-name="dcroat" unicode="&#x111;" horiz-adv-x="889" 
d="M677 665q94 -45 142 -125t48 -185t-48 -185t-142 -125t-228 -45h-263h-100v280h-71v152h71v278h204h159q134 0 228 -45zM654 374q0 89 -52 136.5t-153 47.5h-159v-126h193v-152h-193v-128h159q101 0 153 47.5t52 136.5v38z" />
    <glyph glyph-name="e" unicode="e" horiz-adv-x="706" 
d="M234 558v-126h423v-152h-423v-128h449v-152h-504h-149v710h204h449v-152h-449z" />
    <glyph glyph-name="eacute" unicode="&#xe9;" horiz-adv-x="706" 
d="M234 558v-126h423v-152h-423v-128h449v-152h-504h-149v710h204h449v-152h-449zM330 892h222l-122 -142h-168z" />
    <glyph glyph-name="ecaron" unicode="&#x11b;" horiz-adv-x="706" 
d="M234 558v-126h423v-152h-423v-128h449v-152h-504h-149v710h204h449v-152h-449zM582 892l-98 -142h-180h-74l-98 142h146l79 -85l79 85h146z" />
    <glyph glyph-name="ecircumflex" unicode="&#xea;" horiz-adv-x="706" 
d="M234 558v-126h423v-152h-423v-128h449v-152h-504h-149v710h204h449v-152h-449zM436 750l-79 85l-79 -85h-146l98 142h180h74l98 -142h-146z" />
    <glyph glyph-name="edieresis" unicode="&#xeb;" horiz-adv-x="706" 
d="M234 558v-126h423v-152h-423v-128h449v-152h-504h-149v710h204h449v-152h-449zM136 892h185v-132h-185v132zM393 892h185v-132h-185v132z" />
    <glyph glyph-name="edotaccent" unicode="&#x117;" horiz-adv-x="706" 
d="M234 558v-126h423v-152h-423v-128h449v-152h-504h-149v710h204h449v-152h-449zM260 892h194v-132h-194v132z" />
    <glyph glyph-name="egrave" unicode="&#xe8;" horiz-adv-x="706" 
d="M234 558v-126h423v-152h-423v-128h449v-152h-504h-149v710h204h449v-152h-449zM284 750l-122 142h222l68 -142h-168z" />
    <glyph glyph-name="emacron" unicode="&#x113;" horiz-adv-x="706" 
d="M234 558v-126h423v-152h-423v-128h449v-152h-504h-149v710h204h449v-152h-449zM168 880h378v-120h-378v120z" />
    <glyph glyph-name="eogonek" unicode="&#x119;" horiz-adv-x="706" 
d="M234 558v-126h423v-152h-423v-128h449v-152q-46 -20 -65 -33t-19 -28v-6q0 -13 14.5 -19t38.5 -6h23v-88q-12 -4 -32 -6t-36 -2q-78 0 -114.5 25.5t-36.5 68.5q0 60 63 94h-340h-149v710h204h449v-152h-449z" />
    <glyph glyph-name="f" unicode="f" horiz-adv-x="707" 
d="M234 558v-126h423v-152h-423v-280h-204v710h204h449v-152h-449z" />
    <glyph glyph-name="g" unicode="g" horiz-adv-x="871" 
d="M849 409v-122q0 -31 -9 -62q-33 -112 -136.5 -177.5t-262.5 -65.5q-134 0 -228.5 47t-142.5 131t-48 195t48 195t142.5 131t228.5 47q110 0 196.5 -31t140 -88.5t67.5 -136.5h-216q-22 49 -69.5 76t-118.5 27q-102 0 -154 -55.5t-52 -145.5v-38q0 -90 53 -145.5
t158 -55.5q84 0 133.5 32.5t66.5 89.5h-239v152h442z" />
    <glyph glyph-name="gbreve" unicode="&#x11f;" horiz-adv-x="871" 
d="M849 409v-122q0 -31 -9 -62q-33 -112 -136.5 -177.5t-262.5 -65.5q-134 0 -228.5 47t-142.5 131t-48 195t48 195t142.5 131t228.5 47q110 0 196.5 -31t140 -88.5t67.5 -136.5h-216q-22 49 -69.5 76t-118.5 27q-102 0 -154 -55.5t-52 -145.5v-38q0 -90 53 -145.5
t158 -55.5q84 0 133.5 32.5t66.5 89.5h-239v152h442zM296 778.5q-57 33.5 -57 92.5v21h127v-12q0 -22 20 -35.5t50 -13.5t50 13.5t20 35.5v12h127v-21q0 -59 -57 -92.5t-140 -33.5t-140 33.5z" />
    <glyph glyph-name="gcommaaccent" unicode="&#x123;" horiz-adv-x="871" 
d="M849 409v-122q0 -31 -9 -62q-33 -112 -136.5 -177.5t-262.5 -65.5q-134 0 -228.5 47t-142.5 131t-48 195t48 195t142.5 131t228.5 47q110 0 196.5 -31t140 -88.5t67.5 -136.5h-216q-22 49 -69.5 76t-118.5 27q-102 0 -154 -55.5t-52 -145.5v-38q0 -90 53 -145.5
t158 -55.5q84 0 133.5 32.5t66.5 89.5h-239v152h442zM464 869h71v-99h-172v99l84 78h92z" />
    <glyph glyph-name="gdotaccent" unicode="&#x121;" horiz-adv-x="871" 
d="M849 409v-122q0 -31 -9 -62q-33 -112 -136.5 -177.5t-262.5 -65.5q-134 0 -228.5 47t-142.5 131t-48 195t48 195t142.5 131t228.5 47q110 0 196.5 -31t140 -88.5t67.5 -136.5h-216q-22 49 -69.5 76t-118.5 27q-102 0 -154 -55.5t-52 -145.5v-38q0 -90 53 -145.5
t158 -55.5q84 0 133.5 32.5t66.5 89.5h-239v152h442zM339 892h194v-132h-194v132z" />
    <glyph glyph-name="h" unicode="h" horiz-adv-x="834" 
d="M804 710v-710h-204v280h-366v-280h-204v710h204v-278h366v278h204z" />
    <glyph glyph-name="hbar" unicode="&#x127;" horiz-adv-x="878" 
d="M866 499h-30v-499h-204v280h-366v-280h-204v499h-50v132h50v79h204v-79h366v79h204v-79h30v-132zM632 499h-366v-67h366v67z" />
    <glyph glyph-name="i" unicode="i" horiz-adv-x="274" 
d="M35 710h204v-710h-204v710z" />
    <glyph glyph-name="dotlessi" unicode="&#x131;" horiz-adv-x="274" 
d="M35 710h204v-710h-204v710z" />
    <glyph glyph-name="iacute" unicode="&#xed;" horiz-adv-x="274" 
d="M35 710h204v-710h-204v710zM110 892h222l-122 -142h-168z" />
    <glyph glyph-name="icircumflex" unicode="&#xee;" horiz-adv-x="274" 
d="M35 710h204v-710h-204v710zM216 750l-79 85l-79 -85h-146l98 142h180h74l98 -142h-146z" />
    <glyph glyph-name="idieresis" unicode="&#xef;" horiz-adv-x="274" 
d="M35 710h204v-710h-204v710zM-84 892h185v-132h-185v132zM173 892h185v-132h-185v132z" />
    <glyph glyph-name="i.loclTRK" horiz-adv-x="274" 
d="M35 710h204v-710h-204v710zM40 892h194v-132h-194v132z" />
    <glyph glyph-name="igrave" unicode="&#xec;" horiz-adv-x="274" 
d="M35 710h204v-710h-204v710zM64 750l-122 142h222l68 -142h-168z" />
    <glyph glyph-name="imacron" unicode="&#x12b;" horiz-adv-x="274" 
d="M35 710h204v-710h-204v710zM-52 880h378v-120h-378v120z" />
    <glyph glyph-name="iogonek" unicode="&#x12f;" horiz-adv-x="274" 
d="M174 -33q-19 -13 -19 -28v-6q0 -13 14.5 -19t38.5 -6h23v-88q-12 -4 -32 -6t-36 -2q-78 0 -114.5 25.5t-36.5 68.5q0 59 63 94h-40v710h204v-710q-46 -20 -65 -33z" />
    <glyph glyph-name="j" unicode="j" horiz-adv-x="686" 
d="M100.5 50.5q-79.5 68.5 -85.5 181.5h203q4 -43 34 -70t85 -27q56 0 85.5 31t29.5 80v465h204v-441q0 -85 -36.5 -150t-108.5 -101.5t-177 -36.5q-154 0 -233.5 68.5z" />
    <glyph glyph-name="k" unicode="k" horiz-adv-x="833" 
d="M390 304l-156 -145v-159h-204v710h204v-334l349 334h245l-294 -273l299 -437h-235z" />
    <glyph glyph-name="kcommaaccent" unicode="&#x137;" horiz-adv-x="833" 
d="M390 304l-156 -145v-159h-204v710h204v-334l349 334h245l-294 -273l299 -437h-235zM397 -152h-71v99h172v-99l-84 -78h-92z" />
    <glyph glyph-name="l" unicode="l" horiz-adv-x="657" 
d="M30 710h204v-558h401v-152h-605v710z" />
    <glyph glyph-name="lacute" unicode="&#x13a;" horiz-adv-x="657" 
d="M30 710h204v-558h401v-152h-605v710zM111 892h222l-122 -142h-168z" />
    <glyph glyph-name="lcaron" unicode="&#x13e;" horiz-adv-x="657" 
d="M30 710h204v-558h401v-152h-605v710zM286 710h146l-62 -192h-117z" />
    <glyph glyph-name="lcommaaccent" unicode="&#x13c;" horiz-adv-x="657" 
d="M30 710h204v-558h401v-152h-605v710zM340 -152h-71v99h172v-99l-84 -78h-92z" />
    <glyph glyph-name="lslash" unicode="&#x142;" horiz-adv-x="707" 
d="M685 152v-152h-605v213l-75 -40v155l75 40v342h204v-233l146 78v-155l-146 -78v-170h401z" />
    <glyph glyph-name="m" unicode="m" horiz-adv-x="1029" 
d="M999 710v-710h-200v525l-187 -525h-186l-196 535v-535h-200v710h315l176 -488l171 488h307z" />
    <glyph glyph-name="n" unicode="n" horiz-adv-x="852" 
d="M822 710v-710h-244l-348 495v-495h-200v710h249l343 -488v488h200z" />
    <glyph glyph-name="nacute" unicode="&#x144;" horiz-adv-x="852" 
d="M822 710v-710h-244l-348 495v-495h-200v710h249l343 -488v488h200zM399 892h222l-122 -142h-168z" />
    <glyph glyph-name="ncaron" unicode="&#x148;" horiz-adv-x="852" 
d="M822 710v-710h-244l-348 495v-495h-200v710h249l343 -488v488h200zM651 892l-98 -142h-180h-74l-98 142h146l79 -85l79 85h146z" />
    <glyph glyph-name="ncommaaccent" unicode="&#x146;" horiz-adv-x="852" 
d="M822 710v-710h-244l-348 495v-495h-200v710h249l343 -488v488h200zM413 -152h-71v99h172v-99l-84 -78h-92z" />
    <glyph glyph-name="eng" unicode="&#x14b;" horiz-adv-x="852" 
d="M822 710v-649v-37q0 -75 -22 -118t-68 -61.5t-122 -18.5q-29 0 -57 2v140h11q33 0 45 10.5t14 43.5l-393 485v-507h-200v710h249l343 -424v424h200z" />
    <glyph glyph-name="ntilde" unicode="&#xf1;" horiz-adv-x="852" 
d="M822 710v-710h-244l-348 495v-495h-200v710h249l343 -488v488h200zM259 849q34 33 87 33q31 0 53 -6t47 -17q18 -8 30.5 -11.5t26.5 -3.5q37 0 39 38h85q0 -69 -31.5 -101.5t-84.5 -32.5q-27 0 -47.5 5.5t-50.5 16.5q-19 8 -32 12t-27 4q-40 0 -43 -38h-86q0 68 34 101z
" />
    <glyph glyph-name="o" unicode="o" horiz-adv-x="884" 
d="M213.5 29q-94.5 47 -143 131t-48.5 195t48.5 195t143 131t228.5 47t228.5 -47t143 -131t48.5 -195t-48.5 -195t-143 -131t-228.5 -47t-228.5 47zM595.5 190q52.5 56 52.5 146v38q0 90 -52.5 146t-153.5 56t-153.5 -56t-52.5 -146v-38q0 -90 52.5 -146t153.5 -56t153.5 56
z" />
    <glyph glyph-name="oacute" unicode="&#xf3;" horiz-adv-x="884" 
d="M213.5 29q-94.5 47 -143 131t-48.5 195t48.5 195t143 131t228.5 47t228.5 -47t143 -131t48.5 -195t-48.5 -195t-143 -131t-228.5 -47t-228.5 47zM595.5 190q52.5 56 52.5 146v38q0 90 -52.5 146t-153.5 56t-153.5 -56t-52.5 -146v-38q0 -90 52.5 -146t153.5 -56t153.5 56
zM415 892h222l-122 -142h-168z" />
    <glyph glyph-name="ocircumflex" unicode="&#xf4;" horiz-adv-x="884" 
d="M213.5 29q-94.5 47 -143 131t-48.5 195t48.5 195t143 131t228.5 47t228.5 -47t143 -131t48.5 -195t-48.5 -195t-143 -131t-228.5 -47t-228.5 47zM595.5 190q52.5 56 52.5 146v38q0 90 -52.5 146t-153.5 56t-153.5 -56t-52.5 -146v-38q0 -90 52.5 -146t153.5 -56t153.5 56
zM521 750l-79 85l-79 -85h-146l98 142h180h74l98 -142h-146z" />
    <glyph glyph-name="odieresis" unicode="&#xf6;" horiz-adv-x="884" 
d="M213.5 29q-94.5 47 -143 131t-48.5 195t48.5 195t143 131t228.5 47t228.5 -47t143 -131t48.5 -195t-48.5 -195t-143 -131t-228.5 -47t-228.5 47zM595.5 190q52.5 56 52.5 146v38q0 90 -52.5 146t-153.5 56t-153.5 -56t-52.5 -146v-38q0 -90 52.5 -146t153.5 -56t153.5 56
zM221 892h185v-132h-185v132zM478 892h185v-132h-185v132z" />
    <glyph glyph-name="ograve" unicode="&#xf2;" horiz-adv-x="884" 
d="M213.5 29q-94.5 47 -143 131t-48.5 195t48.5 195t143 131t228.5 47t228.5 -47t143 -131t48.5 -195t-48.5 -195t-143 -131t-228.5 -47t-228.5 47zM595.5 190q52.5 56 52.5 146v38q0 90 -52.5 146t-153.5 56t-153.5 -56t-52.5 -146v-38q0 -90 52.5 -146t153.5 -56t153.5 56
zM369 750l-122 142h222l68 -142h-168z" />
    <glyph glyph-name="ohungarumlaut" unicode="&#x151;" horiz-adv-x="884" 
d="M213.5 29q-94.5 47 -143 131t-48.5 195t48.5 195t143 131t228.5 47t228.5 -47t143 -131t48.5 -195t-48.5 -195t-143 -131t-228.5 -47t-228.5 47zM595.5 190q52.5 56 52.5 146v38q0 90 -52.5 146t-153.5 56t-153.5 -56t-52.5 -146v-38q0 -90 52.5 -146t153.5 -56t153.5 56
zM300 892h222l-122 -142h-168zM550 892h222l-122 -142h-168z" />
    <glyph glyph-name="omacron" unicode="&#x14d;" horiz-adv-x="884" 
d="M213.5 29q-94.5 47 -143 131t-48.5 195t48.5 195t143 131t228.5 47t228.5 -47t143 -131t48.5 -195t-48.5 -195t-143 -131t-228.5 -47t-228.5 47zM595.5 190q52.5 56 52.5 146v38q0 90 -52.5 146t-153.5 56t-153.5 -56t-52.5 -146v-38q0 -90 52.5 -146t153.5 -56t153.5 56
zM253 880h378v-120h-378v120z" />
    <glyph glyph-name="oslash" unicode="&#xf8;" horiz-adv-x="884" 
d="M766 612q48 -48 72 -113.5t24 -143.5q0 -111 -48.5 -195t-143 -131t-228.5 -47q-133 0 -227 46l-44 -46h-166l111 118q-46 48 -70 113t-24 142q0 111 48.5 195t143 131t228.5 47q129 0 224 -45l43 45h167zM253 245l293 310q-43 21 -104 21q-101 0 -153.5 -56t-52.5 -146
v-38q0 -49 17 -91zM630 468l-294 -312q46 -22 106 -22q101 0 153.5 56t52.5 146v38q0 52 -18 94z" />
    <glyph glyph-name="otilde" unicode="&#xf5;" horiz-adv-x="884" 
d="M213.5 29q-94.5 47 -143 131t-48.5 195t48.5 195t143 131t228.5 47t228.5 -47t143 -131t48.5 -195t-48.5 -195t-143 -131t-228.5 -47t-228.5 47zM595.5 190q52.5 56 52.5 146v38q0 90 -52.5 146t-153.5 56t-153.5 -56t-52.5 -146v-38q0 -90 52.5 -146t153.5 -56t153.5 56
zM275 849q34 33 87 33q31 0 53 -6t47 -17q18 -8 30.5 -11.5t26.5 -3.5q37 0 39 38h85q0 -69 -31.5 -101.5t-84.5 -32.5q-27 0 -47.5 5.5t-50.5 16.5q-19 8 -32 12t-27 4q-40 0 -43 -38h-86q0 68 34 101z" />
    <glyph glyph-name="oe" unicode="&#x153;" horiz-adv-x="1324" 
d="M852 558v-126h423v-152h-423v-128h449v-152h-653v39q-86 -55 -216 -55q-131 0 -223.5 47t-139.5 131t-47 195t47 195t139.5 131t223.5 47q130 0 216 -55v35h653v-152h-449zM595.5 192q52.5 56 52.5 146v38q0 90 -52.5 146t-153.5 56t-153.5 -56t-52.5 -146v-38
q0 -90 52.5 -146t153.5 -56t153.5 56z" />
    <glyph glyph-name="p" unicode="p" horiz-adv-x="806" 
d="M666 679q58 -31 89 -85t31 -121t-31 -121t-89 -85t-136 -31h-296v-236h-204v710h204h296q78 0 136 -31zM581 479q0 38 -27 58.5t-75 20.5h-245v-170h245q47 0 74.5 20.5t27.5 58.5v12z" />
    <glyph glyph-name="thorn" unicode="&#xfe;" horiz-adv-x="786" 
d="M646 575q58 -31 89 -85t31 -121t-31 -121t-89 -85t-136 -31h-276v-132h-204v710h204v-104h276q78 0 136 -31zM561 374q0 39 -27 59.5t-75 20.5h-225v-170h225q48 0 75 20.5t27 59.5v10z" />
    <glyph glyph-name="q" unicode="q" horiz-adv-x="884" 
d="M822.5 176q-39.5 -79 -116.5 -127l75 -100h-215l-30 40q-41 -7 -94 -7q-134 0 -228.5 47t-143 131t-48.5 195t48.5 195t143 131t228.5 47t228.5 -47t143 -131t48.5 -195q0 -100 -39.5 -179zM285 194q49 -56 143 -60l-78 105h215l34 -45q49 53 49 142v38q0 90 -52.5 146
t-153.5 56t-153.5 -56t-52.5 -146v-38q0 -86 49 -142z" />
    <glyph glyph-name="r" unicode="r" horiz-adv-x="799" 
d="M415 236h-181v-236h-204v710h204h286q78 0 136 -31t89 -85t31 -121q0 -78 -41 -134t-116 -79l188 -260h-231zM234 388h235q47 0 74.5 20.5t27.5 58.5v12q0 38 -27 58.5t-75 20.5h-235v-170z" />
    <glyph glyph-name="racute" unicode="&#x155;" horiz-adv-x="799" 
d="M415 236h-181v-236h-204v710h204h286q78 0 136 -31t89 -85t31 -121q0 -78 -41 -134t-116 -79l188 -260h-231zM234 388h235q47 0 74.5 20.5t27.5 58.5v12q0 38 -27 58.5t-75 20.5h-235v-170zM370 892h222l-122 -142h-168z" />
    <glyph glyph-name="rcaron" unicode="&#x159;" horiz-adv-x="799" 
d="M415 236h-181v-236h-204v710h204h286q78 0 136 -31t89 -85t31 -121q0 -78 -41 -134t-116 -79l188 -260h-231zM234 388h235q47 0 74.5 20.5t27.5 58.5v12q0 38 -27 58.5t-75 20.5h-235v-170zM622 892l-98 -142h-180h-74l-98 142h146l79 -85l79 85h146z" />
    <glyph glyph-name="rcommaaccent" unicode="&#x157;" horiz-adv-x="799" 
d="M415 236h-181v-236h-204v710h204h286q78 0 136 -31t89 -85t31 -121q0 -78 -41 -134t-116 -79l188 -260h-231zM234 388h235q47 0 74.5 20.5t27.5 58.5v12q0 38 -27 58.5t-75 20.5h-235v-170zM384 -152h-71v99h172v-99l-84 -78h-92z" />
    <glyph glyph-name="s" unicode="s" horiz-adv-x="797" 
d="M109 53q-95 69 -95 189h212q2 -51 49.5 -83t138.5 -32q159 0 159 71v10q0 23 -23.5 36.5t-70.5 21.5l-193 32q-94 16 -149 39t-81 61.5t-26 100.5q0 106 85.5 167t265.5 61q128 0 211.5 -32.5t123 -86t40.5 -118.5h-213q-4 40 -48 67t-125 27q-63 0 -99 -16.5t-36 -45.5
v-10q0 -22 23.5 -33.5t74.5 -19.5l180 -30q139 -23 202 -70.5t63 -139.5q0 -235 -372 -235q-202 0 -297 69z" />
    <glyph glyph-name="sacute" unicode="&#x15b;" horiz-adv-x="797" 
d="M109 53q-95 69 -95 189h212q2 -51 49.5 -83t138.5 -32q159 0 159 71v10q0 23 -23.5 36.5t-70.5 21.5l-193 32q-94 16 -149 39t-81 61.5t-26 100.5q0 106 85.5 167t265.5 61q128 0 211.5 -32.5t123 -86t40.5 -118.5h-213q-4 40 -48 67t-125 27q-63 0 -99 -16.5t-36 -45.5
v-10q0 -22 23.5 -33.5t74.5 -19.5l180 -30q139 -23 202 -70.5t63 -139.5q0 -235 -372 -235q-202 0 -297 69zM371 892h222l-122 -142h-168z" />
    <glyph glyph-name="scaron" unicode="&#x161;" horiz-adv-x="797" 
d="M109 53q-95 69 -95 189h212q2 -51 49.5 -83t138.5 -32q159 0 159 71v10q0 23 -23.5 36.5t-70.5 21.5l-193 32q-94 16 -149 39t-81 61.5t-26 100.5q0 106 85.5 167t265.5 61q128 0 211.5 -32.5t123 -86t40.5 -118.5h-213q-4 40 -48 67t-125 27q-63 0 -99 -16.5t-36 -45.5
v-10q0 -22 23.5 -33.5t74.5 -19.5l180 -30q139 -23 202 -70.5t63 -139.5q0 -235 -372 -235q-202 0 -297 69zM623 892l-98 -142h-180h-74l-98 142h146l79 -85l79 85h146z" />
    <glyph glyph-name="scedilla" unicode="&#x15f;" horiz-adv-x="797" 
d="M424 -16l-11 -19q55 -2 85 -22t30 -59q0 -49 -37 -70.5t-93 -21.5q-33 0 -69 8t-61 23l32 63q20 -12 45 -19t50 -7q22 0 32.5 5t10.5 17t-12 17t-38 5h-30l-40 30l30 52q-172 10 -253 77.5t-81 178.5h212q2 -51 49.5 -83t138.5 -32q159 0 159 71v10q0 23 -23.5 36.5
t-70.5 21.5l-193 32q-94 16 -149 39t-81 61.5t-26 100.5q0 106 85.5 167t265.5 61q128 0 211.5 -32.5t123 -86t40.5 -118.5h-213q-4 40 -48 67t-125 27q-63 0 -99 -16.5t-36 -45.5v-10q0 -22 23.5 -33.5t74.5 -19.5l180 -30q139 -23 202 -70.5t63 -139.5q0 -229 -354 -235z
" />
    <glyph glyph-name="scommaaccent" unicode="&#x219;" horiz-adv-x="797" 
d="M109 53q-95 69 -95 189h212q2 -51 49.5 -83t138.5 -32q159 0 159 71v10q0 23 -23.5 36.5t-70.5 21.5l-193 32q-94 16 -149 39t-81 61.5t-26 100.5q0 106 85.5 167t265.5 61q128 0 211.5 -32.5t123 -86t40.5 -118.5h-213q-4 40 -48 67t-125 27q-63 0 -99 -16.5t-36 -45.5
v-10q0 -22 23.5 -33.5t74.5 -19.5l180 -30q139 -23 202 -70.5t63 -139.5q0 -235 -372 -235q-202 0 -297 69zM385 -152h-71v99h172v-99l-84 -78h-92z" />
    <glyph glyph-name="germandbls" unicode="&#xdf;" horiz-adv-x="1594" 
d="M109 53q-95 69 -95 189h212q2 -51 49.5 -83t138.5 -32q159 0 159 71v10q0 23 -23.5 36.5t-70.5 21.5l-193 32q-94 16 -149 39t-81 61.5t-26 100.5q0 106 85.5 167t265.5 61q128 0 211.5 -32.5t123 -86t40.5 -118.5h-213q-4 40 -48 67t-125 27q-63 0 -99 -16.5t-36 -45.5
v-10q0 -22 23.5 -33.5t74.5 -19.5l180 -30q139 -23 202 -70.5t63 -139.5q0 -235 -372 -235q-202 0 -297 69zM906 53q-95 69 -95 189h212q2 -51 49.5 -83t138.5 -32q159 0 159 71v10q0 23 -23.5 36.5t-70.5 21.5l-193 32q-94 16 -149 39t-81 61.5t-26 100.5q0 106 85.5 167
t265.5 61q128 0 211.5 -32.5t123 -86t40.5 -118.5h-213q-4 40 -48 67t-125 27q-63 0 -99 -16.5t-36 -45.5v-10q0 -22 23.5 -33.5t74.5 -19.5l180 -30q139 -23 202 -70.5t63 -139.5q0 -235 -372 -235q-202 0 -297 69z" />
    <glyph glyph-name="t" unicode="t" horiz-adv-x="773" 
d="M284 558h-262v152h729v-152h-263v-558h-204v558z" />
    <glyph glyph-name="tbar" unicode="&#x167;" horiz-adv-x="773" 
d="M488 558v-147h99v-112h-99v-299h-204v299h-100v112h100v147h-262v152h729v-152h-263z" />
    <glyph glyph-name="tcaron" unicode="&#x165;" horiz-adv-x="773" 
d="M284 558h-262v152h729v-152h-263v-558h-204v558zM611 892l-98 -142h-180h-74l-98 142h146l79 -85l79 85h146z" />
    <glyph glyph-name="uni0163" unicode="&#x163;" horiz-adv-x="773" 
d="M422 0l-21 -35q55 -2 85 -22t30 -59q0 -49 -37 -70.5t-93 -21.5q-33 0 -69 8t-61 23l32 63q20 -12 45 -19t50 -7q22 0 32.5 5t10.5 17t-12 17t-38 5h-30l-40 30l38 66h-60v558h-262v152h729v-152h-263v-558h-66z" />
    <glyph glyph-name="uni021B" unicode="&#x21b;" horiz-adv-x="773" 
d="M284 558h-262v152h729v-152h-263v-558h-204v558zM373 -152h-71v99h172v-99l-84 -78h-92z" />
    <glyph glyph-name="u" unicode="u" horiz-adv-x="791" 
d="M127.5 53.5q-97.5 71.5 -97.5 207.5v449h204v-434q0 -61 33.5 -100t111.5 -39h35q77 0 110 39t33 100v434h204v-449q0 -136 -98 -207.5t-267 -71.5q-171 0 -268.5 71.5z" />
    <glyph glyph-name="uacute" unicode="&#xfa;" horiz-adv-x="791" 
d="M127.5 53.5q-97.5 71.5 -97.5 207.5v449h204v-434q0 -61 33.5 -100t111.5 -39h35q77 0 110 39t33 100v434h204v-449q0 -136 -98 -207.5t-267 -71.5q-171 0 -268.5 71.5zM369 892h222l-122 -142h-168z" />
    <glyph glyph-name="ucircumflex" unicode="&#xfb;" horiz-adv-x="791" 
d="M127.5 53.5q-97.5 71.5 -97.5 207.5v449h204v-434q0 -61 33.5 -100t111.5 -39h35q77 0 110 39t33 100v434h204v-449q0 -136 -98 -207.5t-267 -71.5q-171 0 -268.5 71.5zM475 750l-79 85l-79 -85h-146l98 142h180h74l98 -142h-146z" />
    <glyph glyph-name="udieresis" unicode="&#xfc;" horiz-adv-x="791" 
d="M127.5 53.5q-97.5 71.5 -97.5 207.5v449h204v-434q0 -61 33.5 -100t111.5 -39h35q77 0 110 39t33 100v434h204v-449q0 -136 -98 -207.5t-267 -71.5q-171 0 -268.5 71.5zM175 892h185v-132h-185v132zM432 892h185v-132h-185v132z" />
    <glyph glyph-name="ugrave" unicode="&#xf9;" horiz-adv-x="791" 
d="M127.5 53.5q-97.5 71.5 -97.5 207.5v449h204v-434q0 -61 33.5 -100t111.5 -39h35q77 0 110 39t33 100v434h204v-449q0 -136 -98 -207.5t-267 -71.5q-171 0 -268.5 71.5zM323 750l-122 142h222l68 -142h-168z" />
    <glyph glyph-name="uhungarumlaut" unicode="&#x171;" horiz-adv-x="791" 
d="M127.5 53.5q-97.5 71.5 -97.5 207.5v449h204v-434q0 -61 33.5 -100t111.5 -39h35q77 0 110 39t33 100v434h204v-449q0 -136 -98 -207.5t-267 -71.5q-171 0 -268.5 71.5zM254 892h222l-122 -142h-168zM504 892h222l-122 -142h-168z" />
    <glyph glyph-name="umacron" unicode="&#x16b;" horiz-adv-x="791" 
d="M127.5 53.5q-97.5 71.5 -97.5 207.5v449h204v-434q0 -61 33.5 -100t111.5 -39h35q77 0 110 39t33 100v434h204v-449q0 -136 -98 -207.5t-267 -71.5q-171 0 -268.5 71.5zM207 880h378v-120h-378v120z" />
    <glyph glyph-name="uogonek" unicode="&#x173;" horiz-adv-x="791" 
d="M761 710v-449q0 -108 -59.5 -172.5t-176.5 -97.5q-37 -10 -57 -24t-20 -28v-6q0 -13 14.5 -19t38.5 -6h23v-88q-12 -4 -32 -6t-36 -2q-78 0 -114.5 25.5t-36.5 68.5q0 46 39 78q-148 11 -231 81.5t-83 195.5v449h204v-434q0 -61 33.5 -100t111.5 -39h35q77 0 110 39
t33 100v434h204z" />
    <glyph glyph-name="uring" unicode="&#x16f;" horiz-adv-x="791" 
d="M761 710v-449q0 -136 -98 -207.5t-267 -71.5q-171 0 -268.5 71.5t-97.5 207.5v449h183q-4 16 -4 37q0 71 52.5 114.5t134.5 43.5q53 0 95.5 -20t67 -55.5t24.5 -82.5q0 -21 -4 -37h182zM310 741q0 -33 25.5 -51t60.5 -18t60.5 18t25.5 51v12q0 33 -25.5 51t-60.5 18
t-60.5 -18t-25.5 -51v-12zM524 176q33 39 33 100v386q-24 -35 -66.5 -54t-94.5 -19q-53 0 -95.5 19.5t-66.5 54.5v-387q0 -61 33.5 -100t111.5 -39h35q77 0 110 39z" />
    <glyph glyph-name="v" unicode="v" horiz-adv-x="848" 
d="M851 710l-282 -710h-289l-283 710h210l220 -563l221 563h203z" />
    <glyph glyph-name="w" unicode="w" horiz-adv-x="1185" 
d="M1179 710l-203 -710h-247l-140 471l-140 -471h-241l-202 710h207l131 -482l146 482h206l147 -487l133 487h203z" />
    <glyph glyph-name="wacute" unicode="&#x1e83;" horiz-adv-x="1185" 
d="M1179 710l-203 -710h-247l-140 471l-140 -471h-241l-202 710h207l131 -482l146 482h206l147 -487l133 487h203zM566 892h222l-122 -142h-168z" />
    <glyph glyph-name="wcircumflex" unicode="&#x175;" horiz-adv-x="1185" 
d="M1179 710l-203 -710h-247l-140 471l-140 -471h-241l-202 710h207l131 -482l146 482h206l147 -487l133 487h203zM672 750l-79 85l-79 -85h-146l98 142h180h74l98 -142h-146z" />
    <glyph glyph-name="wdieresis" unicode="&#x1e85;" horiz-adv-x="1185" 
d="M1179 710l-203 -710h-247l-140 471l-140 -471h-241l-202 710h207l131 -482l146 482h206l147 -487l133 487h203zM372 892h185v-132h-185v132zM629 892h185v-132h-185v132z" />
    <glyph glyph-name="wgrave" unicode="&#x1e81;" horiz-adv-x="1185" 
d="M1179 710l-203 -710h-247l-140 471l-140 -471h-241l-202 710h207l131 -482l146 482h206l147 -487l133 487h203zM520 750l-122 142h222l68 -142h-168z" />
    <glyph glyph-name="x" unicode="x" horiz-adv-x="808" 
d="M579 0l-175 246l-175 -246h-225l268 370l-257 340h230l159 -219l159 219h230l-257 -340l268 -370h-225z" />
    <glyph glyph-name="y" unicode="y" horiz-adv-x="828" 
d="M516 262v-262h-204v264l-314 446h225l194 -276l194 276h219z" />
    <glyph glyph-name="yacute" unicode="&#xfd;" horiz-adv-x="828" 
d="M516 262v-262h-204v264l-314 446h225l194 -276l194 276h219zM387 892h222l-122 -142h-168z" />
    <glyph glyph-name="ycircumflex" unicode="&#x177;" horiz-adv-x="828" 
d="M516 262v-262h-204v264l-314 446h225l194 -276l194 276h219zM493 750l-79 85l-79 -85h-146l98 142h180h74l98 -142h-146z" />
    <glyph glyph-name="ydieresis" unicode="&#xff;" horiz-adv-x="828" 
d="M516 262v-262h-204v264l-314 446h225l194 -276l194 276h219zM193 892h185v-132h-185v132zM450 892h185v-132h-185v132z" />
    <glyph glyph-name="ygrave" unicode="&#x1ef3;" horiz-adv-x="828" 
d="M516 262v-262h-204v264l-314 446h225l194 -276l194 276h219zM341 750l-122 142h222l68 -142h-168z" />
    <glyph glyph-name="z" unicode="z" horiz-adv-x="767" 
d="M742 558l-456 -406h456v-152h-717v161l449 397h-443v152h711v-152z" />
    <glyph glyph-name="zacute" unicode="&#x17a;" horiz-adv-x="767" 
d="M742 558l-456 -406h456v-152h-717v161l449 397h-443v152h711v-152zM336 892h222l-122 -142h-168z" />
    <glyph glyph-name="zcaron" unicode="&#x17e;" horiz-adv-x="767" 
d="M742 558l-456 -406h456v-152h-717v161l449 397h-443v152h711v-152zM588 892l-98 -142h-180h-74l-98 142h146l79 -85l79 85h146z" />
    <glyph glyph-name="zdotaccent" unicode="&#x17c;" horiz-adv-x="767" 
d="M742 558l-456 -406h456v-152h-717v161l449 397h-443v152h711v-152zM266 892h194v-132h-194v132z" />
    <glyph glyph-name="uni03BC" unicode="&#x3bc;" horiz-adv-x="678" 
d="M648 544v-544h-184v69q-21 -39 -62.5 -63t-100.5 -24q-44 0 -77 10v-164h-194v716h194v-302q0 -58 30 -83t85 -25q56 0 85.5 24.5t29.5 83.5v302h194z" />
    <glyph glyph-name="pi" unicode="&#x3c0;" horiz-adv-x="762" 
d="M737 410h-70v-410h-194v410h-184v-410h-194v410h-70v134h712v-134z" />
    <glyph glyph-name="zero" unicode="0" horiz-adv-x="794" 
d="M193.5 29q-84.5 47 -128 131t-43.5 195t43.5 195t128 131t203.5 47t203.5 -47t128 -131t43.5 -195t-43.5 -195t-128 -131t-203.5 -47t-203.5 47zM521.5 186q40.5 56 40.5 150v38q0 94 -40.5 150t-124.5 56t-124.5 -56t-40.5 -150v-38q0 -94 40.5 -150t124.5 -56t124.5 56
z" />
    <glyph glyph-name="one" unicode="1" horiz-adv-x="467" 
d="M407 710v-710h-198v498l-189 -113v183l209 142h178z" />
    <glyph glyph-name="two" unicode="2" horiz-adv-x="748" 
d="M244 152h480v-152h-700v101q0 30 2.5 45.5t10.5 29.5q25 47 87 91t157 82l115 46q70 28 95.5 46.5t25.5 49.5v9q0 35 -35 57.5t-93 22.5q-68 0 -103.5 -28.5t-41.5 -70.5h-213q4 71 46 126.5t121 88t191 32.5q107 0 183 -30.5t115.5 -83t39.5 -117.5q0 -67 -27.5 -109.5
t-79.5 -71t-152 -68.5l-125 -49q-55 -22 -99 -47z" />
    <glyph glyph-name="three" unicode="3" horiz-adv-x="739" 
d="M719 207q0 -63 -38.5 -114t-116 -81t-188.5 -30q-124 0 -205.5 32.5t-119.5 85t-39 114.5h221q13 -41 47.5 -62.5t98.5 -21.5q60 0 95 20t35 53v8q0 33 -36 52.5t-96 19.5h-112v111v35h109q53 0 84.5 19t31.5 52v8q0 33 -32 52.5t-85 19.5q-60 0 -92.5 -18.5t-44.5 -57.5
h-216q6 57 42.5 107.5t114 83.5t196.5 33q105 0 179 -27.5t111 -75t37 -106.5q0 -108 -113 -149q132 -43 132 -163z" />
    <glyph glyph-name="four" unicode="4" horiz-adv-x="827" 
d="M807 287v-152h-114v-135h-198v135h-472v152l385 423h225h60v-423h114zM495 287v271l-247 -271h247z" />
    <glyph glyph-name="five" unicode="5" horiz-adv-x="757" 
d="M595.5 430.5q71.5 -31.5 106.5 -85.5t35 -123q0 -68 -40.5 -122.5t-119.5 -86t-191 -31.5q-124 0 -205 31.5t-118.5 83.5t-38.5 116h221q13 -41 46.5 -62t97.5 -21q59 0 98.5 24.5t39.5 63.5v8q0 39 -40 63.5t-108 24.5q-88 0 -133 -37h-165h-50l37 433h628v-152h-447
l-12 -131q78 35 180 35q107 0 178.5 -31.5z" />
    <glyph glyph-name="six" unicode="6" horiz-adv-x="774" 
d="M678 398.5q78 -62.5 78 -172.5q0 -74 -41 -129t-119 -85t-187 -30q-188 0 -287.5 93.5t-99.5 263.5q0 184 99.5 286.5t285.5 102.5q99 0 172 -29.5t115.5 -78.5t53.5 -108h-215q-15 29 -48 48.5t-88 19.5q-53 0 -89.5 -23.5t-55 -61t-18.5 -77.5v-11q69 54 208 54
q158 0 236 -62.5zM546 227q0 40 -39 63.5t-108 23.5t-108 -23.5t-39 -63.5v-10q0 -39 40 -63t107 -24t107 24t40 63v10z" />
    <glyph glyph-name="seven" unicode="7" horiz-adv-x="729" 
d="M709 710v-152l-369 -558h-238l374 558h-454v152h687z" />
    <glyph glyph-name="eight" unicode="8" horiz-adv-x="776" 
d="M722.5 311.5q30.5 -42.5 30.5 -97.5q0 -68 -42.5 -120.5t-124.5 -82t-198 -29.5t-198 29.5t-124.5 82t-42.5 120.5q0 55 30.5 97.5t88.5 69.5q-93 47 -93 142q0 61 41.5 107.5t118 72t179.5 25.5t179.5 -25.5t118 -72t41.5 -107.5q0 -95 -93 -142q58 -27 88.5 -69.5z
M259 510q0 -31 35.5 -51t93.5 -20t93.5 20t35.5 51v8q0 32 -32.5 51.5t-96.5 19.5t-96.5 -19.5t-32.5 -51.5v-8zM543 219q0 39 -39 62t-116 23t-116 -23t-39 -62v-10q0 -37 42 -61t113 -24t113 24t42 61v10z" />
    <glyph glyph-name="nine" unicode="9" horiz-adv-x="774" 
d="M652.5 634.5q99.5 -93.5 99.5 -263.5q0 -184 -99.5 -286.5t-285.5 -102.5q-99 0 -172 29.5t-115.5 78.5t-53.5 108h215q15 -29 48 -48.5t88 -19.5q53 0 89.5 23.5t55 61t18.5 77.5v11q-69 -54 -208 -54q-158 0 -236 62.5t-78 172.5q0 74 41 129t119 85t187 30
q188 0 287.5 -93.5zM522 493q0 39 -40 63t-107 24t-107 -24t-40 -63v-10q0 -40 39 -63.5t108 -23.5t108 23.5t39 63.5v10z" />
    <glyph glyph-name="zero.pcnt" horiz-adv-x="468" 
d="M118 358q-51 25 -79.5 70t-28.5 102t28.5 102t79.5 70.5t116 25.5q64 0 115 -25.5t80 -70.5t29 -102t-29 -102t-80 -70t-115 -25q-65 0 -116 25zM299 461q27 22 27 62v15q0 39 -27 61t-66 22t-66 -22t-27 -61v-15q0 -40 27 -62t66 -22t66 22z" />
    <glyph glyph-name="fraction" unicode="&#x2044;" horiz-adv-x="289" 
d="M344 710h155l-554 -710h-155z" />
    <glyph glyph-name="onehalf" unicode="&#xbd;" horiz-adv-x="983" 
d="M268 710v-426h-137v282l-111 -65v126l123 83h125zM632 710h155l-554 -710h-155zM695 104h267v-104h-430v70q0 20 2 30t7 19q15 29 54 55t98 48l58 21q41 15 54.5 24.5t13.5 24.5v4q0 17 -18 28.5t-46 11.5q-62 0 -73 -47h-146q9 67 63 107.5t157 40.5q65 0 112.5 -18.5
t72 -51t24.5 -72.5q0 -42 -16 -67.5t-49.5 -43.5t-98.5 -41l-67 -24q-19 -6 -39 -15z" />
    <glyph glyph-name="onequarter" unicode="&#xbc;" horiz-adv-x="928" 
d="M268 710v-426h-137v282l-111 -65v126l123 83h125zM632 710h155l-554 -710h-155zM923 181v-103h-64v-78h-137v78h-280v103l221 245h155h41v-245h64zM722 181v139l-125 -139h125z" />
    <glyph glyph-name="threequarters" unicode="&#xbe;" horiz-adv-x="1048" 
d="M438 409q0 -38 -23.5 -68.5t-71 -49t-114.5 -18.5q-112 0 -166.5 41t-57.5 101h154q8 -20 24.5 -30.5t47.5 -10.5q28 0 45 9t17 25v3q0 16 -19 26.5t-49 10.5h-64v75v25h62q26 0 42 9t16 25v4q0 18 -15 26t-39 8q-30 0 -45.5 -8.5t-21.5 -27.5h-150q8 56 59.5 96.5
t157.5 40.5q64 0 109 -17.5t68 -46.5t23 -63q0 -62 -66 -87q77 -26 77 -98zM752 710h155l-554 -710h-155zM1043 181v-103h-64v-78h-137v78h-280v103l221 245h155h41v-245h64zM842 181v139l-125 -139h125z" />
    <glyph glyph-name="two.dnom" horiz-adv-x="466" 
d="M178 104h267v-104h-430v70q0 20 2 30t7 19q15 29 54 55t98 48l58 21q41 15 54.5 24.5t13.5 24.5v4q0 17 -18 28.5t-46 11.5q-62 0 -73 -47h-146q9 67 63 107.5t157 40.5q65 0 112.5 -18.5t72 -51t24.5 -72.5q0 -42 -16 -67.5t-49.5 -43.5t-98.5 -41l-67 -24
q-19 -6 -39 -15z" />
    <glyph glyph-name="four.dnom" horiz-adv-x="491" 
d="M486 181v-103h-64v-78h-137v78h-280v103l221 245h155h41v-245h64zM285 181v139l-125 -139h125z" />
    <glyph glyph-name="one.numr" horiz-adv-x="318" 
d="M268 710v-426h-137v282l-111 -65v126l123 83h125z" />
    <glyph glyph-name="two.numr" horiz-adv-x="466" 
d="M178 388h267v-104h-430v70q0 20 2 30t7 19q15 29 54 55t98 48l58 21q41 15 54.5 24.5t13.5 24.5v4q0 17 -18 28.5t-46 11.5q-62 0 -73 -47h-146q9 67 63 107.5t157 40.5q65 0 112.5 -18.5t72 -51t24.5 -72.5q0 -42 -16 -67.5t-49.5 -43.5t-98.5 -41l-67 -24
q-19 -6 -39 -15z" />
    <glyph glyph-name="three.numr" horiz-adv-x="448" 
d="M438 409q0 -38 -23.5 -68.5t-71 -49t-114.5 -18.5q-112 0 -166.5 41t-57.5 101h154q8 -20 24.5 -30.5t47.5 -10.5q28 0 45 9t17 25v3q0 16 -19 26.5t-49 10.5h-64v75v25h62q26 0 42 9t16 25v4q0 18 -15 26t-39 8q-30 0 -45.5 -8.5t-21.5 -27.5h-150q8 56 59.5 96.5
t157.5 40.5q64 0 109 -17.5t68 -46.5t23 -63q0 -62 -66 -87q77 -26 77 -98z" />
    <glyph glyph-name="uni00B9" unicode="&#xb9;" horiz-adv-x="318" 
d="M268 810v-426h-137v282l-111 -65v126l123 83h125z" />
    <glyph glyph-name="uni00B2" unicode="&#xb2;" horiz-adv-x="466" 
d="M178 488h267v-104h-430v70q0 20 2 30t7 19q15 29 54 55t98 48l58 21q41 15 54.5 24.5t13.5 24.5v4q0 17 -18 28.5t-46 11.5q-62 0 -73 -47h-146q9 67 63 107.5t157 40.5q65 0 112.5 -18.5t72 -51t24.5 -72.5q0 -42 -16 -67.5t-49.5 -43.5t-98.5 -41l-67 -24
q-19 -6 -39 -15z" />
    <glyph glyph-name="uni00B3" unicode="&#xb3;" horiz-adv-x="448" 
d="M438 511q0 -38 -23.5 -68.5t-71 -49t-114.5 -18.5q-112 0 -166.5 41t-57.5 101h154q8 -20 24.5 -30.5t47.5 -10.5q28 0 45 9t17 25v3q0 16 -19 26.5t-49 10.5h-64v75v25h62q26 0 42 9t16 25v4q0 18 -15 26t-39 8q-30 0 -45.5 -8.5t-21.5 -27.5h-150q8 56 59.5 96.5
t157.5 40.5q64 0 109 -17.5t68 -46.5t23 -63q0 -62 -66 -87q77 -26 77 -98z" />
    <glyph glyph-name="asterisk" unicode="*" horiz-adv-x="388" 
d="M274 499l78 -93l-73 -60l-85 102l-85 -102l-73 60l78 93l-114 42l32 89l115 -42v122h94v-122l115 42l32 -89z" />
    <glyph glyph-name="backslash" unicode="\" horiz-adv-x="517" 
d="M354 0l-384 710h193l384 -710h-193z" />
    <glyph glyph-name="periodcentered" unicode="&#xb7;" horiz-adv-x="256" 
d="M20 443h216v-184h-216v184z" />
    <glyph glyph-name="bullet" unicode="&#x2022;" horiz-adv-x="528" 
d="M133 111q-58 33 -90.5 89t-32.5 122q0 67 32.5 123t90.5 88.5t131 32.5t131 -33t90.5 -88.5t32.5 -122.5q0 -66 -32.5 -122t-90.5 -89t-131 -33t-131 33z" />
    <glyph glyph-name="colon" unicode=":" horiz-adv-x="256" 
d="M20 534h216v-184h-216v184zM20 184h216v-184h-216v184z" />
    <glyph glyph-name="comma" unicode="," horiz-adv-x="263" 
d="M105 0h-85v184h223v-184l-100 -150h-123z" />
    <glyph glyph-name="ellipsis" unicode="&#x2026;" horiz-adv-x="766" 
d="M20 184h216v-184h-216v184zM275 184h216v-184h-216v184zM530 184h216v-184h-216v184z" />
    <glyph glyph-name="exclam" unicode="!" horiz-adv-x="276" 
d="M36 468v242h204v-242l-30 -226h-144zM30 184h216v-184h-216v184z" />
    <glyph glyph-name="exclamdown" unicode="&#xa1;" horiz-adv-x="276" 
d="M246 526h-216v184h216v-184zM240 242v-242h-204v242l30 226h144z" />
    <glyph glyph-name="numbersign" unicode="#" horiz-adv-x="761" 
d="M626 436l-35 -175h111l-24 -116h-111l-29 -145h-158l29 145h-139l-29 -145h-158l29 145h-112l24 116h112l35 175h-112l24 116h112l32 158h158l-32 -158h139l32 158h158l-32 -158h111l-23 -116h-112zM468 436h-139l-35 -175h139z" />
    <glyph glyph-name="period" unicode="." horiz-adv-x="256" 
d="M20 184h216v-184h-216v184z" />
    <glyph glyph-name="question" unicode="?" horiz-adv-x="702" 
d="M220 272q0 46 22 75t85 58l72 32q39 18 58 29t26.5 22.5t7.5 28.5v8q0 28 -33 45.5t-97 17.5q-72 0 -104.5 -25t-35.5 -63h-211q11 102 91 164.5t255 62.5q176 0 256.5 -57t80.5 -150q0 -50 -15.5 -84.5t-52 -63.5t-105.5 -61l-44 -21q-27 -13 -35.5 -26t-9.5 -29h-211
v37zM218 184h216v-184h-216v184z" />
    <glyph glyph-name="questiondown" unicode="&#xbf;" horiz-adv-x="702" 
d="M484 526h-216v184h216v-184zM482 438q0 -46 -22 -75t-85 -58l-72 -32q-39 -18 -58 -29t-26.5 -22.5t-7.5 -28.5v-8q0 -28 33 -45.5t97 -17.5q72 0 104.5 25t35.5 63h211q-11 -102 -91 -164.5t-255 -62.5q-176 0 -256.5 57t-80.5 150q0 50 15.5 84.5t52 63.5t105.5 61
l44 21q27 13 35.5 26t9.5 29h211v-37z" />
    <glyph glyph-name="quotedbl" unicode="&#x22;" horiz-adv-x="437" 
d="M20 710h178v-317h-178v317zM239 710h178v-317h-178v317z" />
    <glyph glyph-name="quotesingle" unicode="'" horiz-adv-x="218" 
d="M20 710h178v-317h-178v317z" />
    <glyph glyph-name="semicolon" unicode=";" horiz-adv-x="263" 
d="M20 534h216v-184h-216v184zM105 0h-85v184h223v-184l-100 -150h-123z" />
    <glyph glyph-name="slash" unicode="/" horiz-adv-x="517" 
d="M354 710h193l-384 -710h-193z" />
    <glyph glyph-name="underscore" unicode="_" horiz-adv-x="590" 
d="M-10 -78h610v-122h-610v122z" />
    <glyph glyph-name="braceleft" unicode="{" horiz-adv-x="425" 
d="M141 -91q-42 39 -42 129v150q0 41 -19.5 58.5t-59.5 17.5v128q40 0 59.5 17.5t19.5 58.5v150q0 90 42 129t130 39h134v-121h-54q-41 0 -58.5 -18.5t-17.5 -64.5v-130q0 -54 -19.5 -83.5t-74.5 -38.5v-4q55 -9 74.5 -38.5t19.5 -83.5v-130q0 -46 17.5 -64.5t58.5 -18.5h54
v-121h-134q-88 0 -130 39z" />
    <glyph glyph-name="braceright" unicode="}" horiz-adv-x="425" 
d="M20 -130v121h54q41 0 58.5 18.5t17.5 64.5v130q0 54 19.5 83.5t74.5 38.5v4q-55 9 -74.5 38.5t-19.5 83.5v130q0 46 -17.5 64.5t-58.5 18.5h-54v121h134q88 0 130 -39t42 -129v-150q0 -41 19.5 -58.5t59.5 -17.5v-128q-40 0 -59.5 -17.5t-19.5 -58.5v-150q0 -90 -42 -129
t-130 -39h-134z" />
    <glyph glyph-name="bracketleft" unicode="[" horiz-adv-x="366" 
d="M30 786h316v-121h-140v-674h140v-121h-316v916z" />
    <glyph glyph-name="bracketright" unicode="]" horiz-adv-x="366" 
d="M20 -130v121h140v674h-140v121h316v-916h-316z" />
    <glyph glyph-name="parenleft" unicode="(" horiz-adv-x="379" 
d="M70 97.5q-40 108.5 -40 232.5t40 232.5t109 193.5h200q-145 -200 -145 -407v-39q0 -206 145 -406h-200q-69 85 -109 193.5z" />
    <glyph glyph-name="parenright" unicode=")" horiz-adv-x="379" 
d="M0 -96q145 200 145 406v39q0 207 -145 407h200q69 -85 109 -193.5t40 -232.5t-40 -232.5t-109 -193.5h-200z" />
    <glyph glyph-name="emdash" unicode="&#x2014;" horiz-adv-x="1103" 
d="M23 431h1057v-158h-1057v158z" />
    <glyph glyph-name="endash" unicode="&#x2013;" horiz-adv-x="794" 
d="M23 431h748v-158h-748v158z" />
    <glyph glyph-name="hyphen" unicode="-" horiz-adv-x="455" 
d="M23 435h409v-166h-409v166z" />
    <glyph glyph-name="guillemotleft" unicode="&#xab;" horiz-adv-x="678" 
d="M204 75l-194 228l194 228h199l-192 -228l192 -228h-199zM469 75l-194 228l194 228h199l-192 -228l192 -228h-199z" />
    <glyph glyph-name="guillemotright" unicode="&#xbb;" horiz-adv-x="678" 
d="M202 303l-192 228h199l194 -228l-194 -228h-199zM467 303l-192 228h199l194 -228l-194 -228h-199z" />
    <glyph glyph-name="guilsinglleft" unicode="&#x2039;" horiz-adv-x="413" 
d="M204 75l-194 228l194 228h199l-192 -228l192 -228h-199z" />
    <glyph glyph-name="guilsinglright" unicode="&#x203a;" horiz-adv-x="413" 
d="M202 303l-192 228h199l194 -228l-194 -228h-199z" />
    <glyph glyph-name="quotedblbase" unicode="&#x201e;" horiz-adv-x="263" 
d="M243 184v-184l-100 -150h-123l85 150h-85v184h223z" />
    <glyph glyph-name="quotedblleft" unicode="&#x201c;" horiz-adv-x="523" 
d="M158 560h85v-184h-223v184l100 150h123zM418 560h85v-184h-223v184l100 150h123z" />
    <glyph glyph-name="quotedblright" unicode="&#x201d;" horiz-adv-x="523" 
d="M105 526h-85v184h223v-184l-100 -150h-123zM365 526h-85v184h223v-184l-100 -150h-123z" />
    <glyph glyph-name="quoteleft" unicode="&#x2018;" horiz-adv-x="263" 
d="M158 560h85v-184h-223v184l100 150h123z" />
    <glyph glyph-name="quoteright" unicode="&#x2019;" horiz-adv-x="263" 
d="M105 526h-85v184h223v-184l-100 -150h-123z" />
    <glyph glyph-name="quotesinglbase" unicode="&#x201a;" horiz-adv-x="263" 
d="M105 0h-85v184h223v-184l-100 -150h-123z" />
    <glyph glyph-name="uni00A0" unicode="&#xa0;" horiz-adv-x="250" 
 />
    <glyph glyph-name="cent" unicode="&#xa2;" horiz-adv-x="699" 
d="M600 57q-71 -60 -189 -72v-81h-90v79q-95 6 -162.5 44t-102 101t-34.5 144t34.5 144t102 101t162.5 44v65h90v-67q116 -12 187 -70t81 -150h-199q-18 52 -69 73v-280q55 23 71 83h199q-10 -98 -81 -158zM247 170.5q27 -35.5 74 -45.5v294q-47 -9 -74 -44.5t-27 -90.5v-23
q0 -55 27 -90.5z" />
    <glyph glyph-name="dollar" unicode="$" horiz-adv-x="777" 
d="M672.5 50.5q-85.5 -60.5 -244.5 -65.5v-81h-90v82q-165 11 -244.5 80.5t-79.5 175.5h213q2 -40 30 -69.5t81 -41.5v157l-61 10q-91 15 -144.5 39t-78.5 62.5t-25 99.5q0 60 33 109.5t102.5 81.5t173.5 36v74h90v-75q104 -8 173 -43t102 -85.5t33 -106.5h-213
q-3 29 -27.5 53t-67.5 35v-137l73 -12q134 -23 195.5 -70.5t61.5 -139.5q0 -108 -85.5 -168.5zM338 456v129q-49 -3 -77 -19.5t-28 -43.5v-8q0 -22 22.5 -34.5t67.5 -20.5zM555 206q0 46 -87 60l-40 7v-147q59 2 93 20t34 52v8z" />
    <glyph glyph-name="Euro" unicode="&#x20ac;" horiz-adv-x="829" 
d="M819 228q-21 -118 -116.5 -182t-242.5 -64q-150 0 -244 73.5t-121 199.5h-75v82h65v18v23h-65v83h76q28 124 122 195.5t242 71.5q147 0 242.5 -64.5t115.5 -181.5h-211q-16 46 -53.5 72t-93.5 26q-62 0 -100.5 -31.5t-53.5 -87.5h250v-83h-261v-4v-37h261v-82h-252
q15 -59 53.5 -92t102.5 -33q57 0 94.5 26t53.5 72h211z" />
    <glyph glyph-name="sterling" unicode="&#xa3;" horiz-adv-x="765" 
d="M268 153h474v-153h-692v140q36 9 60 33.5t24 57.5q0 23 -6 42h-108v114h53q-23 50 -23 103q0 66 39.5 120t116 85.5t182.5 31.5q115 0 192.5 -32.5t117.5 -85.5t47 -117h-215q-9 35 -43.5 61.5t-103.5 26.5q-56 0 -91 -27t-35 -66v-16q0 -24 6 -42.5t18 -41.5h230v-114
h-192q1 -6 1 -20q0 -60 -52 -100z" />
    <glyph glyph-name="yen" unicode="&#xa5;" horiz-adv-x="802" 
d="M580 396h139v-83h-196l-26 -39v-2h222v-82h-222v-190h-194v190h-220v82h220v11l-21 30h-199v83h143l-216 314h216l179 -262l179 262h208z" />
    <glyph glyph-name="approxequal" unicode="&#x2248;" horiz-adv-x="620" 
d="M10 443q45 44 89 63t94 19q29 0 58.5 -7.5t71.5 -22.5q37 -13 62.5 -20t48.5 -7q30 0 58 10t59 39l59 -107q-49 -48 -88 -64t-89 -16q-26 0 -52 7t-68 21q-41 14 -68.5 21t-54.5 7q-31 0 -60 -12.5t-60 -38.5zM10 229q45 44 89 63t94 19q29 0 58.5 -7.5t71.5 -22.5
q37 -13 62.5 -20t48.5 -7q30 0 58 10t59 39l59 -107q-49 -48 -88 -64t-89 -16q-26 0 -52 7t-68 21q-41 14 -68.5 21t-54.5 7q-31 0 -60 -12.5t-60 -38.5z" />
    <glyph glyph-name="asciitilde" unicode="~" horiz-adv-x="600" 
d="M364 265.5q-32 8.5 -79 24.5q-34 12 -52 17.5t-35 5.5q-29 0 -43.5 -13.5t-17.5 -34.5h-127q1 80 46.5 124.5t113.5 44.5q38 0 69 -8t73 -24q31 -12 51.5 -18t40.5 -6q50 0 59 48h127q-1 -80 -46 -124.5t-112 -44.5q-36 0 -68 8.5z" />
    <glyph glyph-name="divide" unicode="&#xf7;" horiz-adv-x="628" 
d="M14 401h600v-158h-600v158zM207 625h216v-184h-216v184zM207 203h216v-184h-216v184z" />
    <glyph glyph-name="equal" unicode="=" horiz-adv-x="628" 
d="M14 286h600v-158h-600v158zM14 516h600v-158h-600v158z" />
    <glyph glyph-name="greater" unicode="&#x3e;" horiz-adv-x="608" 
d="M14 207l355 103l-355 103v171l580 -205v-138l-580 -205v171z" />
    <glyph glyph-name="less" unicode="&#x3c;" horiz-adv-x="608" 
d="M14 241v138l580 205v-171l-355 -103l355 -103v-171z" />
    <glyph glyph-name="minus" unicode="&#x2212;" horiz-adv-x="628" 
d="M14 401h600v-158h-600v158z" />
    <glyph glyph-name="multiply" unicode="&#xd7;" horiz-adv-x="660" 
d="M442 322l186 -186l-112 -112l-186 186l-186 -186l-112 112l186 186l-186 186l112 112l186 -186l186 186l112 -112z" />
    <glyph glyph-name="notequal" unicode="&#x2260;" horiz-adv-x="628" 
d="M420 358l-47 -72h241v-158h-344l-47 -72h-133l47 72h-123v158h226l47 72h-273v158h376l47 72h133l-47 -72h91v-158h-194z" />
    <glyph glyph-name="percent" unicode="%" horiz-adv-x="974" 
d="M688 710h155l-554 -710h-155zM624 6q-51 25 -79.5 70t-28.5 102t28.5 102t79.5 70.5t116 25.5q64 0 115 -25.5t80 -70.5t29 -102t-29 -102t-80 -70t-115 -25q-65 0 -116 25zM805 109q27 22 27 62v15q0 39 -27 61t-66 22t-66 -22t-27 -61v-15q0 -40 27 -62t66 -22t66 22z
M118 358q-51 25 -79.5 70t-28.5 102t28.5 102t79.5 70.5t116 25.5q64 0 115 -25.5t80 -70.5t29 -102t-29 -102t-80 -70t-115 -25q-65 0 -116 25zM299 461q27 22 27 62v15q0 39 -27 61t-66 22t-66 -22t-27 -61v-15q0 -40 27 -62t66 -22t66 22z" />
    <glyph glyph-name="perthousand" unicode="&#x2030;" horiz-adv-x="1450" 
d="M688 710h155l-554 -710h-155zM624 6q-51 25 -79.5 70t-28.5 102t28.5 102t79.5 70.5t116 25.5q64 0 115 -25.5t80 -70.5t29 -102t-29 -102t-80 -70t-115 -25q-65 0 -116 25zM805 109q27 22 27 62v15q0 39 -27 61t-66 22t-66 -22t-27 -61v-15q0 -40 27 -62t66 -22t66 22z
M118 358q-51 25 -79.5 70t-28.5 102t28.5 102t79.5 70.5t116 25.5q64 0 115 -25.5t80 -70.5t29 -102t-29 -102t-80 -70t-115 -25q-65 0 -116 25zM299 461q27 22 27 62v15q0 39 -27 61t-66 22t-66 -22t-27 -61v-15q0 -40 27 -62t66 -22t66 22zM1100 6q-51 25 -79.5 70
t-28.5 102t28.5 102t79.5 70.5t116 25.5q64 0 115 -25.5t80 -70.5t29 -102t-29 -102t-80 -70t-115 -25q-65 0 -116 25zM1281 109q27 22 27 62v15q0 39 -27 61t-66 22t-66 -22t-27 -61v-15q0 -40 27 -62t66 -22t66 22z" />
    <glyph glyph-name="plus" unicode="+" horiz-adv-x="628" 
d="M614 243h-215v-221h-170v221h-215v158h215v221h170v-221h215v-158z" />
    <glyph glyph-name="plusminus" unicode="&#xb1;" horiz-adv-x="628" 
d="M614 539v-158h-215v-171h-170v171h-215v158h215v171h170v-171h215zM14 158h600v-158h-600v158z" />
    <glyph glyph-name="bar" unicode="|" horiz-adv-x="245" 
d="M30 800h185v-940h-185v940z" />
    <glyph glyph-name="at" unicode="@" horiz-adv-x="1062" 
d="M801 668.5q114 -49.5 176.5 -138.5t62.5 -205q0 -81 -31.5 -146.5t-90.5 -103t-137 -37.5q-77 0 -119 24.5t-57 63.5q-23 -40 -62 -64t-90 -24q-92 0 -140.5 55t-48.5 137q0 77 28.5 143t83 105.5t126.5 39.5q47 0 76.5 -16.5t42.5 -42.5l10 47h155l-46 -213
q-10 -44 -10 -77q0 -77 59 -77q28 0 52 20t38 57t14 86v48q0 72 -44 127.5t-125 86.5t-188 31q-108 0 -189 -39.5t-124 -107.5t-43 -151v-48q0 -79 43.5 -147.5t124.5 -109.5t190 -41h160v-123h-160q-153 0 -270.5 59.5t-181.5 161t-64 224.5q0 127 63.5 228.5t180.5 159
t270 57.5q151 0 265 -49.5zM542 188q23 25 35 63.5t12 75.5q0 28 -14 44t-39 16q-47 0 -75 -47t-28 -109q0 -27 13.5 -47.5t40.5 -20.5q32 0 55 25z" />
    <glyph glyph-name="ampersand" unicode="&#x26;" horiz-adv-x="900" 
d="M673 0l-39 31q-115 -48 -256 -48q-180 0 -271.5 55.5t-91.5 158.5q0 78 45.5 126t130.5 77q-33 36 -49.5 70t-16.5 72q0 49 27 91t87 68.5t154 26.5q91 0 153.5 -25t93 -67t30.5 -93q0 -132 -177 -185l150 -123q35 54 39 114h191q-4 -132 -96 -224l153 -125h-257z
M318 538q0 -18 17 -40t48 -50q110 31 110 90v7q0 26 -25 43t-65 17q-39 0 -62 -16t-23 -44v-7zM505 136l-191 154l-29 24q-74 -33 -74 -91v-8q0 -25 21 -46.5t63.5 -35t104.5 -13.5q55 0 105 16z" />
    <glyph glyph-name="paragraph" unicode="&#xb6;" horiz-adv-x="738" 
d="M346 250h-97q-67 0 -119 29.5t-80 82t-28 119.5t28 119t79.5 81t119.5 29h239v-810h-142v350zM566 710h142v-810h-142v810z" />
    <glyph glyph-name="copyright" unicode="&#xa9;" horiz-adv-x="808" 
d="M206.5 33.5q-86.5 46.5 -135.5 130t-49 191.5t49 191.5t135.5 130t197.5 46.5t197.5 -46.5t135.5 -130t49 -191.5t-48.5 -191.5t-135.5 -130t-198 -46.5t-197.5 46.5zM562 94q70 38 109 106t39 155t-39.5 155t-109 106t-157.5 38t-158 -38t-109.5 -106t-39.5 -155
t39.5 -155t109.5 -106t158 -38t158 38zM292 166q-50 28 -77.5 77.5t-27.5 111.5t27.5 111.5t77.5 77.5t115 28q75 0 134 -36t69 -107h-105q-11 26 -35.5 42.5t-63.5 16.5q-53 0 -84 -35t-31 -98q0 -62 31.5 -97.5t83.5 -35.5q42 0 63.5 17.5t35.5 50.5h105q-11 -76 -68 -114
t-135 -38q-65 0 -115 28z" />
    <glyph glyph-name="registered" unicode="&#xae;" horiz-adv-x="462" 
d="M343.5 694.5q50.5 -28.5 79.5 -78.5t29 -112t-29 -112t-79.5 -78.5t-112.5 -28.5t-112.5 28.5t-79.5 78.5t-29 112t29 112t79.5 78.5t112.5 28.5t112.5 -28.5zM318.5 353.5q38.5 22.5 59.5 61.5t21 89t-21 89t-59.5 61.5t-87.5 22.5t-87.5 -22.5t-59.5 -61.5t-21 -89
t21 -89t59.5 -61.5t87.5 -22.5t87.5 22.5zM325 505.5q-12 -17.5 -33 -24.5l55 -80h-69l-48 73h-31v-73h-61v217h61h62q35 0 55.5 -21t20.5 -51q0 -23 -12 -40.5zM199 519h47q14 0 22.5 7t8.5 19v3q0 12 -8.5 18.5t-22.5 6.5h-47v-54z" />
    <glyph glyph-name="section" unicode="&#xa7;" horiz-adv-x="711" 
d="M592 147q31 -22 45.5 -49t14.5 -64q0 -83 -71.5 -134t-217.5 -51q-105 0 -173.5 26t-100.5 69.5t-32 95.5h196q2 -27 33.5 -47t88.5 -20q39 0 63.5 12t24.5 32v5q0 26 -58 40l-174 45q-113 29 -165 68t-52 111q0 96 100 138q-31 22 -45.5 49t-14.5 64q0 83 71.5 134
t217.5 51q105 0 173.5 -26t100.5 -69.5t32 -95.5h-196q-2 27 -33.5 47t-88.5 20q-39 0 -63.5 -12t-24.5 -32v-5q0 -25 58 -40l174 -45q113 -29 165 -68t52 -111q0 -96 -100 -138zM220 266.5q17 -12.5 59 -22.5l129 -32q44 2 69.5 16.5t25.5 39.5v5q0 19 -17 31.5t-59 22.5
l-129 32q-44 -2 -69.5 -16.5t-25.5 -39.5v-5q0 -19 17 -31.5z" />
    <glyph glyph-name="trademark" unicode="&#x2122;" horiz-adv-x="1024" 
d="M10 710h390v-88h-137v-307h-118v307h-135v88zM1004 710v-395h-116v286l-103 -286h-107l-107 295v-295h-116v395h185l93 -257l91 257h180z" />
    <glyph glyph-name="degree" unicode="&#xb0;" horiz-adv-x="360" 
d="M94 430q-39 21 -61.5 57t-22.5 81t22.5 81t61.5 57t86 21t86 -21t61.5 -57t22.5 -81t-22.5 -81t-61.5 -57t-86 -21t-86 21zM236 513.5q21 21.5 21 54.5t-21 54.5t-56 21.5t-56 -21.5t-21 -54.5t21 -54.5t56 -21.5t56 21.5z" />
    <glyph glyph-name="asciicircum" unicode="^" horiz-adv-x="635" 
d="M237 710h162l236 -430h-169l-147 271l-160 -271h-159z" />
    <glyph glyph-name="dagger" unicode="&#x2020;" horiz-adv-x="551" 
d="M531 323h-167v-495h-176v495h-168v157h168v230h176v-230h167v-157z" />
    <glyph glyph-name="daggerdbl" unicode="&#x2021;" horiz-adv-x="551" 
d="M364 373v-143h167v-157h-167v-245h-176v245h-168v157h168v143h-168v157h168v180h176v-180h167v-157h-167z" />
    <glyph glyph-name="uni0308" unicode="&#x308;" 
d="M-462 892h185v-132h-185v132zM-205 892h185v-132h-185v132z" />
    <glyph glyph-name="uni0307" unicode="&#x307;" 
d="M-214 892h194v-132h-194v132z" />
    <glyph glyph-name="gravecomb" unicode="&#x300;" 
d="M-188 750l-122 142h222l68 -142h-168z" />
    <glyph glyph-name="acutecomb" unicode="&#x301;" 
d="M-242 892h222l-122 -142h-168z" />
    <glyph glyph-name="uni030B" unicode="&#x30b;" 
d="M-492 892h222l-122 -142h-168zM-242 892h222l-122 -142h-168z" />
    <glyph glyph-name="caroncomb.alt" 
d="M-166 736h146l-62 -192h-117z" />
    <glyph glyph-name="uni0302" unicode="&#x302;" 
d="M-166 750l-79 85l-79 -85h-146l98 142h180h74l98 -142h-146z" />
    <glyph glyph-name="uni030C" unicode="&#x30c;" 
d="M-20 892l-98 -142h-180h-74l-98 142h146l79 -85l79 85h146z" />
    <glyph glyph-name="uni0306" unicode="&#x306;" 
d="M-357 778.5q-57 33.5 -57 92.5v21h127v-12q0 -22 20 -35.5t50 -13.5t50 13.5t20 35.5v12h127v-21q0 -59 -57 -92.5t-140 -33.5t-140 33.5z" />
    <glyph glyph-name="uni030A" unicode="&#x30a;" 
d="M-341.5 632.5q-52.5 43.5 -52.5 114.5t52.5 114.5t134.5 43.5q53 0 95.5 -20t67 -55.5t24.5 -82.5t-24.5 -82.5t-67 -55.5t-95.5 -20q-82 0 -134.5 43.5zM-146.5 690q25.5 18 25.5 51v12q0 33 -25.5 51t-60.5 18t-60.5 -18t-25.5 -51v-12q0 -33 25.5 -51t60.5 -18
t60.5 18z" />
    <glyph glyph-name="tildecomb" unicode="&#x303;" 
d="M-388 849q34 33 87 33q31 0 53 -6t47 -17q18 -8 30.5 -11.5t26.5 -3.5q37 0 39 38h85q0 -69 -31.5 -101.5t-84.5 -32.5q-27 0 -47.5 5.5t-50.5 16.5q-19 8 -32 12t-27 4q-40 0 -43 -38h-86q0 68 34 101z" />
    <glyph glyph-name="uni0304" unicode="&#x304;" 
d="M-398 880h378v-120h-378v120z" />
    <glyph glyph-name="uni0312" unicode="&#x312;" 
d="M-95 703h71v-99h-172v99l84 78h92z" />
    <glyph glyph-name="uni0326" unicode="&#x326;" 
d="M-121 -152h-71v99h172v-99l-84 -78h-92z" />
    <glyph glyph-name="uni0327" unicode="&#x327;" 
d="M-50 -57q30 -20 30 -59q0 -49 -37 -70.5t-93 -21.5q-33 0 -69 8t-61 23l32 63q20 -12 45 -19t50 -7q22 0 32.5 5t10.5 17t-12 17t-38 5h-30l-40 30l56 98l66 -22l-27 -45q55 -2 85 -22z" />
    <glyph glyph-name="uni0328" unicode="&#x328;" 
d="M-210.5 -162.5q-36.5 25.5 -36.5 68.5q0 46 36 75.5t114 51.5l77 -33q-46 -20 -65 -33t-19 -28v-6q0 -13 14.5 -19t38.5 -6h23v-88q-12 -4 -32 -6t-36 -2q-78 0 -114.5 25.5z" />
    <glyph glyph-name="uni0335" unicode="&#x335;" 
d="M-423 412h403v-112h-403v112z" />
    <glyph glyph-name="uni0336" unicode="&#x336;" 
d="M-598 432h578v-152h-578v152z" />
    <glyph glyph-name="uni0337" unicode="&#x337;" 
d="M-344 325l324 204v-155l-324 -204v155z" />
    <glyph glyph-name="uni0338" unicode="&#x338;" 
d="M-187 728h167l-705 -746h-166z" />
    <glyph glyph-name="uni0326.alt" 
d="M-256 702l79 101h77l-73 -101h69v-117h-152v117z" />
    <glyph glyph-name="acute" unicode="&#xb4;" horiz-adv-x="330" 
d="M88 892h222l-122 -142h-168z" />
    <glyph glyph-name="breve" unicode="&#x2d8;" horiz-adv-x="434" 
d="M77 778.5q-57 33.5 -57 92.5v21h127v-12q0 -22 20 -35.5t50 -13.5t50 13.5t20 35.5v12h127v-21q0 -59 -57 -92.5t-140 -33.5t-140 33.5z" />
    <glyph glyph-name="caron" unicode="&#x2c7;" horiz-adv-x="490" 
d="M470 892l-98 -142h-180h-74l-98 142h146l79 -85l79 85h146z" />
    <glyph glyph-name="cedilla" unicode="&#xb8;" horiz-adv-x="300" 
d="M250 -57q30 -20 30 -59q0 -49 -37 -70.5t-93 -21.5q-33 0 -69 8t-61 23l32 63q20 -12 45 -19t50 -7q22 0 32.5 5t10.5 17t-12 17t-38 5h-30l-40 30l56 98l66 -22l-27 -45q55 -2 85 -22z" />
    <glyph glyph-name="circumflex" unicode="&#x2c6;" horiz-adv-x="490" 
d="M324 750l-79 85l-79 -85h-146l98 142h180h74l98 -142h-146z" />
    <glyph glyph-name="dieresis" unicode="&#xa8;" horiz-adv-x="482" 
d="M20 892h185v-132h-185v132zM277 892h185v-132h-185v132z" />
    <glyph glyph-name="dotaccent" unicode="&#x2d9;" horiz-adv-x="234" 
d="M20 892h194v-132h-194v132z" />
    <glyph glyph-name="grave" unicode="`" horiz-adv-x="330" 
d="M142 750l-122 142h222l68 -142h-168z" />
    <glyph glyph-name="hungarumlaut" unicode="&#x2dd;" horiz-adv-x="580" 
d="M88 892h222l-122 -142h-168zM338 892h222l-122 -142h-168z" />
    <glyph glyph-name="macron" unicode="&#xaf;" horiz-adv-x="418" 
d="M20 880h378v-120h-378v120z" />
    <glyph glyph-name="ogonek" unicode="&#x2db;" horiz-adv-x="267" 
d="M56.5 -162.5q-36.5 25.5 -36.5 68.5q0 46 36 75.5t114 51.5l77 -33q-46 -20 -65 -33t-19 -28v-6q0 -13 14.5 -19t38.5 -6h23v-88q-12 -4 -32 -6t-36 -2q-78 0 -114.5 25.5z" />
    <glyph glyph-name="ring" unicode="&#x2da;" horiz-adv-x="414" 
d="M72.5 632.5q-52.5 43.5 -52.5 114.5t52.5 114.5t134.5 43.5q53 0 95.5 -20t67 -55.5t24.5 -82.5t-24.5 -82.5t-67 -55.5t-95.5 -20q-82 0 -134.5 43.5zM267.5 690q25.5 18 25.5 51v12q0 33 -25.5 51t-60.5 18t-60.5 -18t-25.5 -51v-12q0 -33 25.5 -51t60.5 -18t60.5 18z
" />
    <glyph glyph-name="tilde" unicode="&#x2dc;" horiz-adv-x="442" 
d="M54 849q34 33 87 33q31 0 53 -6t47 -17q18 -8 30.5 -11.5t26.5 -3.5q37 0 39 38h85q0 -69 -31.5 -101.5t-84.5 -32.5q-27 0 -47.5 5.5t-50.5 16.5q-19 8 -32 12t-27 4q-40 0 -43 -38h-86q0 68 34 101z" />
    </font>
</defs>
</svg>
