<?xml version="1.0" encoding="utf-8"?>
<!-- Generator: Adobe Illustrator 16.0.0, SVG Export Plug-In . SVG Version: 6.00 Build 0)  -->
<!DOCTYPE svg PUBLIC "-//W3C//DTD SVG 1.1//EN" "http://www.w3.org/Graphics/SVG/1.1/DTD/svg11.dtd">
<svg version="1.1" id="Capa_1" xmlns="http://www.w3.org/2000/svg" xmlns:xlink="http://www.w3.org/1999/xlink" x="0px" y="0px"
	 width="201px" height="60px" viewBox="-110.998 689.5 201 60" enable-background="new -110.998 689.5 201 60" xml:space="preserve"
	>
<rect x="-111.398" y="688.975" fill="#1F7599" width="201.881" height="60.563"/>
<g>
	<path fill="#FFFFFF" d="M-62.459,741.699c-0.013-0.417-0.009-0.947-0.017-1.519c-0.003-0.254-0.01-0.517-0.021-0.782
		c-0.052-1.307-0.013-2.622-0.061-3.93c-0.047-1.395-0.008-2.795-0.064-4.198c-0.047-1.313-0.006-2.636-0.054-3.951
		c-0.057-1.386-0.013-2.762-0.062-4.14c-0.044-1.092,0.002-2.188-0.03-3.282c-0.018-0.62-0.03-1.244-0.042-1.863
		c-0.005-0.195,0.061-0.333,0.221-0.453c0.341-0.275,0.667-0.559,1.005-0.843c1.392-1.156,2.776-2.321,4.161-3.487
		c1.466-1.232,2.943-2.441,4.365-3.707c0.123-0.108,0.232-0.143,0.375-0.065c0.281,0.141,0.589,0.18,0.906,0.173
		c0.892-0.02,1.532-0.447,1.899-1.23c0.381-0.799,0.257-1.587-0.334-2.255c-0.133-0.152-0.282-0.281-0.442-0.386
		c-0.693-0.457-1.595-0.474-2.331,0.006c-0.872,0.562-1.255,1.677-0.782,2.625c0.099,0.202,0.099,0.207-0.084,0.372
		c-0.45,0.394-0.896,0.792-1.347,1.179c-1.055,0.879-2.103,1.766-3.155,2.646c-0.858,0.724-1.722,1.446-2.587,2.163
		c-0.852,0.716-1.708,1.436-2.567,2.14c-0.271,0.229-0.399,0.494-0.394,0.849c0.019,0.683,0.026,1.359,0.046,2.044
		c0.038,1.282,0.009,2.575,0.057,3.869c0.055,1.406,0.008,2.818,0.061,4.229c0.054,1.302,0.013,2.609,0.065,3.924
		c0.042,1.459,0.038,2.919,0.055,4.376c0.026,1.817,0.068,3.623,0.075,5.436c0.005,0.573,0.008,1.149,0.008,1.712
		c0,0.19,0.01,0.377,0.044,0.56c0.033,0.218,0.175,0.397,0.352,0.471c0.06,0.024,0.122,0.038,0.186,0.038
		c0.28-0.006,0.537-0.285,0.521-0.587C-62.46,743.198-62.43,742.57-62.459,741.699z"/>
	<path fill="#FFFFFF" d="M-58.843,704.591c0.184-0.18,0.374-0.323,0.649-0.154c0.046,0.027,0.101,0.027,0.152,0.039
		c0.924,0.191,1.752-0.656,1.511-1.56c-0.047-0.182-0.133-0.345-0.247-0.484c-0.301-0.369-0.795-0.563-1.27-0.451
		c-0.725,0.162-1.176,0.822-1.001,1.512c0.079,0.293-0.001,0.486-0.217,0.678c-0.32,0.288-0.638,0.584-0.955,0.886
		c-0.853,0.809-1.681,1.643-2.539,2.442c-0.565,0.513-1.095,1.066-1.645,1.596c-0.051,0.048-0.079,0.126-0.211,0.1
		c0-0.11,0.005-0.219,0-0.341c-0.013-2.446,0.085-4.903,0.052-7.355c-0.009-1.062,0-2.132,0-3.191c0-0.336,0-0.336,0.315-0.449
		c1.495-0.559,2.473-2.048,2.265-3.745c-0.083-0.669-0.346-1.271-0.736-1.762c-0.742-0.937-1.941-1.468-3.205-1.297
		c-1.004,0.136-1.789,0.622-2.38,1.404c-0.598,0.79-0.821,1.686-0.647,2.655c0.131,0.749,0.433,1.368,0.898,1.855
		c0.363,0.377,0.825,0.675,1.386,0.89c0.158,0.064,0.247,0.097,0.296,0.145c0.065,0.061,0.065,0.146,0.065,0.35
		c0.007,2.163,0.007,4.321,0,6.477c0,0.1,0.037,0.201-0.067,0.313c-0.222-0.262-0.438-0.51-0.646-0.76
		c-0.833-0.984-1.674-1.954-2.556-2.907c-0.159-0.165-0.223-0.17-0.049-0.444c0.344-0.52,0.36-1.078,0.128-1.635
		c-0.1-0.239-0.247-0.445-0.425-0.613c-0.456-0.428-1.124-0.601-1.755-0.422c-1.213,0.339-1.647,1.708-1.091,2.638
		c0.083,0.135,0.178,0.255,0.283,0.36c0.518,0.52,1.285,0.682,2.021,0.4c0.17-0.07,0.225-0.084,0.308-0.011
		c0.028,0.025,0.059,0.06,0.098,0.104c0.166,0.183,0.338,0.367,0.5,0.554c0.931,1.066,1.875,2.128,2.772,3.222
		c0.042,0.052,0.085,0.113,0.139,0.155c0.033,0.026,0.069,0.046,0.109,0.055c0.063,0.015,0.11,0.039,0.144,0.069
		c0.074,0.069,0.087,0.17,0.083,0.285c0,0.17,0.004,0.341,0,0.506c-0.035,6.836,0.031,13.662-0.038,20.494
		c-0.046,5.506-0.014,11.02-0.014,16.525c0,0.039,0,0.082,0,0.119c0.008,0.27,0.115,0.508,0.287,0.671
		c0.134,0.128,0.306,0.209,0.5,0.228c0.427,0.05,0.802-0.265,0.918-0.733c0.07-0.284,0.03-0.569,0.03-0.848
		c0.009-5.979,0.013-11.951,0.013-17.923c0.005-4.839,0.011-9.675-0.004-14.521c0-0.34,0.089-0.615,0.337-0.843
		c0.038-0.034,0.074-0.078,0.11-0.105c1.444-1.445,2.931-2.857,4.404-4.276C-59.458,705.193-59.152,704.899-58.843,704.591z"/>
	<path fill="#FFFFFF" d="M60.188,743.648c-0.177-0.116-0.356-0.222-0.54-0.322h-0.001c-0.017-0.011-0.032-0.018-0.049-0.026
		c-0.168-0.092-0.338-0.179-0.512-0.26c-0.068-0.033-0.128-0.043-0.18-0.032c-0.085,0.019-0.146,0.093-0.175,0.214
		c-0.02,0.061-0.012,0.127-0.027,0.184c-0.01,0.033-0.027,0.063-0.063,0.082c-0.016,0.01-0.033,0.018-0.049,0.022
		c-0.09,0.031-0.188,0.014-0.277,0.017c-0.117,0-0.241,0-0.359,0c-18.458-0.029-36.924,0.025-55.386-0.014c-0.023,0-0.047,0-0.07,0
		c-2.621-0.007-5.242-0.013-7.863-0.025c-8.374-0.032-16.759-0.012-25.139-0.012c-8.386,0-16.772-0.008-25.164,0
		c-0.315,0-0.556-0.08-0.786-0.277c-0.526-0.432-1.023-0.886-1.521-1.34c-0.932-0.874-1.835-1.762-2.766-2.634
		c-0.051-0.049-0.095-0.099-0.13-0.149c-0.109-0.152-0.152-0.321-0.148-0.534c0.004-0.188,0.007-0.372,0.009-0.559
		c0.005-0.553,0.002-1.107,0.006-1.669c0-0.005,0-0.012,0-0.018c0-4.571,0-9.143,0.003-13.723l0,0c0-0.115,0-0.235,0-0.35
		c0-0.285,0.113-0.468,0.411-0.568c0.744-0.253,1.483-0.555,2.219-0.835c2.356-0.881,4.721-1.753,7.08-2.638
		c0.281-0.103,0.29-0.097,0.488,0.121c0.394,0.423,0.884,0.663,1.385,0.718c0.072,0.008,0.144,0.013,0.216,0.013
		c0.575,0.002,1.151-0.235,1.603-0.714c0.564-0.597,0.721-1.511,0.368-2.262c-0.375-0.803-1.108-1.269-1.981-1.255
		c-0.387,0.008-0.737,0.108-1.038,0.276c-0.667,0.372-1.084,1.076-1.085,1.82c0,0.112,0.009,0.225,0.028,0.337
		c0.01,0.056,0.015,0.1,0.016,0.134c0.002,0.105-0.043,0.133-0.205,0.199c-0.265,0.104-0.531,0.192-0.788,0.289
		c-2.433,0.904-4.855,1.812-7.285,2.716c-0.572,0.209-1.136,0.442-1.702,0.669c-0.238,0.091-0.351,0.257-0.351,0.519
		c0,0.815-0.027,1.636-0.04,2.452c-0.018,3.645-0.016,7.289-0.019,10.932c-0.001,1.215-0.002,2.431-0.005,3.646
		c0,0.269,0.077,0.471,0.271,0.654c0.673,0.643,1.328,1.294,2.003,1.929c0.881,0.825,1.771,1.658,2.69,2.452
		c0.221,0.188,0.457,0.29,0.743,0.313c0.042,0.002,0.083,0.005,0.126,0.005c2.452-0.011,4.907-0.011,7.366-0.011
		c1.107,0.006,2.222,0,3.333,0.044c0.769,0.022,1.544-0.004,2.316-0.044c0.649-0.022,1.303,0.054,1.948,0.044
		c0.621-0.013,1.244-0.021,1.86-0.044c0.792-0.014,1.581,0.011,2.372,0.011c10.953,0.021,21.909-0.062,32.866,0.033
		c0.509,0.006,1.015-0.033,1.529-0.044c0.254-0.002,0.509,0.004,0.765,0.011c0.248,0.007,0.495,0.017,0.744,0.023
		c0.168,0.006,0.336,0.009,0.504,0.01c5.944,0.006,11.884,0.006,17.828,0.006c13.53,0,27.057,0,40.593,0c0.114,0,0.243,0,0.354,0
		c0.107,0.012,0.17,0.061,0.175,0.17c0.011,0.032,0.011,0.071,0.021,0.109c0.055,0.253,0.182,0.315,0.406,0.202
		c0.265-0.137,0.525-0.294,0.785-0.441c0.101-0.05,0.201-0.101,0.28-0.165c0.103-0.081,0.148-0.159,0.134-0.235
		C60.317,743.764,60.27,743.706,60.188,743.648z"/>
	<path fill="#FFFFFF" d="M-67.08,717.713C-67.08,717.713-67.08,717.713-67.08,717.713L-67.08,717.713
		c0.014-0.285-0.092-0.516-0.305-0.717c-0.268-0.253-0.533-0.493-0.806-0.741c-0.792-0.697-1.566-1.417-2.345-2.124
		c-0.938-0.854-1.877-1.71-2.818-2.576c-0.276-0.253-0.559-0.499-0.84-0.755c-0.61-0.555-1.224-1.109-1.839-1.656
		c-0.1-0.088-0.151-0.172-0.153-0.271c-0.002-0.059,0.014-0.122,0.046-0.193c0.125-0.302,0.176-0.625,0.159-0.947
		c-0.002-0.031-0.005-0.063-0.008-0.094c-0.002-0.015-0.002-0.029-0.003-0.044c-0.125-1.101-1.036-2.141-2.448-2.157
		c-1.327-0.008-2.444,1.081-2.462,2.394c-0.002,0.188,0.017,0.379,0.063,0.574c0.377,1.599,2.236,2.372,3.625,1.54
		c0.252-0.155,0.258-0.155,0.469,0.031c0.513,0.455,1.01,0.919,1.525,1.386c0.934,0.843,1.878,1.686,2.809,2.535
		c0.633,0.581,1.269,1.154,1.896,1.723c0.704,0.651,1.412,1.292,2.127,1.935c0.169,0.142,0.227,0.309,0.221,0.526
		c0,0.005,0,0.008,0,0.013c-0.001,0.014-0.002,0.027-0.002,0.04c-0.021,0.826-0.016,1.645-0.044,2.469
		c-0.001,0.022-0.001,0.044-0.002,0.065c-0.05,1.326-0.007,2.66-0.063,3.985c-0.048,1.389,0,2.78-0.053,4.169
		c-0.058,1.328-0.018,2.656-0.058,3.986c-0.064,1.439-0.037,2.879-0.065,4.316c0,0.023-0.001,0.049-0.001,0.071
		c-0.034,1.717-0.035,3.444-0.08,5.164c0,0.188,0,0.377,0,0.559c0,0.01,0,0.019,0,0.026c0,0.343-0.011,0.677,0.009,1.014
		c0.018,0.273,0.208,0.455,0.49,0.466c0.251,0.011,0.46-0.137,0.53-0.39c0.04-0.136,0.055-0.267,0.055-0.408
		c0.001-0.083,0.002-0.166,0.003-0.248c0.019-1.086,0.009-2.17,0.049-3.26c0.001-0.031,0.001-0.064,0.003-0.097
		c0.053-1.329,0.007-2.656,0.058-3.988c0.053-1.391,0.003-2.775,0.06-4.166c0.002-0.035,0.002-0.068,0.004-0.104
		c0.046-1.264,0.011-2.528,0.055-3.792c0.001-0.031,0.001-0.063,0.002-0.094c0.054-1.403,0.006-2.797,0.067-4.193
		c0.017-0.495,0.02-0.991,0.02-1.486c0-0.165,0-0.329-0.001-0.495c0-0.661,0.002-1.322,0.036-1.979
		C-67.057,719.054-67.087,718.387-67.08,717.713z"/>
	<path fill="#FFFFFF" d="M-69.227,729.901c-0.053-2.613-0.024-5.223-0.024-7.831c0-0.117,0-0.219,0-0.329
		c0-0.23-0.107-0.4-0.323-0.493c-0.197-0.081-0.408-0.16-0.608-0.24c-2.204-0.853-4.422-1.66-6.633-2.485
		c-1.013-0.378-2.023-0.766-3.028-1.14c-0.184-0.059-0.278-0.151-0.287-0.355c-0.083-1.029-0.939-1.753-1.93-1.721
		c-0.128,0.005-0.259,0.021-0.391,0.052c-0.758,0.177-1.303,0.765-1.44,1.567c-0.119,0.673,0.245,1.438,0.864,1.815
		c0.333,0.207,0.674,0.294,1,0.294c0.716,0.001,1.351-0.414,1.614-0.88c0.078-0.139,0.109-0.191,0.188-0.188
		c0.047,0.001,0.111,0.022,0.212,0.058c0.337,0.126,0.673,0.252,1.011,0.378c0.8,0.302,1.599,0.601,2.397,0.899
		c0.334,0.125,0.67,0.25,1.004,0.375c1.781,0.664,3.555,1.332,5.339,2.004c0.336,0.128,0.336,0.138,0.336,0.494
		c0.008,3.333,0.02,6.662,0.061,9.99c0.01,0.503,0.007,1.01,0.005,1.511c-0.001,0.168-0.001,0.334-0.001,0.501c0,0,0.005,0,0.012,0
		c0,1.471-0.007,2.94,0,4.407c0.01,0.258-0.076,0.446-0.256,0.619c-0.999,0.974-2.014,1.929-3.042,2.869
		c-0.456,0.408-0.924,0.816-1.395,1.202c-0.177,0.143-0.359,0.201-0.579,0.201c-0.163,0.003-0.326,0.005-0.489,0.006
		c-1.082,0.006-2.167-0.008-3.252,0.028c-0.016,0-0.032,0-0.049,0c-0.469,0.02-0.938,0.025-1.407,0.025
		c-0.782,0-1.565-0.016-2.349-0.014l0,0l0,0c-0.015,0.002-0.029,0.002-0.044,0.002c-0.214-0.003-0.354-0.056-0.42-0.302
		c-0.024-0.099-0.069-0.165-0.127-0.197c-0.069-0.038-0.157-0.031-0.258,0.021c-0.348,0.18-0.683,0.379-1.016,0.571
		c-0.115,0.069-0.224,0.155-0.197,0.305c0.02,0.152,0.122,0.244,0.269,0.284c0.175,0.057,0.328,0.155,0.477,0.241
		c0.177,0.1,0.347,0.209,0.547,0.262c0.079,0.025,0.14,0.038,0.188,0.038c0.106-0.003,0.147-0.078,0.17-0.25
		c0.041-0.301,0.041-0.301,0.349-0.301c0.048-0.008,0.101-0.008,0.151-0.008c2.474-0.004,4.947-0.004,7.424-0.01
		c0.112,0,0.219,0,0.326-0.013c0.158-0.014,0.297-0.061,0.421-0.152c0.778-0.634,1.53-1.302,2.261-1.985
		c0.883-0.825,1.757-1.646,2.619-2.485c0.249-0.236,0.359-0.481,0.352-0.83C-69.222,735.778-69.168,732.837-69.227,729.901z"/>
	<path fill="#FFFFFF" d="M-47.492,730.225c-0.024-0.119-0.06-0.348-0.048-0.707c0-0.504-0.156-0.946-0.396-1.292
		c-0.12-0.181-0.263-0.325-0.419-0.444c0.575-0.479,0.934-1.174,0.934-1.966c0-1.424-1.138-2.573-2.563-2.573h-2.132
		c-0.012,0-0.012,0-0.012,0c-0.371,0-0.659,0.287-0.659,0.658v7.065c0,0.359,0.288,0.66,0.659,0.66s0.67-0.301,0.67-0.66v-2.599
		h1.414c0.107,0.023,0.418,0.12,0.67,0.289c0.144,0.096,0.287,0.215,0.359,0.346c0.084,0.133,0.132,0.289,0.144,0.516
		c0,0.659,0.083,1.091,0.252,1.437c0.095,0.169,0.228,0.325,0.383,0.419c0.168,0.109,0.347,0.133,0.467,0.133
		c0.012,0,0.012,0,0.012,0c0.12,0,0.215-0.023,0.263-0.036c0.348-0.119,0.539-0.492,0.419-0.838
		C-47.144,730.428-47.3,730.283-47.492,730.225z M-49.983,727.038h-1.473v-2.467h1.473c0.682,0,1.234,0.55,1.234,1.244
		C-48.749,726.487-49.301,727.038-49.983,727.038z"/>
	<path fill="#FFFFFF" d="M-45.204,731.59c0.072,0.022,0.144,0.036,0.228,0.036c0.264,0,0.515-0.156,0.623-0.421l0.586-1.556h2.911
		l0.587,1.556c0.096,0.265,0.347,0.421,0.61,0.421c0.084,0,0.168-0.014,0.227-0.036c0.348-0.133,0.516-0.516,0.396-0.862
		l-2.646-7.054c-0.108-0.265-0.36-0.432-0.635-0.42c-0.264-0.012-0.527,0.155-0.635,0.42l-2.647,7.054
		C-45.719,731.074-45.551,731.457-45.204,731.59z M-42.317,725.756l0.971,2.576h-1.941L-42.317,725.756z"/>
	<path fill="#FFFFFF" d="M-36.736,731.626c0.372,0,0.671-0.301,0.671-0.66v-5.041l1.712,2.395c0.132,0.181,0.335,0.276,0.552,0.276
		h0.012h0.012c0.215,0,0.407-0.096,0.539-0.276l1.725-2.395v5.041c0,0.359,0.287,0.66,0.658,0.66c0.36,0,0.671-0.301,0.671-0.66
		V723.9c0-0.359-0.311-0.646-0.671-0.658c-0.012,0-0.012,0-0.012,0c-0.216,0-0.407,0.096-0.539,0.274l-2.384,3.306l-2.383-3.306
		c-0.12-0.179-0.335-0.274-0.527-0.274c-0.023,0-0.023,0-0.036,0c-0.359,0-0.658,0.299-0.658,0.658v7.065
		C-37.395,731.325-37.096,731.626-36.736,731.626z"/>
	<path fill="#FFFFFF" d="M-28.136,731.59c0.071,0.022,0.144,0.036,0.228,0.036c0.263,0,0.515-0.156,0.623-0.421l0.587-1.556h2.911
		l0.586,1.556c0.096,0.265,0.348,0.421,0.611,0.421c0.083,0,0.168-0.014,0.228-0.036c0.347-0.133,0.515-0.516,0.395-0.862
		l-2.647-7.054c-0.108-0.265-0.359-0.432-0.634-0.42c-0.265-0.012-0.528,0.155-0.635,0.42l-2.647,7.054
		C-28.651,731.074-28.483,731.457-28.136,731.59z M-25.249,725.756l0.969,2.576h-1.94L-25.249,725.756z"/>
	<path fill="#FFFFFF" d="M-16.076,731.626l0.012-0.014c0,0,0,0.014,0.024,0.014h3.881c0.347,0,0.659-0.301,0.659-0.66
		c0-0.369-0.312-0.67-0.659-0.67h-3.246v-2.203h2.791c0.359,0,0.658-0.3,0.658-0.67c0-0.35-0.299-0.659-0.658-0.659h-2.791v-2.192
		h3.246c0.347,0,0.659-0.298,0.659-0.671c0-0.371-0.312-0.658-0.659-0.658h-3.881c-0.024,0-0.024,0-0.024,0h-0.012
		c-0.371,0-0.659,0.287-0.659,0.658v7.065C-16.734,731.325-16.446,731.626-16.076,731.626z"/>
	<path fill="#FFFFFF" d="M-9.8,730.416c0.683,0.538,1.773,1.185,3.066,1.196c0.851,0,1.629-0.25,2.216-0.682
		c0.599-0.431,1.03-1.09,1.03-1.856c0-0.37-0.107-0.73-0.287-1.017c-0.276-0.444-0.707-0.756-1.198-0.996
		c-0.479-0.227-1.042-0.382-1.653-0.502h-0.024c-0.647-0.121-1.186-0.31-1.497-0.526c-0.155-0.108-0.263-0.218-0.324-0.312
		c-0.059-0.095-0.083-0.191-0.083-0.335c0-0.253,0.131-0.517,0.455-0.756c0.324-0.239,0.802-0.407,1.341-0.407
		c0.73,0,1.317,0.359,1.928,0.766c0.288,0.192,0.671,0.108,0.851-0.178c0.192-0.276,0.108-0.66-0.167-0.851
		c-0.611-0.396-1.461-0.958-2.612-0.958c-0.778,0-1.509,0.226-2.072,0.634c-0.55,0.407-0.958,1.03-0.958,1.75
		c0,0.357,0.096,0.694,0.275,0.981c0.264,0.42,0.658,0.719,1.114,0.934s0.982,0.358,1.544,0.468h0.024
		c0.707,0.131,1.294,0.336,1.642,0.563c0.179,0.12,0.287,0.239,0.358,0.358c0.072,0.119,0.108,0.228,0.108,0.384
		c0,0.301-0.156,0.6-0.515,0.863c-0.359,0.265-0.898,0.441-1.498,0.441c-0.851,0.013-1.761-0.49-2.288-0.922
		c-0.263-0.215-0.659-0.178-0.874,0.085C-10.099,729.805-10.063,730.202-9.8,730.416z"/>
	<path fill="#FFFFFF" d="M-1.811,724.571h1.892v6.395c0,0.372,0.3,0.66,0.659,0.66c0.371,0,0.659-0.288,0.659-0.66v-6.395h1.904
		c0.359,0,0.659-0.312,0.659-0.671c0-0.371-0.299-0.658-0.659-0.658h-5.114c-0.372,0-0.659,0.287-0.659,0.658
		C-2.469,724.26-2.182,724.571-1.811,724.571z"/>
	<path fill="#FFFFFF" d="M9.412,731.626c1.916,0,3.461-1.559,3.461-3.462V723.9c0-0.371-0.288-0.658-0.659-0.658
		c-0.372,0-0.671,0.287-0.671,0.658v4.264c0,1.175-0.946,2.132-2.132,2.132c-1.174,0-2.132-0.957-2.132-2.132V723.9
		c0-0.371-0.312-0.658-0.67-0.658c-0.372,0-0.659,0.287-0.659,0.658v4.264C5.951,730.067,7.484,731.626,9.412,731.626z"/>
	<path fill="#FFFFFF" d="M15.987,731.626h1.414c2.312,0,4.181-1.881,4.181-4.203c0-2.302-1.869-4.181-4.181-4.181h-1.414
		c-0.371,0-0.659,0.287-0.659,0.658v7.065C15.329,731.325,15.616,731.626,15.987,731.626z M16.658,724.571h0.743
		c1.581,0,2.85,1.281,2.85,2.852c0,1.591-1.269,2.86-2.85,2.873h-0.743V724.571z"/>
	<path fill="#FFFFFF" d="M24.084,731.626c0.359,0,0.671-0.288,0.671-0.66V723.9c0-0.371-0.312-0.658-0.671-0.658
		c-0.371,0-0.659,0.287-0.659,0.658v7.065C23.425,731.338,23.713,731.626,24.084,731.626z"/>
	<path fill="#FFFFFF" d="M26.923,731.59c0.072,0.022,0.144,0.036,0.227,0.036c0.264,0,0.516-0.156,0.624-0.421l0.587-1.556h2.91
		l0.587,1.556c0.096,0.265,0.347,0.421,0.611,0.421c0.084,0,0.167-0.014,0.228-0.036c0.348-0.133,0.515-0.516,0.396-0.862
		l-2.647-7.054c-0.107-0.265-0.359-0.432-0.635-0.42c-0.264-0.012-0.526,0.155-0.635,0.42l-2.647,7.054
		C26.408,731.074,26.576,731.457,26.923,731.59z M29.809,725.756l0.971,2.576h-1.941L29.809,725.756z"/>
	<path fill="#FFFFFF" d="M35.403,731.626c0.347,0,0.646-0.301,0.646-0.66l0,0v-4.971l3.833,5.318
		c0.013,0.024,0.037,0.049,0.061,0.072c0.119,0.145,0.299,0.24,0.491,0.24c0.359,0,0.658-0.301,0.658-0.66v-6.958
		c0-0.347-0.299-0.646-0.658-0.646c-0.36,0-0.647,0.3-0.647,0.646v4.935l-3.868-5.354c-0.204-0.287-0.611-0.347-0.911-0.143
		c-0.18,0.131-0.275,0.346-0.263,0.55c0,0.012,0,0.012,0,0.012v6.958C34.744,731.325,35.031,731.626,35.403,731.626z"/>
	<path fill="#FFFFFF" d="M43.859,724.571h1.893v6.395c0,0.372,0.299,0.66,0.658,0.66c0.371,0,0.659-0.288,0.659-0.66v-6.395h1.904
		c0.359,0,0.659-0.312,0.659-0.671c0-0.371-0.299-0.658-0.659-0.658h-5.114c-0.372,0-0.659,0.287-0.659,0.658
		C43.2,724.26,43.487,724.571,43.859,724.571z"/>
	<path fill="#FFFFFF" d="M52.351,731.626c0.359,0,0.67-0.288,0.67-0.66V723.9c0-0.371-0.311-0.658-0.67-0.658
		c-0.372,0-0.659,0.287-0.659,0.658v7.065C51.692,731.338,51.979,731.626,52.351,731.626z"/>
	<path fill="#FFFFFF" d="M55.92,731.626c0,0,0,0,0.012,0c0,0,0,0,0.023,0h3.881c0.347,0,0.659-0.301,0.659-0.66
		c0-0.369-0.312-0.67-0.659-0.67H56.59V723.9c0-0.359-0.3-0.658-0.67-0.658c-0.372,0-0.659,0.299-0.659,0.658v7.065
		C55.261,731.325,55.548,731.626,55.92,731.626z"/>
	<path fill="#FFFFFF" d="M-52.071,734.275c-0.371,0-0.659,0.287-0.659,0.66v7.066c0,0.37,0.288,0.658,0.659,0.658
		c0.358,0,0.67-0.288,0.67-0.658v-7.066C-51.401,734.563-51.713,734.275-52.071,734.275z"/>
	<path fill="#FFFFFF" d="M-44.585,735.605c0.347,0,0.658-0.302,0.658-0.67c0-0.373-0.312-0.66-0.658-0.66h-3.881
		c-0.024,0-0.024,0-0.024,0h-0.012c-0.371,0-0.659,0.287-0.659,0.66v7.066c0,0.358,0.288,0.658,0.659,0.658l0.012-0.013
		c0,0,0,0.013,0.024,0.013h3.881c0.347,0,0.658-0.301,0.658-0.658c0-0.372-0.312-0.673-0.658-0.673h-3.246v-2.203h2.791
		c0.359,0,0.659-0.299,0.659-0.67c0-0.349-0.299-0.66-0.659-0.66h-2.791v-2.19H-44.585z"/>
	<path fill="#FFFFFF" d="M-41.388,734.275h-0.012c-0.372,0-0.66,0.287-0.66,0.66v7.066c0,0.358,0.288,0.658,0.66,0.658l0.012-0.013
		c0,0,0,0.013,0.024,0.013h3.88c0.347,0,0.659-0.301,0.659-0.658c0-0.372-0.312-0.673-0.659-0.673h-3.246v-2.203h2.79
		c0.36,0,0.66-0.299,0.66-0.67c0-0.349-0.3-0.66-0.66-0.66h-2.79v-2.19h3.246c0.347,0,0.659-0.302,0.659-0.67
		c0-0.373-0.312-0.66-0.659-0.66h-3.88C-41.388,734.275-41.388,734.275-41.388,734.275z"/>
	<path fill="#FFFFFF" d="M-34.262,734.275c-0.024,0-0.024,0-0.024,0h-0.012c-0.371,0-0.659,0.287-0.659,0.66v7.066
		c0,0.358,0.288,0.658,0.659,0.658l0.012-0.013c0,0,0,0.013,0.024,0.013h3.88c0.348,0,0.659-0.301,0.659-0.658
		c0-0.372-0.311-0.673-0.659-0.673h-3.246v-2.203h2.791c0.358,0,0.659-0.299,0.659-0.67c0-0.349-0.3-0.66-0.659-0.66h-2.791v-2.19
		h3.246c0.348,0,0.659-0.302,0.659-0.67c0-0.373-0.311-0.66-0.659-0.66H-34.262z"/>
	<path fill="#FFFFFF" d="M-24.715,738.995c0,0.383,0.323,0.707,0.706,0.707h2.252c0.383,0,0.706-0.324,0.706-0.707
		c0-0.396-0.323-0.72-0.706-0.72h-2.252C-24.392,738.275-24.715,738.6-24.715,738.995z"/>
	<path fill="#FFFFFF" d="M-14.44,739.199v-4.264c0-0.373-0.311-0.66-0.67-0.66c-0.372,0-0.659,0.287-0.659,0.66v4.264
		c0,1.902,1.533,3.461,3.461,3.461c1.916,0,3.461-1.559,3.461-3.461v-4.264c0-0.373-0.288-0.66-0.659-0.66
		c-0.371,0-0.671,0.287-0.671,0.66v4.264c0,1.172-0.946,2.13-2.132,2.13C-13.481,741.329-14.44,740.371-14.44,739.199z"/>
	<path fill="#FFFFFF" d="M-5.732,734.275c-0.372,0-0.659,0.287-0.659,0.66v7.066c0,0.358,0.287,0.658,0.659,0.658h1.414
		c2.311,0,4.18-1.881,4.18-4.204c0-2.299-1.869-4.181-4.18-4.181H-5.732z M-1.468,738.456c0,1.593-1.27,2.862-2.85,2.873h-0.743
		v-5.724h0.743C-2.738,735.605-1.468,736.888-1.468,738.456z"/>
	<path fill="#FFFFFF" d="M21.867,746.094H20.46c-0.009,0-0.009,0-0.009,0h-0.004c-0.135,0-0.239,0.11-0.239,0.239v2.563
		c0,0.13,0.104,0.239,0.239,0.239s0.244-0.109,0.244-0.239v-1.043h1.011c0.13,0,0.239-0.106,0.239-0.242
		c0-0.126-0.109-0.238-0.239-0.238h-1.011v-0.795h1.176c0.126,0,0.239-0.108,0.239-0.244
		C22.106,746.204,21.993,746.094,21.867,746.094z"/>
	<path fill="#FFFFFF" d="M25.111,746.094c-0.135,0-0.243,0.104-0.243,0.239v1.546c0,0.427-0.344,0.772-0.772,0.772
		c-0.426,0-0.773-0.346-0.773-0.772v-1.546c0-0.135-0.114-0.239-0.244-0.239c-0.135,0-0.238,0.104-0.238,0.239v1.546
		c0,0.691,0.556,1.256,1.255,1.256c0.694,0,1.255-0.564,1.254-1.256v-1.546C25.35,746.198,25.245,746.094,25.111,746.094z"/>
	<path fill="#FFFFFF" d="M28.372,746.138c-0.129,0-0.233,0.109-0.233,0.235v1.787l-1.403-1.939c-0.074-0.104-0.222-0.127-0.33-0.052
		c-0.065,0.047-0.101,0.126-0.096,0.2c0,0.004,0,0.004,0,0.004v2.522c0,0.13,0.104,0.239,0.239,0.239
		c0.126,0,0.234-0.109,0.234-0.239l0,0v-1.803l1.39,1.929c0.004,0.01,0.013,0.018,0.021,0.026c0.044,0.052,0.109,0.087,0.178,0.087
		c0.13,0,0.24-0.109,0.24-0.239v-2.522C28.611,746.247,28.502,746.138,28.372,746.138z"/>
	<path fill="#FFFFFF" d="M30.188,746.094h-0.513c-0.135,0-0.239,0.104-0.239,0.239v2.563c0,0.13,0.104,0.239,0.239,0.239h0.513
		c0.838,0,1.515-0.682,1.515-1.524C31.703,746.775,31.025,746.094,30.188,746.094z M30.188,748.651h-0.269v-2.074h0.269
		c0.573,0,1.033,0.465,1.033,1.033C31.221,748.188,30.76,748.648,30.188,748.651z"/>
	<path fill="#FFFFFF" d="M33.527,746.252c-0.04-0.096-0.131-0.158-0.23-0.152c-0.096-0.006-0.191,0.057-0.23,0.152l-0.96,2.558
		c-0.043,0.125,0.018,0.265,0.143,0.313c0.026,0.009,0.052,0.013,0.083,0.013c0.096,0,0.187-0.057,0.226-0.151l0.213-0.565h1.055
		l0.212,0.565c0.035,0.095,0.126,0.151,0.221,0.151c0.03,0,0.062-0.004,0.083-0.013c0.125-0.048,0.186-0.188,0.143-0.313
		L33.527,746.252z M32.945,747.939l0.352-0.932l0.352,0.932H32.945z"/>
	<path fill="#FFFFFF" d="M35.833,746.094h-0.512c-0.135,0-0.239,0.104-0.239,0.239v2.563c0,0.13,0.104,0.239,0.239,0.239h0.512
		c0.838,0,1.515-0.682,1.515-1.524C37.348,746.775,36.671,746.094,35.833,746.094z M35.833,748.651h-0.269v-2.074h0.269
		c0.573,0,1.034,0.465,1.034,1.033C36.866,748.188,36.406,748.648,35.833,748.651z"/>
	<path fill="#FFFFFF" d="M39.172,746.252c-0.039-0.096-0.13-0.158-0.23-0.152c-0.096-0.006-0.191,0.057-0.23,0.152l-0.959,2.558
		c-0.043,0.125,0.018,0.265,0.144,0.313c0.026,0.009,0.052,0.013,0.083,0.013c0.096,0,0.187-0.057,0.226-0.151l0.213-0.565h1.055
		l0.213,0.565c0.035,0.095,0.125,0.151,0.221,0.151c0.031,0,0.061-0.004,0.083-0.013c0.125-0.048,0.186-0.188,0.143-0.313
		L39.172,746.252z M38.59,747.939l0.352-0.932l0.352,0.932H38.59z"/>
	<path fill="#FFFFFF" d="M43.688,746.577c0.126,0,0.239-0.108,0.239-0.244c0-0.135-0.113-0.239-0.239-0.239h-1.408
		c-0.008,0-0.008,0-0.008,0h-0.004c-0.135,0-0.239,0.104-0.239,0.239v2.563c0,0.13,0.104,0.239,0.239,0.239l0.004-0.004
		c0,0,0,0.004,0.008,0.004h1.408c0.126,0,0.239-0.109,0.239-0.239c0-0.135-0.113-0.244-0.239-0.244h-1.177v-0.799h1.012
		c0.13,0,0.24-0.106,0.24-0.242c0-0.126-0.109-0.238-0.24-0.238h-1.012v-0.795H43.688z"/>
	<path fill="#FFFFFF" d="M46.672,746.138c-0.13,0-0.234,0.109-0.234,0.235v1.787l-1.403-1.939c-0.073-0.104-0.221-0.127-0.33-0.052
		c-0.065,0.047-0.1,0.126-0.096,0.2c0,0.004,0,0.004,0,0.004v2.522c0,0.13,0.104,0.239,0.239,0.239c0.126,0,0.234-0.109,0.234-0.239
		l0,0v-1.803l1.39,1.929c0.004,0.01,0.013,0.018,0.022,0.026c0.043,0.052,0.108,0.087,0.178,0.087c0.13,0,0.238-0.109,0.238-0.239
		v-2.522C46.91,746.247,46.802,746.138,46.672,746.138z"/>
	<path fill="#FFFFFF" d="M49.976,746.27c-0.004-0.006-0.004-0.015-0.008-0.022c0-0.01-0.005-0.014-0.008-0.021
		c0-0.006-0.004-0.011-0.004-0.014l-0.005-0.009c-0.004-0.006-0.013-0.014-0.018-0.018c-0.004-0.01-0.009-0.013-0.013-0.018
		c-0.005-0.004-0.009-0.013-0.017-0.018c-0.004-0.004-0.014-0.01-0.018-0.014c-0.009-0.003-0.013-0.008-0.017-0.012
		c-0.008,0-0.013-0.006-0.026-0.014c-0.004-0.004-0.013-0.004-0.017-0.004c-0.009-0.005-0.014-0.009-0.027-0.009
		c-0.004,0-0.013,0-0.018-0.006c-0.008,0-0.017,0-0.03,0h-0.004c-0.005,0-0.009,0-0.013,0c-0.009,0-0.022,0-0.031,0.006
		c-0.004,0-0.012,0-0.017,0.004c-0.009,0-0.018,0.005-0.026,0.005c-0.009,0.004-0.014,0.012-0.021,0.012
		c-0.005,0.006-0.014,0.006-0.018,0.01l-0.534,0.317c-0.113,0.064-0.152,0.217-0.078,0.325c0.044,0.078,0.121,0.122,0.204,0.122
		c0.039,0,0.082-0.009,0.121-0.035l0.174-0.099v2.135c0,0.136,0.104,0.239,0.239,0.239c0.13,0,0.243-0.104,0.243-0.239v-2.563
		c0-0.003,0-0.006,0-0.013c-0.009-0.009-0.009-0.016-0.009-0.03C49.981,746.286,49.976,746.276,49.976,746.27z"/>
	<path fill="#FFFFFF" d="M52.647,747.036c-0.053-0.528-0.5-0.942-1.047-0.942c-0.582,0-1.056,0.471-1.056,1.053
		c0,0.581,0.474,1.05,1.056,1.05c0.148,0,0.291-0.03,0.417-0.086c-0.018,0.039-0.035,0.078-0.057,0.113
		c-0.074,0.129-0.166,0.229-0.273,0.303c-0.113,0.07-0.244,0.118-0.409,0.122c-0.135,0.014-0.238,0.122-0.234,0.251
		c0.008,0.135,0.117,0.235,0.252,0.231c0.247-0.009,0.469-0.083,0.651-0.204c0.273-0.183,0.451-0.455,0.561-0.743
		c0.108-0.287,0.151-0.6,0.151-0.89c0-0.082-0.004-0.165-0.008-0.248C52.647,747.042,52.647,747.042,52.647,747.036z
		 M51.601,747.718c-0.317,0-0.573-0.261-0.573-0.571c0-0.317,0.256-0.569,0.573-0.569c0.317,0,0.568,0.252,0.568,0.569
		C52.169,747.457,51.918,747.718,51.601,747.718z"/>
	<path fill="#FFFFFF" d="M54.384,747.033c-0.148,0-0.292,0.029-0.417,0.086c0.018-0.039,0.035-0.077,0.057-0.111
		c0.074-0.131,0.165-0.232,0.273-0.305c0.113-0.07,0.243-0.117,0.408-0.122c0.134-0.012,0.238-0.122,0.234-0.251
		c-0.008-0.136-0.117-0.236-0.251-0.23c-0.247,0.009-0.469,0.083-0.651,0.203c-0.274,0.184-0.452,0.458-0.561,0.743
		c-0.108,0.286-0.151,0.6-0.151,0.89c0,0.082,0.003,0.165,0.008,0.248c0.004,0.005,0.004,0.005,0.004,0.009
		c0.052,0.53,0.5,0.942,1.047,0.942c0.582,0,1.055-0.468,1.055-1.052C55.439,747.502,54.966,747.033,54.384,747.033z
		 M54.384,748.651c-0.317,0-0.569-0.252-0.569-0.568c0-0.312,0.251-0.572,0.569-0.572c0.317,0,0.573,0.261,0.573,0.572
		C54.957,748.399,54.701,748.651,54.384,748.651z"/>
	<path fill="#FFFFFF" d="M58.08,747.137c0-0.247-0.087-0.504-0.269-0.7c-0.204-0.224-0.49-0.343-0.772-0.343
		c-0.249,0-0.504,0.089-0.7,0.27l-0.134,0.123c-0.1,0.091-0.104,0.238-0.017,0.338c0.091,0.101,0.239,0.109,0.338,0.018l0.135-0.123
		c0.109-0.093,0.243-0.142,0.378-0.142c0.151,0,0.303,0.056,0.417,0.184c0.095,0.107,0.143,0.236,0.143,0.376
		c0,0.157-0.056,0.306-0.182,0.417l-1.285,1.163c-0.096,0.093-0.104,0.239-0.014,0.339c0.044,0.054,0.113,0.079,0.179,0.079h0.004
		c0.004,0,0.004,0,0.004,0h1.538c0.135,0,0.239-0.104,0.239-0.239c0-0.135-0.104-0.244-0.239-0.244h-0.925l0.821-0.741
		C57.962,747.706,58.08,747.419,58.08,747.137z"/>
</g>
</svg>
